<?xml version="1.0" encoding="UTF-8" standalone="no"?>
<!DOCTYPE svg PUBLIC "-//W3C//DTD SVG 1.1//EN"
 "http://www.w3.org/Graphics/SVG/1.1/DTD/svg11.dtd">
<!-- Generated by graphviz version 12.2.1 (20250203.1708)
 -->
<!-- Pages: 1 -->
<svg width="1018pt" height="2220pt"
 viewBox="0.00 0.00 1018.38 2220.00" xmlns="http://www.w3.org/2000/svg" xmlns:xlink="http://www.w3.org/1999/xlink">
<g id="graph0" class="graph" transform="scale(1 1) rotate(0) translate(4 2216)">
<polygon fill="white" stroke="none" points="-4,4 -4,-2216 1014.38,-2216 1014.38,4 -4,4"/>
<!-- 132 -->
<g id="node1" class="node">
<title>132</title>
<g id="a_node1"><a xlink:title="/opt/ros/humble/local/lib/python3.10/dist&#45;packages/rclpy/node.py">
<polygon fill="#0d0f74" stroke="#0d0f74" points="873.38,-2212 781.62,-2212 781.62,-2156 873.38,-2156 873.38,-2212"/>
<text text-anchor="middle" x="827.5" y="-2198.5" font-family="Arial" font-size="10.00" fill="#ffffff">node:1:&lt;module&gt;</text>
<text text-anchor="middle" x="827.5" y="-2186.5" font-family="Arial" font-size="10.00" fill="#ffffff">0.65%</text>
<text text-anchor="middle" x="827.5" y="-2174.5" font-family="Arial" font-size="10.00" fill="#ffffff">(0.00%)</text>
<text text-anchor="middle" x="827.5" y="-2162.5" font-family="Arial" font-size="10.00" fill="#ffffff">1×</text>
</a>
</g>
</g>
<!-- 816 -->
<g id="node2" class="node">
<title>816</title>
<g id="a_node2"><a xlink:title="&lt;frozen importlib._bootstrap&gt;">
<polygon fill="#0d1976" stroke="#0d1976" points="612,-2114 431,-2114 431,-2058 612,-2058 612,-2114"/>
<text text-anchor="middle" x="521.5" y="-2100.5" font-family="Arial" font-size="10.00" fill="#ffffff">&lt;frozen importlib:1022:_find_and_load</text>
<text text-anchor="middle" x="521.5" y="-2088.5" font-family="Arial" font-size="10.00" fill="#ffffff">2.85%</text>
<text text-anchor="middle" x="521.5" y="-2076.5" font-family="Arial" font-size="10.00" fill="#ffffff">(0.01%)</text>
<text text-anchor="middle" x="521.5" y="-2064.5" font-family="Arial" font-size="10.00" fill="#ffffff">294×</text>
</a>
</g>
</g>
<!-- 132&#45;&gt;816 -->
<g id="edge1" class="edge">
<title>132&#45;&gt;816</title>
<path fill="none" stroke="#0d0f74" stroke-width="0.5" d="M781.36,-2168.52C736.93,-2154.58 668.48,-2133.11 612.99,-2115.7"/>
<polygon fill="#0d0f74" stroke="#0d0f74" stroke-width="0.5" points="613.45,-2114.56 609.74,-2114.68 612.71,-2116.9 613.45,-2114.56"/>
<text text-anchor="middle" x="724.78" y="-2137.5" font-family="Arial" font-size="10.00" fill="#0d0f74">0.63%</text>
<text text-anchor="middle" x="724.78" y="-2125.5" font-family="Arial" font-size="10.00" fill="#0d0f74">15×</text>
</g>
<!-- 425 -->
<g id="node23" class="node">
<title>425</title>
<g id="a_node23"><a xlink:title="&lt;frozen importlib._bootstrap&gt;">
<polygon fill="#0d1976" stroke="#0d1976" points="631.5,-2016 411.5,-2016 411.5,-1960 631.5,-1960 631.5,-2016"/>
<text text-anchor="middle" x="521.5" y="-2002.5" font-family="Arial" font-size="10.00" fill="#ffffff">&lt;frozen importlib:987:_find_and_load_unlocked</text>
<text text-anchor="middle" x="521.5" y="-1990.5" font-family="Arial" font-size="10.00" fill="#ffffff">2.85%</text>
<text text-anchor="middle" x="521.5" y="-1978.5" font-family="Arial" font-size="10.00" fill="#ffffff">(0.01%)</text>
<text text-anchor="middle" x="521.5" y="-1966.5" font-family="Arial" font-size="10.00" fill="#ffffff">294×</text>
</a>
</g>
</g>
<!-- 816&#45;&gt;425 -->
<g id="edge23" class="edge">
<title>816&#45;&gt;425</title>
<path fill="none" stroke="#0d1976" stroke-width="0.5" d="M521.5,-2057.75C521.5,-2046.09 521.5,-2032.42 521.5,-2020.35"/>
<polygon fill="#0d1976" stroke="#0d1976" stroke-width="0.5" points="522.73,-2020.58 521.5,-2017.08 520.28,-2020.58 522.73,-2020.58"/>
<text text-anchor="middle" x="535.38" y="-2039.5" font-family="Arial" font-size="10.00" fill="#0d1976">2.85%</text>
<text text-anchor="middle" x="535.38" y="-2027.5" font-family="Arial" font-size="10.00" fill="#0d1976">1×</text>
</g>
<!-- 158 -->
<g id="node3" class="node">
<title>158</title>
<g id="a_node3"><a xlink:title="/home/dfki.uni&#45;bremen.de/ndahn/devel/workspaces/my_workspace/test_ws/install/better_launch/lib/python3.10/site&#45;packages/better_launch/launcher.py">
<polygon fill="#0d1876" stroke="#0d1876" points="726.25,-1330 618.75,-1330 618.75,-1274 726.25,-1274 726.25,-1330"/>
<text text-anchor="middle" x="672.5" y="-1316.5" font-family="Arial" font-size="10.00" fill="#ffffff">launcher:1:&lt;module&gt;</text>
<text text-anchor="middle" x="672.5" y="-1304.5" font-family="Arial" font-size="10.00" fill="#ffffff">2.56%</text>
<text text-anchor="middle" x="672.5" y="-1292.5" font-family="Arial" font-size="10.00" fill="#ffffff">(0.00%)</text>
<text text-anchor="middle" x="672.5" y="-1280.5" font-family="Arial" font-size="10.00" fill="#ffffff">1×</text>
</a>
</g>
</g>
<!-- 158&#45;&gt;816 -->
<g id="edge2" class="edge">
<title>158&#45;&gt;816</title>
<path fill="none" stroke="#0d1776" stroke-width="0.5" d="M713.98,-1330.36C734.32,-1347.32 754.5,-1371.16 754.5,-1399 754.5,-1989 754.5,-1989 754.5,-1989 754.5,-2052.06 680.65,-2074.54 616.1,-2082.15"/>
<polygon fill="#0d1776" stroke="#0d1776" stroke-width="0.5" points="616.34,-2080.89 613,-2082.5 616.62,-2083.32 616.34,-2080.89"/>
<text text-anchor="middle" x="768.38" y="-1696.5" font-family="Arial" font-size="10.00" fill="#0d1776">2.55%</text>
<text text-anchor="middle" x="768.38" y="-1684.5" font-family="Arial" font-size="10.00" fill="#0d1776">12×</text>
</g>
<!-- 167 -->
<g id="node4" class="node">
<title>167</title>
<g id="a_node4"><a xlink:title="~">
<polygon fill="#0d1174" stroke="#0d1174" points="376.38,-1428 182.62,-1428 182.62,-1372 376.38,-1372 376.38,-1428"/>
<text text-anchor="middle" x="279.5" y="-1414.5" font-family="Arial" font-size="10.00" fill="#ffffff">~:0:&lt;built&#45;in method builtins.__import__&gt;</text>
<text text-anchor="middle" x="279.5" y="-1402.5" font-family="Arial" font-size="10.00" fill="#ffffff">0.97%</text>
<text text-anchor="middle" x="279.5" y="-1390.5" font-family="Arial" font-size="10.00" fill="#ffffff">(0.00%)</text>
<text text-anchor="middle" x="279.5" y="-1378.5" font-family="Arial" font-size="10.00" fill="#ffffff">53×</text>
</a>
</g>
</g>
<!-- 167&#45;&gt;816 -->
<g id="edge3" class="edge">
<title>167&#45;&gt;816</title>
<path fill="none" stroke="#0d1174" stroke-width="0.5" d="M279.5,-1428.31C279.5,-1447.52 279.5,-1473.83 279.5,-1497 279.5,-1989 279.5,-1989 279.5,-1989 279.5,-2022.13 358.84,-2048.79 426.66,-2065.53"/>
<polygon fill="#0d1174" stroke="#0d1174" stroke-width="0.5" points="426.27,-2066.7 429.96,-2066.34 426.86,-2064.32 426.27,-2066.7"/>
<text text-anchor="middle" x="293.38" y="-1745.5" font-family="Arial" font-size="10.00" fill="#0d1174">0.96%</text>
<text text-anchor="middle" x="293.38" y="-1733.5" font-family="Arial" font-size="10.00" fill="#0d1174">35×</text>
</g>
<!-- 168 -->
<g id="node5" class="node">
<title>168</title>
<g id="a_node5"><a xlink:title="&lt;frozen importlib._bootstrap&gt;">
<polygon fill="#0d1976" stroke="#0d1976" points="611.5,-1526 379.5,-1526 379.5,-1470 611.5,-1470 611.5,-1526"/>
<text text-anchor="middle" x="495.5" y="-1512.5" font-family="Arial" font-size="10.00" fill="#ffffff">&lt;frozen importlib:233:_call_with_frames_removed</text>
<text text-anchor="middle" x="495.5" y="-1500.5" font-family="Arial" font-size="10.00" fill="#ffffff">2.84%</text>
<text text-anchor="middle" x="495.5" y="-1488.5" font-family="Arial" font-size="10.00" fill="#ffffff">(0.00%)</text>
<text text-anchor="middle" x="495.5" y="-1476.5" font-family="Arial" font-size="10.00" fill="#ffffff">456×</text>
</a>
</g>
</g>
<!-- 168&#45;&gt;167 -->
<g id="edge4" class="edge">
<title>168&#45;&gt;167</title>
<path fill="none" stroke="#0d1174" stroke-width="0.5" d="M433.89,-1469.62C406.09,-1457.26 373.22,-1442.65 344.97,-1430.1"/>
<polygon fill="#0d1174" stroke="#0d1174" stroke-width="0.5" points="345.58,-1429.03 341.88,-1428.73 344.58,-1431.27 345.58,-1429.03"/>
<text text-anchor="middle" x="427.07" y="-1451.5" font-family="Arial" font-size="10.00" fill="#0d1174">0.97%</text>
<text text-anchor="middle" x="427.07" y="-1439.5" font-family="Arial" font-size="10.00" fill="#0d1174">35×</text>
</g>
<!-- 190 -->
<g id="node6" class="node">
<title>190</title>
<g id="a_node6"><a xlink:title="~">
<polygon fill="#0d1074" stroke="#0d1074" points="565.25,-1428 385.75,-1428 385.75,-1372 565.25,-1372 565.25,-1428"/>
<text text-anchor="middle" x="475.5" y="-1414.5" font-family="Arial" font-size="10.00" fill="#ffffff">~:0:&lt;built&#45;in method builtins.compile&gt;</text>
<text text-anchor="middle" x="475.5" y="-1402.5" font-family="Arial" font-size="10.00" fill="#ffffff">0.78%</text>
<text text-anchor="middle" x="475.5" y="-1390.5" font-family="Arial" font-size="10.00" fill="#ffffff">(0.78%)</text>
<text text-anchor="middle" x="475.5" y="-1378.5" font-family="Arial" font-size="10.00" fill="#ffffff">109×</text>
</a>
</g>
</g>
<!-- 168&#45;&gt;190 -->
<g id="edge5" class="edge">
<title>168&#45;&gt;190</title>
<path fill="none" stroke="#0d1074" stroke-width="0.5" d="M489.82,-1469.75C487.39,-1458.09 484.55,-1444.42 482.03,-1432.35"/>
<polygon fill="#0d1074" stroke="#0d1074" stroke-width="0.5" points="483.26,-1432.24 481.35,-1429.06 480.86,-1432.74 483.26,-1432.24"/>
<text text-anchor="middle" x="501.75" y="-1451.5" font-family="Arial" font-size="10.00" fill="#0d1074">0.77%</text>
<text text-anchor="middle" x="501.75" y="-1439.5" font-family="Arial" font-size="10.00" fill="#0d1074">84×</text>
</g>
<!-- 199 -->
<g id="node7" class="node">
<title>199</title>
<g id="a_node7"><a xlink:title="~">
<polygon fill="#ff0000" stroke="#ff0000" points="740.88,-1428 574.12,-1428 574.12,-1372 740.88,-1372 740.88,-1428"/>
<text text-anchor="middle" x="657.5" y="-1414.5" font-family="Arial" font-size="10.00" fill="#ffffff">~:0:&lt;built&#45;in method builtins.exec&gt;</text>
<text text-anchor="middle" x="657.5" y="-1402.5" font-family="Arial" font-size="10.00" fill="#ffffff">100.00%</text>
<text text-anchor="middle" x="657.5" y="-1390.5" font-family="Arial" font-size="10.00" fill="#ffffff">(0.01%)</text>
<text text-anchor="middle" x="657.5" y="-1378.5" font-family="Arial" font-size="10.00" fill="#ffffff">251×</text>
</a>
</g>
</g>
<!-- 168&#45;&gt;199 -->
<g id="edge6" class="edge">
<title>168&#45;&gt;199</title>
<path fill="none" stroke="#0d1976" stroke-width="0.5" d="M541.49,-1469.75C562.09,-1457.54 586.44,-1443.11 607.49,-1430.63"/>
<polygon fill="#0d1976" stroke="#0d1976" stroke-width="0.5" points="608.08,-1431.71 610.46,-1428.87 606.83,-1429.6 608.08,-1431.71"/>
<text text-anchor="middle" x="609.65" y="-1451.5" font-family="Arial" font-size="10.00" fill="#0d1976">2.84%</text>
<text text-anchor="middle" x="609.65" y="-1439.5" font-family="Arial" font-size="10.00" fill="#0d1976">1×</text>
</g>
<!-- 199&#45;&gt;132 -->
<g id="edge8" class="edge">
<title>199&#45;&gt;132</title>
<path fill="none" stroke="#0d0f74" stroke-width="0.5" d="M693.24,-1428.46C729.67,-1458.54 784.79,-1510.27 813.5,-1568 814.58,-1570.18 842.5,-1725.83 842.5,-1742 842.5,-2087 842.5,-2087 842.5,-2087 842.5,-2108.8 838.68,-2133.05 834.89,-2151.73"/>
<polygon fill="#0d0f74" stroke="#0d0f74" stroke-width="0.5" points="833.7,-2151.45 834.19,-2155.12 836.1,-2151.95 833.7,-2151.45"/>
<text text-anchor="middle" x="856.38" y="-1794.5" font-family="Arial" font-size="10.00" fill="#0d0f74">0.65%</text>
<text text-anchor="middle" x="856.38" y="-1782.5" font-family="Arial" font-size="10.00" fill="#0d0f74">1×</text>
</g>
<!-- 199&#45;&gt;158 -->
<g id="edge9" class="edge">
<title>199&#45;&gt;158</title>
<path fill="none" stroke="#0d1876" stroke-width="0.5" d="M661.76,-1371.75C663.58,-1360.09 665.72,-1346.42 667.6,-1334.35"/>
<polygon fill="#0d1876" stroke="#0d1876" stroke-width="0.5" points="668.78,-1334.72 668.11,-1331.07 666.36,-1334.34 668.78,-1334.72"/>
<text text-anchor="middle" x="680.66" y="-1353.5" font-family="Arial" font-size="10.00" fill="#0d1876">2.56%</text>
<text text-anchor="middle" x="680.66" y="-1341.5" font-family="Arial" font-size="10.00" fill="#0d1876">1×</text>
</g>
<!-- 921 -->
<g id="node10" class="node">
<title>921</title>
<g id="a_node10"><a xlink:title="../../examples/11_performance.launch.py">
<polygon fill="#ff0000" stroke="#ff0000" points="197.12,-1330 25.88,-1330 25.88,-1274 197.12,-1274 197.12,-1330"/>
<text text-anchor="middle" x="111.5" y="-1316.5" font-family="Arial" font-size="10.00" fill="#ffffff">11_performance.launch:1:&lt;module&gt;</text>
<text text-anchor="middle" x="111.5" y="-1304.5" font-family="Arial" font-size="10.00" fill="#ffffff">100.00%</text>
<text text-anchor="middle" x="111.5" y="-1292.5" font-family="Arial" font-size="10.00" fill="#ffffff">(0.00%)</text>
<text text-anchor="middle" x="111.5" y="-1280.5" font-family="Arial" font-size="10.00" fill="#ffffff">1×</text>
</a>
</g>
</g>
<!-- 199&#45;&gt;921 -->
<g id="edge10" class="edge">
<title>199&#45;&gt;921</title>
<path fill="none" stroke="#ff0000" stroke-width="4" d="M573.76,-1372.85C572.34,-1372.55 570.91,-1372.27 569.5,-1372 519.46,-1362.47 505.78,-1369.39 455.25,-1363 373.28,-1352.64 281.09,-1336.29 212.83,-1323.27"/>
<polygon fill="#ff0000" stroke="#ff0000" stroke-width="4" points="213.76,-1319.89 203.28,-1321.44 212.44,-1326.76 213.76,-1319.89"/>
<text text-anchor="middle" x="474.38" y="-1353.5" font-family="Arial" font-size="10.00" fill="#ff0000">100.00%</text>
<text text-anchor="middle" x="474.38" y="-1341.5" font-family="Arial" font-size="10.00" fill="#ff0000">1×</text>
</g>
<!-- 1348 -->
<g id="node11" class="node">
<title>1348</title>
<g id="a_node11"><a xlink:title="/home/dfki.uni&#45;bremen.de/ndahn/devel/workspaces/my_workspace/test_ws/install/better_launch/lib/python3.10/site&#45;packages/better_launch/elements/__init__.py">
<polygon fill="#0d1074" stroke="#0d1074" points="858.75,-1330 754.25,-1330 754.25,-1274 858.75,-1274 858.75,-1330"/>
<text text-anchor="middle" x="806.5" y="-1316.5" font-family="Arial" font-size="10.00" fill="#ffffff">__init__:1:&lt;module&gt;</text>
<text text-anchor="middle" x="806.5" y="-1304.5" font-family="Arial" font-size="10.00" fill="#ffffff">0.81%</text>
<text text-anchor="middle" x="806.5" y="-1292.5" font-family="Arial" font-size="10.00" fill="#ffffff">(0.00%)</text>
<text text-anchor="middle" x="806.5" y="-1280.5" font-family="Arial" font-size="10.00" fill="#ffffff">1×</text>
</a>
</g>
</g>
<!-- 199&#45;&gt;1348 -->
<g id="edge11" class="edge">
<title>199&#45;&gt;1348</title>
<path fill="none" stroke="#0d1074" stroke-width="0.5" d="M699.8,-1371.75C718.75,-1359.54 741.14,-1345.11 760.51,-1332.63"/>
<polygon fill="#0d1074" stroke="#0d1074" stroke-width="0.5" points="760.92,-1333.82 763.2,-1330.9 759.6,-1331.76 760.92,-1333.82"/>
<text text-anchor="middle" x="763.6" y="-1353.5" font-family="Arial" font-size="10.00" fill="#0d1074">0.81%</text>
<text text-anchor="middle" x="763.6" y="-1341.5" font-family="Arial" font-size="10.00" fill="#0d1074">1×</text>
</g>
<!-- 1953 -->
<g id="node12" class="node">
<title>1953</title>
<g id="a_node12"><a xlink:title="/home/dfki.uni&#45;bremen.de/ndahn/devel/workspaces/my_workspace/test_ws/install/better_launch/lib/python3.10/site&#45;packages/better_launch/__init__.py">
<polygon fill="#0d1976" stroke="#0d1976" points="448.75,-1330 344.25,-1330 344.25,-1274 448.75,-1274 448.75,-1330"/>
<text text-anchor="middle" x="396.5" y="-1316.5" font-family="Arial" font-size="10.00" fill="#ffffff">__init__:1:&lt;module&gt;</text>
<text text-anchor="middle" x="396.5" y="-1304.5" font-family="Arial" font-size="10.00" fill="#ffffff">2.84%</text>
<text text-anchor="middle" x="396.5" y="-1292.5" font-family="Arial" font-size="10.00" fill="#ffffff">(0.00%)</text>
<text text-anchor="middle" x="396.5" y="-1280.5" font-family="Arial" font-size="10.00" fill="#ffffff">1×</text>
</a>
</g>
</g>
<!-- 199&#45;&gt;1953 -->
<g id="edge12" class="edge">
<title>199&#45;&gt;1953</title>
<path fill="none" stroke="#0d1976" stroke-width="0.5" d="M583.06,-1371.62C541.6,-1356.37 490.83,-1337.7 452.73,-1323.68"/>
<polygon fill="#0d1976" stroke="#0d1976" stroke-width="0.5" points="453.5,-1322.66 449.79,-1322.6 452.65,-1324.96 453.5,-1322.66"/>
<text text-anchor="middle" x="571.93" y="-1353.5" font-family="Arial" font-size="10.00" fill="#0d1976">2.84%</text>
<text text-anchor="middle" x="571.93" y="-1341.5" font-family="Arial" font-size="10.00" fill="#0d1976">1×</text>
</g>
<!-- 174 -->
<g id="node8" class="node">
<title>174</title>
<g id="a_node8"><a xlink:title="/home/dfki.uni&#45;bremen.de/ndahn/devel/workspaces/my_workspace/test_ws/install/better_launch/lib/python3.10/site&#45;packages/better_launch/launcher.py">
<polygon fill="#fa2401" stroke="#fa2401" points="157.75,-350 65.25,-350 65.25,-294 157.75,-294 157.75,-350"/>
<text text-anchor="middle" x="111.5" y="-336.5" font-family="Arial" font-size="10.00" fill="#ffffff">launcher:223:spin</text>
<text text-anchor="middle" x="111.5" y="-324.5" font-family="Arial" font-size="10.00" fill="#ffffff">96.46%</text>
<text text-anchor="middle" x="111.5" y="-312.5" font-family="Arial" font-size="10.00" fill="#ffffff">(0.02%)</text>
<text text-anchor="middle" x="111.5" y="-300.5" font-family="Arial" font-size="10.00" fill="#ffffff">1×</text>
</a>
</g>
</g>
<!-- 1759 -->
<g id="node9" class="node">
<title>1759</title>
<g id="a_node9"><a xlink:title="/home/dfki.uni&#45;bremen.de/ndahn/miniforge3/lib/python3.10/concurrent/futures/_base.py">
<polygon fill="#f92501" stroke="#f92501" points="155.5,-252 67.5,-252 67.5,-196 155.5,-196 155.5,-252"/>
<text text-anchor="middle" x="111.5" y="-238.5" font-family="Arial" font-size="10.00" fill="#ffffff">_base:430:result</text>
<text text-anchor="middle" x="111.5" y="-226.5" font-family="Arial" font-size="10.00" fill="#ffffff">96.36%</text>
<text text-anchor="middle" x="111.5" y="-214.5" font-family="Arial" font-size="10.00" fill="#ffffff">(0.02%)</text>
<text text-anchor="middle" x="111.5" y="-202.5" font-family="Arial" font-size="10.00" fill="#ffffff">58×</text>
</a>
</g>
</g>
<!-- 174&#45;&gt;1759 -->
<g id="edge7" class="edge">
<title>174&#45;&gt;1759</title>
<path fill="none" stroke="#f92501" stroke-width="3.85" d="M111.5,-293.75C111.5,-285.64 111.5,-276.56 111.5,-267.71"/>
<polygon fill="#f92501" stroke="#f92501" stroke-width="3.85" points="114.93,-267.95 111.5,-258.15 108.07,-267.95 114.93,-267.95"/>
<text text-anchor="middle" x="128" y="-275.5" font-family="Arial" font-size="10.00" fill="#f92501">96.36%</text>
<text text-anchor="middle" x="128" y="-263.5" font-family="Arial" font-size="10.00" fill="#f92501">52×</text>
</g>
<!-- 533 -->
<g id="node25" class="node">
<title>533</title>
<g id="a_node25"><a xlink:title="/home/dfki.uni&#45;bremen.de/ndahn/miniforge3/lib/python3.10/threading.py">
<polygon fill="#f92501" stroke="#f92501" points="159.25,-154 63.75,-154 63.75,-98 159.25,-98 159.25,-154"/>
<text text-anchor="middle" x="111.5" y="-140.5" font-family="Arial" font-size="10.00" fill="#ffffff">threading:288:wait</text>
<text text-anchor="middle" x="111.5" y="-128.5" font-family="Arial" font-size="10.00" fill="#ffffff">96.33%</text>
<text text-anchor="middle" x="111.5" y="-116.5" font-family="Arial" font-size="10.00" fill="#ffffff">(0.02%)</text>
<text text-anchor="middle" x="111.5" y="-104.5" font-family="Arial" font-size="10.00" fill="#ffffff">54×</text>
</a>
</g>
</g>
<!-- 1759&#45;&gt;533 -->
<g id="edge34" class="edge">
<title>1759&#45;&gt;533</title>
<path fill="none" stroke="#f92501" stroke-width="3.85" d="M111.5,-195.75C111.5,-187.64 111.5,-178.56 111.5,-169.71"/>
<polygon fill="#f92501" stroke="#f92501" stroke-width="3.85" points="114.93,-169.95 111.5,-160.15 108.07,-169.95 114.93,-169.95"/>
<text text-anchor="middle" x="128" y="-177.5" font-family="Arial" font-size="10.00" fill="#f92501">96.33%</text>
<text text-anchor="middle" x="128" y="-165.5" font-family="Arial" font-size="10.00" fill="#f92501">52×</text>
</g>
<!-- 921&#45;&gt;816 -->
<g id="edge27" class="edge">
<title>921&#45;&gt;816</title>
<path fill="none" stroke="#0d1976" stroke-width="0.5" d="M107.14,-1330.23C104.45,-1349.41 101.5,-1375.71 101.5,-1399 101.5,-1989 101.5,-1989 101.5,-1989 101.5,-2055.27 302.73,-2075.79 426.62,-2082.15"/>
<polygon fill="#0d1976" stroke="#0d1976" stroke-width="0.5" points="426.31,-2083.36 429.87,-2082.31 426.44,-2080.91 426.31,-2083.36"/>
<text text-anchor="middle" x="115.38" y="-1696.5" font-family="Arial" font-size="10.00" fill="#0d1976">2.85%</text>
<text text-anchor="middle" x="115.38" y="-1684.5" font-family="Arial" font-size="10.00" fill="#0d1976">1×</text>
</g>
<!-- 920 -->
<g id="node30" class="node">
<title>920</title>
<g id="a_node30"><a xlink:title="/home/dfki.uni&#45;bremen.de/ndahn/devel/workspaces/my_workspace/test_ws/install/better_launch/lib/python3.10/site&#45;packages/better_launch/wrapper.py">
<polygon fill="#fb1d01" stroke="#fb1d01" points="169.75,-1232 53.25,-1232 53.25,-1176 169.75,-1176 169.75,-1232"/>
<text text-anchor="middle" x="111.5" y="-1218.5" font-family="Arial" font-size="10.00" fill="#ffffff">wrapper:27:launch_this</text>
<text text-anchor="middle" x="111.5" y="-1206.5" font-family="Arial" font-size="10.00" fill="#ffffff">97.15%</text>
<text text-anchor="middle" x="111.5" y="-1194.5" font-family="Arial" font-size="10.00" fill="#ffffff">(0.00%)</text>
<text text-anchor="middle" x="111.5" y="-1182.5" font-family="Arial" font-size="10.00" fill="#ffffff">1×</text>
</a>
</g>
</g>
<!-- 921&#45;&gt;920 -->
<g id="edge28" class="edge">
<title>921&#45;&gt;920</title>
<path fill="none" stroke="#fb1d01" stroke-width="3.89" d="M111.5,-1273.75C111.5,-1265.74 111.5,-1256.78 111.5,-1248.04"/>
<polygon fill="#fb1d01" stroke="#fb1d01" stroke-width="3.89" points="114.97,-1248.11 111.5,-1238.21 108.04,-1248.11 114.97,-1248.11"/>
<text text-anchor="middle" x="128" y="-1255.5" font-family="Arial" font-size="10.00" fill="#fb1d01">97.15%</text>
<text text-anchor="middle" x="128" y="-1243.5" font-family="Arial" font-size="10.00" fill="#fb1d01">1×</text>
</g>
<!-- 1348&#45;&gt;816 -->
<g id="edge33" class="edge">
<title>1348&#45;&gt;816</title>
<path fill="none" stroke="#0d1074" stroke-width="0.5" d="M805.86,-1330.48C804.32,-1399.6 800.5,-1586.32 800.5,-1742 800.5,-1989 800.5,-1989 800.5,-1989 800.5,-2026.71 774.05,-2031.78 740.5,-2049 702.48,-2068.51 656.29,-2077.88 616.15,-2082.22"/>
<polygon fill="#0d1074" stroke="#0d1074" stroke-width="0.5" points="616.39,-2080.96 613.04,-2082.55 616.65,-2083.4 616.39,-2080.96"/>
<text text-anchor="middle" x="814.64" y="-1696.5" font-family="Arial" font-size="10.00" fill="#0d1074">0.81%</text>
<text text-anchor="middle" x="814.64" y="-1684.5" font-family="Arial" font-size="10.00" fill="#0d1074">4×</text>
</g>
<!-- 1953&#45;&gt;816 -->
<g id="edge35" class="edge">
<title>1953&#45;&gt;816</title>
<path fill="none" stroke="#0d1976" stroke-width="0.5" d="M343.91,-1303.11C276.57,-1306.33 168.5,-1323.3 168.5,-1399 168.5,-1989 168.5,-1989 168.5,-1989 168.5,-2042.61 322.03,-2067.26 426.59,-2077.84"/>
<polygon fill="#0d1976" stroke="#0d1976" stroke-width="0.5" points="426.24,-2079.03 429.84,-2078.16 426.48,-2076.59 426.24,-2079.03"/>
<text text-anchor="middle" x="182.38" y="-1696.5" font-family="Arial" font-size="10.00" fill="#0d1976">2.79%</text>
<text text-anchor="middle" x="182.38" y="-1684.5" font-family="Arial" font-size="10.00" fill="#0d1976">2×</text>
</g>
<!-- 242 -->
<g id="node13" class="node">
<title>242</title>
<g id="a_node13"><a xlink:title="&lt;frozen importlib._bootstrap&gt;">
<polygon fill="#0d1976" stroke="#0d1976" points="688.5,-1918 510.5,-1918 510.5,-1862 688.5,-1862 688.5,-1918"/>
<text text-anchor="middle" x="599.5" y="-1904.5" font-family="Arial" font-size="10.00" fill="#ffffff">&lt;frozen importlib:664:_load_unlocked</text>
<text text-anchor="middle" x="599.5" y="-1892.5" font-family="Arial" font-size="10.00" fill="#ffffff">2.84%</text>
<text text-anchor="middle" x="599.5" y="-1880.5" font-family="Arial" font-size="10.00" fill="#ffffff">(0.01%)</text>
<text text-anchor="middle" x="599.5" y="-1868.5" font-family="Arial" font-size="10.00" fill="#ffffff">284×</text>
</a>
</g>
</g>
<!-- 2048 -->
<g id="node14" class="node">
<title>2048</title>
<g id="a_node14"><a xlink:title="&lt;frozen importlib._bootstrap_external&gt;">
<polygon fill="#0d1976" stroke="#0d1976" points="683.62,-1820 515.38,-1820 515.38,-1764 683.62,-1764 683.62,-1820"/>
<text text-anchor="middle" x="599.5" y="-1806.5" font-family="Arial" font-size="10.00" fill="#ffffff">&lt;frozen importlib:877:exec_module</text>
<text text-anchor="middle" x="599.5" y="-1794.5" font-family="Arial" font-size="10.00" fill="#ffffff">2.84%</text>
<text text-anchor="middle" x="599.5" y="-1782.5" font-family="Arial" font-size="10.00" fill="#ffffff">(0.01%)</text>
<text text-anchor="middle" x="599.5" y="-1770.5" font-family="Arial" font-size="10.00" fill="#ffffff">249×</text>
</a>
</g>
</g>
<!-- 242&#45;&gt;2048 -->
<g id="edge13" class="edge">
<title>242&#45;&gt;2048</title>
<path fill="none" stroke="#0d1976" stroke-width="0.5" d="M599.5,-1861.75C599.5,-1850.09 599.5,-1836.42 599.5,-1824.35"/>
<polygon fill="#0d1976" stroke="#0d1976" stroke-width="0.5" points="600.73,-1824.58 599.5,-1821.08 598.28,-1824.58 600.73,-1824.58"/>
<text text-anchor="middle" x="613.38" y="-1843.5" font-family="Arial" font-size="10.00" fill="#0d1976">2.84%</text>
<text text-anchor="middle" x="613.38" y="-1831.5" font-family="Arial" font-size="10.00" fill="#0d1976">1×</text>
</g>
<!-- 2048&#45;&gt;168 -->
<g id="edge36" class="edge">
<title>2048&#45;&gt;168</title>
<path fill="none" stroke="#0d1976" stroke-width="0.5" d="M642.19,-1763.62C656.28,-1752.42 670.61,-1738.25 679.5,-1722 712.48,-1661.7 733.31,-1624.03 693.5,-1568 674.96,-1541.91 645.8,-1525.6 615.5,-1515.43"/>
<polygon fill="#0d1976" stroke="#0d1976" stroke-width="0.5" points="616.23,-1514.38 612.52,-1514.46 615.47,-1516.71 616.23,-1514.38"/>
<text text-anchor="middle" x="728.94" y="-1647.5" font-family="Arial" font-size="10.00" fill="#0d1976">2.84%</text>
<text text-anchor="middle" x="728.94" y="-1635.5" font-family="Arial" font-size="10.00" fill="#0d1976">1×</text>
</g>
<!-- 404 -->
<g id="node19" class="node">
<title>404</title>
<g id="a_node19"><a xlink:title="&lt;frozen importlib._bootstrap_external&gt;">
<polygon fill="#0d1274" stroke="#0d1274" points="674.62,-1722 524.38,-1722 524.38,-1666 674.62,-1666 674.62,-1722"/>
<text text-anchor="middle" x="599.5" y="-1708.5" font-family="Arial" font-size="10.00" fill="#ffffff">&lt;frozen importlib:950:get_code</text>
<text text-anchor="middle" x="599.5" y="-1696.5" font-family="Arial" font-size="10.00" fill="#ffffff">1.15%</text>
<text text-anchor="middle" x="599.5" y="-1684.5" font-family="Arial" font-size="10.00" fill="#ffffff">(0.02%)</text>
<text text-anchor="middle" x="599.5" y="-1672.5" font-family="Arial" font-size="10.00" fill="#ffffff">249×</text>
</a>
</g>
</g>
<!-- 2048&#45;&gt;404 -->
<g id="edge37" class="edge">
<title>2048&#45;&gt;404</title>
<path fill="none" stroke="#0d1274" stroke-width="0.5" d="M599.5,-1763.75C599.5,-1752.09 599.5,-1738.42 599.5,-1726.35"/>
<polygon fill="#0d1274" stroke="#0d1274" stroke-width="0.5" points="600.73,-1726.58 599.5,-1723.08 598.28,-1726.58 600.73,-1726.58"/>
<text text-anchor="middle" x="613.38" y="-1745.5" font-family="Arial" font-size="10.00" fill="#0d1274">1.15%</text>
<text text-anchor="middle" x="613.38" y="-1733.5" font-family="Arial" font-size="10.00" fill="#0d1274">249×</text>
</g>
<!-- 243 -->
<g id="node15" class="node">
<title>243</title>
<g id="a_node15"><a xlink:title="&lt;frozen importlib._bootstrap&gt;">
<polygon fill="#0d0f73" stroke="#0d0f73" points="481,-1624 294,-1624 294,-1568 481,-1568 481,-1624"/>
<text text-anchor="middle" x="387.5" y="-1610.5" font-family="Arial" font-size="10.00" fill="#ffffff">&lt;frozen importlib:1053:_handle_fromlist</text>
<text text-anchor="middle" x="387.5" y="-1598.5" font-family="Arial" font-size="10.00" fill="#ffffff">0.53%</text>
<text text-anchor="middle" x="387.5" y="-1586.5" font-family="Arial" font-size="10.00" fill="#ffffff">(0.00%)</text>
<text text-anchor="middle" x="387.5" y="-1574.5" font-family="Arial" font-size="10.00" fill="#ffffff">161×</text>
</a>
</g>
</g>
<!-- 243&#45;&gt;168 -->
<g id="edge14" class="edge">
<title>243&#45;&gt;168</title>
<path fill="none" stroke="#0d0f73" stroke-width="0.5" d="M418.16,-1567.75C431.73,-1555.69 447.73,-1541.46 461.64,-1529.09"/>
<polygon fill="#0d0f73" stroke="#0d0f73" stroke-width="0.5" points="462.4,-1530.06 464.2,-1526.82 460.77,-1528.23 462.4,-1530.06"/>
<text text-anchor="middle" x="468.22" y="-1549.5" font-family="Arial" font-size="10.00" fill="#0d0f73">0.51%</text>
<text text-anchor="middle" x="468.22" y="-1537.5" font-family="Arial" font-size="10.00" fill="#0d0f73">24×</text>
</g>
<!-- 258 -->
<g id="node16" class="node">
<title>258</title>
<g id="a_node16"><a xlink:title="/home/dfki.uni&#45;bremen.de/ndahn/.local/lib/python3.10/site&#45;packages/click/core.py">
<polygon fill="#fa2301" stroke="#fa2301" points="154,-742 69,-742 69,-686 154,-686 154,-742"/>
<text text-anchor="middle" x="111.5" y="-728.5" font-family="Arial" font-size="10.00" fill="#ffffff">core:737:invoke</text>
<text text-anchor="middle" x="111.5" y="-716.5" font-family="Arial" font-size="10.00" fill="#ffffff">96.57%</text>
<text text-anchor="middle" x="111.5" y="-704.5" font-family="Arial" font-size="10.00" fill="#ffffff">(0.00%)</text>
<text text-anchor="middle" x="111.5" y="-692.5" font-family="Arial" font-size="10.00" fill="#ffffff">1×</text>
</a>
</g>
</g>
<!-- 929 -->
<g id="node17" class="node">
<title>929</title>
<g id="a_node17"><a xlink:title="/home/dfki.uni&#45;bremen.de/ndahn/.local/lib/python3.10/site&#45;packages/click/decorators.py">
<polygon fill="#fa2301" stroke="#fa2301" points="171.62,-644 51.38,-644 51.38,-588 171.62,-588 171.62,-644"/>
<text text-anchor="middle" x="111.5" y="-630.5" font-family="Arial" font-size="10.00" fill="#ffffff">decorators:32:new_func</text>
<text text-anchor="middle" x="111.5" y="-618.5" font-family="Arial" font-size="10.00" fill="#ffffff">96.57%</text>
<text text-anchor="middle" x="111.5" y="-606.5" font-family="Arial" font-size="10.00" fill="#ffffff">(0.00%)</text>
<text text-anchor="middle" x="111.5" y="-594.5" font-family="Arial" font-size="10.00" fill="#ffffff">1×</text>
</a>
</g>
</g>
<!-- 258&#45;&gt;929 -->
<g id="edge15" class="edge">
<title>258&#45;&gt;929</title>
<path fill="none" stroke="#fa2301" stroke-width="3.86" d="M111.5,-685.75C111.5,-677.64 111.5,-668.56 111.5,-659.71"/>
<polygon fill="#fa2301" stroke="#fa2301" stroke-width="3.86" points="114.93,-659.96 111.5,-650.16 108.07,-659.96 114.93,-659.96"/>
<text text-anchor="middle" x="128" y="-667.5" font-family="Arial" font-size="10.00" fill="#fa2301">96.57%</text>
<text text-anchor="middle" x="128" y="-655.5" font-family="Arial" font-size="10.00" fill="#fa2301">1×</text>
</g>
<!-- 928 -->
<g id="node32" class="node">
<title>928</title>
<g id="a_node32"><a xlink:title="/home/dfki.uni&#45;bremen.de/ndahn/devel/workspaces/my_workspace/test_ws/install/better_launch/lib/python3.10/site&#45;packages/better_launch/wrapper.py">
<polygon fill="#fa2301" stroke="#fa2301" points="154.38,-546 68.62,-546 68.62,-490 154.38,-490 154.38,-546"/>
<text text-anchor="middle" x="111.5" y="-532.5" font-family="Arial" font-size="10.00" fill="#ffffff">wrapper:280:run</text>
<text text-anchor="middle" x="111.5" y="-520.5" font-family="Arial" font-size="10.00" fill="#ffffff">96.57%</text>
<text text-anchor="middle" x="111.5" y="-508.5" font-family="Arial" font-size="10.00" fill="#ffffff">(0.00%)</text>
<text text-anchor="middle" x="111.5" y="-496.5" font-family="Arial" font-size="10.00" fill="#ffffff">1×</text>
</a>
</g>
</g>
<!-- 929&#45;&gt;928 -->
<g id="edge31" class="edge">
<title>929&#45;&gt;928</title>
<path fill="none" stroke="#fa2301" stroke-width="3.86" d="M111.5,-587.75C111.5,-579.64 111.5,-570.56 111.5,-561.71"/>
<polygon fill="#fa2301" stroke="#fa2301" stroke-width="3.86" points="114.93,-561.96 111.5,-552.16 108.07,-561.96 114.93,-561.96"/>
<text text-anchor="middle" x="128" y="-569.5" font-family="Arial" font-size="10.00" fill="#fa2301">96.57%</text>
<text text-anchor="middle" x="128" y="-557.5" font-family="Arial" font-size="10.00" fill="#fa2301">1×</text>
</g>
<!-- 398 -->
<g id="node18" class="node">
<title>398</title>
<g id="a_node18"><a xlink:title="/home/dfki.uni&#45;bremen.de/ndahn/miniforge3/lib/python3.10/inspect.py">
<polygon fill="#0d0f73" stroke="#0d0f73" points="1004.75,-2016 876.25,-2016 876.25,-1960 1004.75,-1960 1004.75,-2016"/>
<text text-anchor="middle" x="940.5" y="-2002.5" font-family="Arial" font-size="10.00" fill="#ffffff">inspect:1604:getframeinfo</text>
<text text-anchor="middle" x="940.5" y="-1990.5" font-family="Arial" font-size="10.00" fill="#ffffff">0.50%</text>
<text text-anchor="middle" x="940.5" y="-1978.5" font-family="Arial" font-size="10.00" fill="#ffffff">(0.00%)</text>
<text text-anchor="middle" x="940.5" y="-1966.5" font-family="Arial" font-size="10.00" fill="#ffffff">56×</text>
</a>
</g>
</g>
<!-- 2049 -->
<g id="node20" class="node">
<title>2049</title>
<g id="a_node20"><a xlink:title="&lt;frozen importlib._bootstrap_external&gt;">
<polygon fill="#0d1074" stroke="#0d1074" points="689.25,-1624 509.75,-1624 509.75,-1568 689.25,-1568 689.25,-1624"/>
<text text-anchor="middle" x="599.5" y="-1610.5" font-family="Arial" font-size="10.00" fill="#ffffff">&lt;frozen importlib:942:source_to_code</text>
<text text-anchor="middle" x="599.5" y="-1598.5" font-family="Arial" font-size="10.00" fill="#ffffff">0.78%</text>
<text text-anchor="middle" x="599.5" y="-1586.5" font-family="Arial" font-size="10.00" fill="#ffffff">(0.00%)</text>
<text text-anchor="middle" x="599.5" y="-1574.5" font-family="Arial" font-size="10.00" fill="#ffffff">84×</text>
</a>
</g>
</g>
<!-- 404&#45;&gt;2049 -->
<g id="edge16" class="edge">
<title>404&#45;&gt;2049</title>
<path fill="none" stroke="#0d1074" stroke-width="0.5" d="M599.5,-1665.75C599.5,-1654.09 599.5,-1640.42 599.5,-1628.35"/>
<polygon fill="#0d1074" stroke="#0d1074" stroke-width="0.5" points="600.73,-1628.58 599.5,-1625.08 598.28,-1628.58 600.73,-1628.58"/>
<text text-anchor="middle" x="613.38" y="-1647.5" font-family="Arial" font-size="10.00" fill="#0d1074">0.78%</text>
<text text-anchor="middle" x="613.38" y="-1635.5" font-family="Arial" font-size="10.00" fill="#0d1074">84×</text>
</g>
<!-- 2049&#45;&gt;168 -->
<g id="edge38" class="edge">
<title>2049&#45;&gt;168</title>
<path fill="none" stroke="#0d1074" stroke-width="0.5" d="M569.98,-1567.75C556.91,-1555.69 541.5,-1541.46 528.1,-1529.09"/>
<polygon fill="#0d1074" stroke="#0d1074" stroke-width="0.5" points="529.06,-1528.31 525.65,-1526.83 527.39,-1530.11 529.06,-1528.31"/>
<text text-anchor="middle" x="573.75" y="-1549.5" font-family="Arial" font-size="10.00" fill="#0d1074">0.77%</text>
<text text-anchor="middle" x="573.75" y="-1537.5" font-family="Arial" font-size="10.00" fill="#0d1074">84×</text>
</g>
<!-- 418 -->
<g id="node21" class="node">
<title>418</title>
<g id="a_node21"><a xlink:title="/home/dfki.uni&#45;bremen.de/ndahn/devel/workspaces/my_workspace/test_ws/install/better_launch/lib/python3.10/site&#45;packages/better_launch/wrapper.py">
<polygon fill="#fb1d01" stroke="#fb1d01" points="192.25,-1036 30.75,-1036 30.75,-980 192.25,-980 192.25,-1036"/>
<text text-anchor="middle" x="111.5" y="-1022.5" font-family="Arial" font-size="10.00" fill="#ffffff">wrapper:83:_launch_this_wrapper</text>
<text text-anchor="middle" x="111.5" y="-1010.5" font-family="Arial" font-size="10.00" fill="#ffffff">97.15%</text>
<text text-anchor="middle" x="111.5" y="-998.5" font-family="Arial" font-size="10.00" fill="#ffffff">(0.00%)</text>
<text text-anchor="middle" x="111.5" y="-986.5" font-family="Arial" font-size="10.00" fill="#ffffff">1×</text>
</a>
</g>
</g>
<!-- 670 -->
<g id="node22" class="node">
<title>670</title>
<g id="a_node22"><a xlink:title="/home/dfki.uni&#45;bremen.de/ndahn/.local/lib/python3.10/site&#45;packages/click/core.py">
<polygon fill="#fa2301" stroke="#fa2301" points="152.88,-938 70.12,-938 70.12,-882 152.88,-882 152.88,-938"/>
<text text-anchor="middle" x="111.5" y="-924.5" font-family="Arial" font-size="10.00" fill="#ffffff">core:1014:main</text>
<text text-anchor="middle" x="111.5" y="-912.5" font-family="Arial" font-size="10.00" fill="#ffffff">96.58%</text>
<text text-anchor="middle" x="111.5" y="-900.5" font-family="Arial" font-size="10.00" fill="#ffffff">(0.00%)</text>
<text text-anchor="middle" x="111.5" y="-888.5" font-family="Arial" font-size="10.00" fill="#ffffff">1×</text>
</a>
</g>
</g>
<!-- 418&#45;&gt;670 -->
<g id="edge17" class="edge">
<title>418&#45;&gt;670</title>
<path fill="none" stroke="#fa2301" stroke-width="3.86" d="M111.5,-979.75C111.5,-971.64 111.5,-962.56 111.5,-953.71"/>
<polygon fill="#fa2301" stroke="#fa2301" stroke-width="3.86" points="114.93,-953.96 111.5,-944.16 108.07,-953.96 114.93,-953.96"/>
<text text-anchor="middle" x="128" y="-961.5" font-family="Arial" font-size="10.00" fill="#fa2301">96.58%</text>
<text text-anchor="middle" x="128" y="-949.5" font-family="Arial" font-size="10.00" fill="#fa2301">1×</text>
</g>
<!-- 940 -->
<g id="node26" class="node">
<title>940</title>
<g id="a_node26"><a xlink:title="/home/dfki.uni&#45;bremen.de/ndahn/.local/lib/python3.10/site&#45;packages/click/core.py">
<polygon fill="#fa2301" stroke="#fa2301" points="156.62,-840 66.38,-840 66.38,-784 156.62,-784 156.62,-840"/>
<text text-anchor="middle" x="111.5" y="-826.5" font-family="Arial" font-size="10.00" fill="#ffffff">core:1432:invoke</text>
<text text-anchor="middle" x="111.5" y="-814.5" font-family="Arial" font-size="10.00" fill="#ffffff">96.57%</text>
<text text-anchor="middle" x="111.5" y="-802.5" font-family="Arial" font-size="10.00" fill="#ffffff">(0.00%)</text>
<text text-anchor="middle" x="111.5" y="-790.5" font-family="Arial" font-size="10.00" fill="#ffffff">1×</text>
</a>
</g>
</g>
<!-- 670&#45;&gt;940 -->
<g id="edge21" class="edge">
<title>670&#45;&gt;940</title>
<path fill="none" stroke="#fa2301" stroke-width="3.86" d="M111.5,-881.75C111.5,-873.64 111.5,-864.56 111.5,-855.71"/>
<polygon fill="#fa2301" stroke="#fa2301" stroke-width="3.86" points="114.93,-855.96 111.5,-846.16 108.07,-855.96 114.93,-855.96"/>
<text text-anchor="middle" x="128" y="-863.5" font-family="Arial" font-size="10.00" fill="#fa2301">96.57%</text>
<text text-anchor="middle" x="128" y="-851.5" font-family="Arial" font-size="10.00" fill="#fa2301">1×</text>
</g>
<!-- 425&#45;&gt;168 -->
<g id="edge18" class="edge">
<title>425&#45;&gt;168</title>
<path fill="none" stroke="#0d0f73" stroke-width="0.5" d="M510.02,-1959.8C503.06,-1940.86 495.5,-1914.83 495.5,-1891 495.5,-1891 495.5,-1891 495.5,-1595 495.5,-1573.46 495.5,-1549.21 495.5,-1530.46"/>
<polygon fill="#0d0f73" stroke="#0d0f73" stroke-width="0.5" points="496.73,-1530.57 495.5,-1527.07 494.28,-1530.57 496.73,-1530.57"/>
<text text-anchor="middle" x="509.38" y="-1745.5" font-family="Arial" font-size="10.00" fill="#0d0f73">0.46%</text>
<text text-anchor="middle" x="509.38" y="-1733.5" font-family="Arial" font-size="10.00" fill="#0d0f73">12×</text>
</g>
<!-- 425&#45;&gt;242 -->
<g id="edge19" class="edge">
<title>425&#45;&gt;242</title>
<path fill="none" stroke="#0d1976" stroke-width="0.5" d="M543.64,-1959.75C553.36,-1947.79 564.8,-1933.7 574.79,-1921.41"/>
<polygon fill="#0d1976" stroke="#0d1976" stroke-width="0.5" points="575.57,-1922.4 576.82,-1918.91 573.67,-1920.85 575.57,-1922.4"/>
<text text-anchor="middle" x="583.66" y="-1941.5" font-family="Arial" font-size="10.00" fill="#0d1976">2.84%</text>
<text text-anchor="middle" x="583.66" y="-1929.5" font-family="Arial" font-size="10.00" fill="#0d1976">1×</text>
</g>
<!-- 529 -->
<g id="node24" class="node">
<title>529</title>
<g id="a_node24"><a xlink:title="~">
<polygon fill="#f92601" stroke="#f92601" points="223,-56 0,-56 0,0 223,0 223,-56"/>
<text text-anchor="middle" x="111.5" y="-42.5" font-family="Arial" font-size="10.00" fill="#ffffff">~:0:&lt;method &#39;acquire&#39; of &#39;_thread.lock&#39; objects&gt;</text>
<text text-anchor="middle" x="111.5" y="-30.5" font-family="Arial" font-size="10.00" fill="#ffffff">96.30%</text>
<text text-anchor="middle" x="111.5" y="-18.5" font-family="Arial" font-size="10.00" fill="#ffffff">(96.30%)</text>
<text text-anchor="middle" x="111.5" y="-6.5" font-family="Arial" font-size="10.00" fill="#ffffff">167×</text>
</a>
</g>
</g>
<!-- 533&#45;&gt;529 -->
<g id="edge20" class="edge">
<title>533&#45;&gt;529</title>
<path fill="none" stroke="#f92601" stroke-width="3.85" d="M111.5,-97.75C111.5,-89.64 111.5,-80.56 111.5,-71.71"/>
<polygon fill="#f92601" stroke="#f92601" stroke-width="3.85" points="114.93,-71.95 111.5,-62.15 108.07,-71.95 114.93,-71.95"/>
<text text-anchor="middle" x="128" y="-79.5" font-family="Arial" font-size="10.00" fill="#f92601">96.30%</text>
<text text-anchor="middle" x="128" y="-67.5" font-family="Arial" font-size="10.00" fill="#f92601">108×</text>
</g>
<!-- 940&#45;&gt;258 -->
<g id="edge32" class="edge">
<title>940&#45;&gt;258</title>
<path fill="none" stroke="#fa2301" stroke-width="3.86" d="M111.5,-783.75C111.5,-775.64 111.5,-766.56 111.5,-757.71"/>
<polygon fill="#fa2301" stroke="#fa2301" stroke-width="3.86" points="114.93,-757.96 111.5,-748.16 108.07,-757.96 114.93,-757.96"/>
<text text-anchor="middle" x="128" y="-765.5" font-family="Arial" font-size="10.00" fill="#fa2301">96.57%</text>
<text text-anchor="middle" x="128" y="-753.5" font-family="Arial" font-size="10.00" fill="#fa2301">1×</text>
</g>
<!-- 677 -->
<g id="node27" class="node">
<title>677</title>
<g id="a_node27"><a xlink:title="/home/dfki.uni&#45;bremen.de/ndahn/miniforge3/lib/python3.10/inspect.py">
<polygon fill="#0d0f73" stroke="#0d0f73" points="989.75,-2212 891.25,-2212 891.25,-2156 989.75,-2156 989.75,-2212"/>
<text text-anchor="middle" x="940.5" y="-2198.5" font-family="Arial" font-size="10.00" fill="#ffffff">inspect:1671:stack</text>
<text text-anchor="middle" x="940.5" y="-2186.5" font-family="Arial" font-size="10.00" fill="#ffffff">0.51%</text>
<text text-anchor="middle" x="940.5" y="-2174.5" font-family="Arial" font-size="10.00" fill="#ffffff">(0.00%)</text>
<text text-anchor="middle" x="940.5" y="-2162.5" font-family="Arial" font-size="10.00" fill="#ffffff">4×</text>
</a>
</g>
</g>
<!-- 852 -->
<g id="node28" class="node">
<title>852</title>
<g id="a_node28"><a xlink:title="/home/dfki.uni&#45;bremen.de/ndahn/miniforge3/lib/python3.10/inspect.py">
<polygon fill="#0d0f73" stroke="#0d0f73" points="1010.38,-2114 870.62,-2114 870.62,-2058 1010.38,-2058 1010.38,-2114"/>
<text text-anchor="middle" x="940.5" y="-2100.5" font-family="Arial" font-size="10.00" fill="#ffffff">inspect:1643:getouterframes</text>
<text text-anchor="middle" x="940.5" y="-2088.5" font-family="Arial" font-size="10.00" fill="#ffffff">0.51%</text>
<text text-anchor="middle" x="940.5" y="-2076.5" font-family="Arial" font-size="10.00" fill="#ffffff">(0.00%)</text>
<text text-anchor="middle" x="940.5" y="-2064.5" font-family="Arial" font-size="10.00" fill="#ffffff">4×</text>
</a>
</g>
</g>
<!-- 677&#45;&gt;852 -->
<g id="edge22" class="edge">
<title>677&#45;&gt;852</title>
<path fill="none" stroke="#0d0f73" stroke-width="0.5" d="M940.5,-2155.75C940.5,-2144.09 940.5,-2130.42 940.5,-2118.35"/>
<polygon fill="#0d0f73" stroke="#0d0f73" stroke-width="0.5" points="941.73,-2118.58 940.5,-2115.08 939.28,-2118.58 941.73,-2118.58"/>
<text text-anchor="middle" x="954.38" y="-2137.5" font-family="Arial" font-size="10.00" fill="#0d0f73">0.51%</text>
<text text-anchor="middle" x="954.38" y="-2125.5" font-family="Arial" font-size="10.00" fill="#0d0f73">4×</text>
</g>
<!-- 852&#45;&gt;398 -->
<g id="edge24" class="edge">
<title>852&#45;&gt;398</title>
<path fill="none" stroke="#0d0f73" stroke-width="0.5" d="M940.5,-2057.75C940.5,-2046.09 940.5,-2032.42 940.5,-2020.35"/>
<polygon fill="#0d0f73" stroke="#0d0f73" stroke-width="0.5" points="941.73,-2020.58 940.5,-2017.08 939.28,-2020.58 941.73,-2020.58"/>
<text text-anchor="middle" x="954.38" y="-2039.5" font-family="Arial" font-size="10.00" fill="#0d0f73">0.50%</text>
<text text-anchor="middle" x="954.38" y="-2027.5" font-family="Arial" font-size="10.00" fill="#0d0f73">56×</text>
</g>
<!-- 919 -->
<g id="node29" class="node">
<title>919</title>
<g id="a_node29"><a xlink:title="/home/dfki.uni&#45;bremen.de/ndahn/devel/workspaces/my_workspace/test_ws/install/better_launch/lib/python3.10/site&#45;packages/better_launch/wrapper.py">
<polygon fill="#fb1d01" stroke="#fb1d01" points="183.25,-1134 39.75,-1134 39.75,-1078 183.25,-1078 183.25,-1134"/>
<text text-anchor="middle" x="111.5" y="-1120.5" font-family="Arial" font-size="10.00" fill="#ffffff">wrapper:68:decoration_helper</text>
<text text-anchor="middle" x="111.5" y="-1108.5" font-family="Arial" font-size="10.00" fill="#ffffff">97.15%</text>
<text text-anchor="middle" x="111.5" y="-1096.5" font-family="Arial" font-size="10.00" fill="#ffffff">(0.00%)</text>
<text text-anchor="middle" x="111.5" y="-1084.5" font-family="Arial" font-size="10.00" fill="#ffffff">1×</text>
</a>
</g>
</g>
<!-- 919&#45;&gt;418 -->
<g id="edge25" class="edge">
<title>919&#45;&gt;418</title>
<path fill="none" stroke="#fb1d01" stroke-width="3.89" d="M111.5,-1077.75C111.5,-1069.74 111.5,-1060.78 111.5,-1052.04"/>
<polygon fill="#fb1d01" stroke="#fb1d01" stroke-width="3.89" points="114.97,-1052.11 111.5,-1042.21 108.04,-1052.11 114.97,-1052.11"/>
<text text-anchor="middle" x="128" y="-1059.5" font-family="Arial" font-size="10.00" fill="#fb1d01">97.15%</text>
<text text-anchor="middle" x="128" y="-1047.5" font-family="Arial" font-size="10.00" fill="#fb1d01">1×</text>
</g>
<!-- 920&#45;&gt;919 -->
<g id="edge26" class="edge">
<title>920&#45;&gt;919</title>
<path fill="none" stroke="#fb1d01" stroke-width="3.89" d="M111.5,-1175.75C111.5,-1167.74 111.5,-1158.78 111.5,-1150.04"/>
<polygon fill="#fb1d01" stroke="#fb1d01" stroke-width="3.89" points="114.97,-1150.11 111.5,-1140.21 108.04,-1150.11 114.97,-1150.11"/>
<text text-anchor="middle" x="128" y="-1157.5" font-family="Arial" font-size="10.00" fill="#fb1d01">97.15%</text>
<text text-anchor="middle" x="128" y="-1145.5" font-family="Arial" font-size="10.00" fill="#fb1d01">1×</text>
</g>
<!-- 927 -->
<g id="node31" class="node">
<title>927</title>
<g id="a_node31"><a xlink:title="/home/dfki.uni&#45;bremen.de/ndahn/devel/workspaces/my_workspace/test_ws/install/better_launch/lib/python3.10/site&#45;packages/better_launch/wrapper.py">
<polygon fill="#fa2301" stroke="#fa2301" points="193.75,-448 29.25,-448 29.25,-392 193.75,-392 193.75,-448"/>
<text text-anchor="middle" x="111.5" y="-434.5" font-family="Arial" font-size="10.00" fill="#ffffff">wrapper:287:launch_func_wrapper</text>
<text text-anchor="middle" x="111.5" y="-422.5" font-family="Arial" font-size="10.00" fill="#ffffff">96.57%</text>
<text text-anchor="middle" x="111.5" y="-410.5" font-family="Arial" font-size="10.00" fill="#ffffff">(0.00%)</text>
<text text-anchor="middle" x="111.5" y="-398.5" font-family="Arial" font-size="10.00" fill="#ffffff">1×</text>
</a>
</g>
</g>
<!-- 927&#45;&gt;174 -->
<g id="edge29" class="edge">
<title>927&#45;&gt;174</title>
<path fill="none" stroke="#fa2401" stroke-width="3.86" d="M111.5,-391.75C111.5,-383.64 111.5,-374.56 111.5,-365.71"/>
<polygon fill="#fa2401" stroke="#fa2401" stroke-width="3.86" points="114.93,-365.96 111.5,-356.16 108.07,-365.96 114.93,-365.96"/>
<text text-anchor="middle" x="128" y="-373.5" font-family="Arial" font-size="10.00" fill="#fa2401">96.46%</text>
<text text-anchor="middle" x="128" y="-361.5" font-family="Arial" font-size="10.00" fill="#fa2401">1×</text>
</g>
<!-- 928&#45;&gt;927 -->
<g id="edge30" class="edge">
<title>928&#45;&gt;927</title>
<path fill="none" stroke="#fa2301" stroke-width="3.86" d="M111.5,-489.75C111.5,-481.64 111.5,-472.56 111.5,-463.71"/>
<polygon fill="#fa2301" stroke="#fa2301" stroke-width="3.86" points="114.93,-463.96 111.5,-454.16 108.07,-463.96 114.93,-463.96"/>
<text text-anchor="middle" x="128" y="-471.5" font-family="Arial" font-size="10.00" fill="#fa2301">96.57%</text>
<text text-anchor="middle" x="128" y="-459.5" font-family="Arial" font-size="10.00" fill="#fa2301">1×</text>
</g>
</g>
</svg>
