<svg class="rich-terminal" viewBox="0 0 1092 660.0" xmlns="http://www.w3.org/2000/svg">
    <!-- Generated with Rich https://www.textualize.io -->
    <style>

    @font-face {
        font-family: "Fira Code";
        src: local("FiraCode-Regular"),
                url("https://cdnjs.cloudflare.com/ajax/libs/firacode/6.2.0/woff2/FiraCode-Regular.woff2") format("woff2"),
                url("https://cdnjs.cloudflare.com/ajax/libs/firacode/6.2.0/woff/FiraCode-Regular.woff") format("woff");
        font-style: normal;
        font-weight: 400;
    }
    @font-face {
        font-family: "Fira Code";
        src: local("FiraCode-Bold"),
                url("https://cdnjs.cloudflare.com/ajax/libs/firacode/6.2.0/woff2/FiraCode-Bold.woff2") format("woff2"),
                url("https://cdnjs.cloudflare.com/ajax/libs/firacode/6.2.0/woff/FiraCode-Bold.woff") format("woff");
        font-style: bold;
        font-weight: 700;
    }

    .terminal-503313500-matrix {
        font-family: Fira Code, monospace;
        font-size: 20px;
        line-height: 24.4px;
        font-variant-east-asian: full-width;
    }

    .terminal-503313500-title {
        font-size: 18px;
        font-weight: bold;
        font-family: arial;
    }

    .terminal-503313500-r1 { fill: #c5c8c6 }
.terminal-503313500-r2 { fill: #e0e0e0 }
.terminal-503313500-r3 { fill: #94999c }
.terminal-503313500-r4 { fill: #c5c6c7 }
.terminal-503313500-r5 { fill: #ffa500;font-weight: bold;font-style: italic;;text-decoration: underline; }
.terminal-503313500-r6 { fill: #ffa500;font-weight: bold;font-style: italic; }
.terminal-503313500-r7 { fill: #ddeedd;font-weight: bold;font-style: italic; }
.terminal-503313500-r8 { fill: #ff00df }
.terminal-503313500-r9 { fill: #d621ff }
.terminal-503313500-r10 { fill: #1e1e1e }
.terminal-503313500-r11 { fill: #ffa500;text-decoration: underline; }
.terminal-503313500-r12 { fill: #ffa500 }
.terminal-503313500-r13 { fill: #ff8900 }
.terminal-503313500-r14 { fill: #2a6eff }
.terminal-503313500-r15 { fill: #000000 }
.terminal-503313500-r16 { fill: #0aff00 }
.terminal-503313500-r17 { fill: #ff0055 }
.terminal-503313500-r18 { fill: #ffa62b;font-weight: bold }
    </style>

    <defs>
    <clipPath id="terminal-503313500-clip-terminal">
      <rect x="0" y="0" width="1072.6" height="609.0" />
    </clipPath>
    <clipPath id="terminal-503313500-line-0">
    <rect x="0" y="1.5" width="1073.6" height="24.65"/>
            </clipPath>
<clipPath id="terminal-503313500-line-1">
    <rect x="0" y="25.9" width="1073.6" height="24.65"/>
            </clipPath>
<clipPath id="terminal-503313500-line-2">
    <rect x="0" y="50.3" width="1073.6" height="24.65"/>
            </clipPath>
<clipPath id="terminal-503313500-line-3">
    <rect x="0" y="74.7" width="1073.6" height="24.65"/>
            </clipPath>
<clipPath id="terminal-503313500-line-4">
    <rect x="0" y="99.1" width="1073.6" height="24.65"/>
            </clipPath>
<clipPath id="terminal-503313500-line-5">
    <rect x="0" y="123.5" width="1073.6" height="24.65"/>
            </clipPath>
<clipPath id="terminal-503313500-line-6">
    <rect x="0" y="147.9" width="1073.6" height="24.65"/>
            </clipPath>
<clipPath id="terminal-503313500-line-7">
    <rect x="0" y="172.3" width="1073.6" height="24.65"/>
            </clipPath>
<clipPath id="terminal-503313500-line-8">
    <rect x="0" y="196.7" width="1073.6" height="24.65"/>
            </clipPath>
<clipPath id="terminal-503313500-line-9">
    <rect x="0" y="221.1" width="1073.6" height="24.65"/>
            </clipPath>
<clipPath id="terminal-503313500-line-10">
    <rect x="0" y="245.5" width="1073.6" height="24.65"/>
            </clipPath>
<clipPath id="terminal-503313500-line-11">
    <rect x="0" y="269.9" width="1073.6" height="24.65"/>
            </clipPath>
<clipPath id="terminal-503313500-line-12">
    <rect x="0" y="294.3" width="1073.6" height="24.65"/>
            </clipPath>
<clipPath id="terminal-503313500-line-13">
    <rect x="0" y="318.7" width="1073.6" height="24.65"/>
            </clipPath>
<clipPath id="terminal-503313500-line-14">
    <rect x="0" y="343.1" width="1073.6" height="24.65"/>
            </clipPath>
<clipPath id="terminal-503313500-line-15">
    <rect x="0" y="367.5" width="1073.6" height="24.65"/>
            </clipPath>
<clipPath id="terminal-503313500-line-16">
    <rect x="0" y="391.9" width="1073.6" height="24.65"/>
            </clipPath>
<clipPath id="terminal-503313500-line-17">
    <rect x="0" y="416.3" width="1073.6" height="24.65"/>
            </clipPath>
<clipPath id="terminal-503313500-line-18">
    <rect x="0" y="440.7" width="1073.6" height="24.65"/>
            </clipPath>
<clipPath id="terminal-503313500-line-19">
    <rect x="0" y="465.1" width="1073.6" height="24.65"/>
            </clipPath>
<clipPath id="terminal-503313500-line-20">
    <rect x="0" y="489.5" width="1073.6" height="24.65"/>
            </clipPath>
<clipPath id="terminal-503313500-line-21">
    <rect x="0" y="513.9" width="1073.6" height="24.65"/>
            </clipPath>
<clipPath id="terminal-503313500-line-22">
    <rect x="0" y="538.3" width="1073.6" height="24.65"/>
            </clipPath>
<clipPath id="terminal-503313500-line-23">
    <rect x="0" y="562.7" width="1073.6" height="24.65"/>
            </clipPath>
    </defs>

    <rect fill="#292929" stroke="rgba(255,255,255,0.35)" stroke-width="1" x="1" y="1" width="1090" height="658" rx="8"/><text class="terminal-503313500-title" fill="#c5c8c6" text-anchor="middle" x="545" y="27">BetterLaunch</text>
            <g transform="translate(26,22)">
            <circle cx="0" cy="0" r="7" fill="#ff5f57"/>
            <circle cx="22" cy="0" r="7" fill="#febc2e"/>
            <circle cx="44" cy="0" r="7" fill="#28c840"/>
            </g>
        
    <g transform="translate(9, 41)" clip-path="url(#terminal-503313500-clip-terminal)">
    <rect fill="#242f38" x="0" y="1.5" width="12.2" height="24.65" shape-rendering="crispEdges"/><rect fill="#242f38" x="12.2" y="1.5" width="12.2" height="24.65" shape-rendering="crispEdges"/><rect fill="#242f38" x="24.4" y="1.5" width="61" height="24.65" shape-rendering="crispEdges"/><rect fill="#242f38" x="85.4" y="1.5" width="12.2" height="24.65" shape-rendering="crispEdges"/><rect fill="#242f38" x="97.6" y="1.5" width="268.4" height="24.65" shape-rendering="crispEdges"/><rect fill="#242f38" x="366" y="1.5" width="183" height="24.65" shape-rendering="crispEdges"/><rect fill="#242f38" x="549" y="1.5" width="134.2" height="24.65" shape-rendering="crispEdges"/><rect fill="#242f38" x="683.2" y="1.5" width="268.4" height="24.65" shape-rendering="crispEdges"/><rect fill="#2c363f" x="951.6" y="1.5" width="12.2" height="24.65" shape-rendering="crispEdges"/><rect fill="#2c363f" x="963.8" y="1.5" width="97.6" height="24.65" shape-rendering="crispEdges"/><rect fill="#2c363f" x="1061.4" y="1.5" width="12.2" height="24.65" shape-rendering="crispEdges"/><rect fill="#008000" x="0" y="25.9" width="12.2" height="24.65" shape-rendering="crispEdges"/><rect fill="#008000" x="12.2" y="25.9" width="12.2" height="24.65" shape-rendering="crispEdges"/><rect fill="#008000" x="24.4" y="25.9" width="12.2" height="24.65" shape-rendering="crispEdges"/><rect fill="#008000" x="36.6" y="25.9" width="12.2" height="24.65" shape-rendering="crispEdges"/><rect fill="#008000" x="48.8" y="25.9" width="183" height="24.65" shape-rendering="crispEdges"/><rect fill="#008000" x="231.8" y="25.9" width="12.2" height="24.65" shape-rendering="crispEdges"/><rect fill="#1e1e1e" x="244" y="25.9" width="244" height="24.65" shape-rendering="crispEdges"/><rect fill="#1e1e1e" x="488" y="25.9" width="36.6" height="24.65" shape-rendering="crispEdges"/><rect fill="#1e1e1e" x="524.6" y="25.9" width="12.2" height="24.65" shape-rendering="crispEdges"/><rect fill="#1e1e1e" x="536.8" y="25.9" width="512.4" height="24.65" shape-rendering="crispEdges"/><rect fill="#003054" x="1049.2" y="25.9" width="24.4" height="24.65" shape-rendering="crispEdges"/><rect fill="#008000" x="0" y="50.3" width="12.2" height="24.65" shape-rendering="crispEdges"/><rect fill="#008000" x="12.2" y="50.3" width="12.2" height="24.65" shape-rendering="crispEdges"/><rect fill="#008000" x="24.4" y="50.3" width="12.2" height="24.65" shape-rendering="crispEdges"/><rect fill="#008000" x="36.6" y="50.3" width="12.2" height="24.65" shape-rendering="crispEdges"/><rect fill="#008000" x="48.8" y="50.3" width="183" height="24.65" shape-rendering="crispEdges"/><rect fill="#008000" x="231.8" y="50.3" width="12.2" height="24.65" shape-rendering="crispEdges"/><rect fill="#1e1e1e" x="244" y="50.3" width="280.6" height="24.65" shape-rendering="crispEdges"/><rect fill="#1e1e1e" x="524.6" y="50.3" width="12.2" height="24.65" shape-rendering="crispEdges"/><rect fill="#1e1e1e" x="536.8" y="50.3" width="512.4" height="24.65" shape-rendering="crispEdges"/><rect fill="#003054" x="1049.2" y="50.3" width="24.4" height="24.65" shape-rendering="crispEdges"/><rect fill="#2d3740" x="0" y="74.7" width="244" height="24.65" shape-rendering="crispEdges"/><rect fill="#1e1e1e" x="244" y="74.7" width="280.6" height="24.65" shape-rendering="crispEdges"/><rect fill="#1e1e1e" x="524.6" y="74.7" width="12.2" height="24.65" shape-rendering="crispEdges"/><rect fill="#1e1e1e" x="536.8" y="74.7" width="512.4" height="24.65" shape-rendering="crispEdges"/><rect fill="#003054" x="1049.2" y="74.7" width="24.4" height="24.65" shape-rendering="crispEdges"/><rect fill="#2d3740" x="0" y="99.1" width="244" height="24.65" shape-rendering="crispEdges"/><rect fill="#282828" x="244" y="99.1" width="244" height="24.65" shape-rendering="crispEdges"/><rect fill="#282828" x="488" y="99.1" width="36.6" height="24.65" shape-rendering="crispEdges"/><rect fill="#282828" x="524.6" y="99.1" width="12.2" height="24.65" shape-rendering="crispEdges"/><rect fill="#282828" x="536.8" y="99.1" width="512.4" height="24.65" shape-rendering="crispEdges"/><rect fill="#003054" x="1049.2" y="99.1" width="24.4" height="24.65" shape-rendering="crispEdges"/><rect fill="#2d3740" x="0" y="123.5" width="244" height="24.65" shape-rendering="crispEdges"/><rect fill="#282828" x="244" y="123.5" width="280.6" height="24.65" shape-rendering="crispEdges"/><rect fill="#282828" x="524.6" y="123.5" width="12.2" height="24.65" shape-rendering="crispEdges"/><rect fill="#282828" x="536.8" y="123.5" width="512.4" height="24.65" shape-rendering="crispEdges"/><rect fill="#003054" x="1049.2" y="123.5" width="24.4" height="24.65" shape-rendering="crispEdges"/><rect fill="#2d3740" x="0" y="147.9" width="244" height="24.65" shape-rendering="crispEdges"/><rect fill="#282828" x="244" y="147.9" width="280.6" height="24.65" shape-rendering="crispEdges"/><rect fill="#282828" x="524.6" y="147.9" width="12.2" height="24.65" shape-rendering="crispEdges"/><rect fill="#282828" x="536.8" y="147.9" width="512.4" height="24.65" shape-rendering="crispEdges"/><rect fill="#003054" x="1049.2" y="147.9" width="24.4" height="24.65" shape-rendering="crispEdges"/><rect fill="#2d3740" x="0" y="172.3" width="244" height="24.65" shape-rendering="crispEdges"/><rect fill="#282828" x="244" y="172.3" width="280.6" height="24.65" shape-rendering="crispEdges"/><rect fill="#282828" x="524.6" y="172.3" width="12.2" height="24.65" shape-rendering="crispEdges"/><rect fill="#282828" x="536.8" y="172.3" width="512.4" height="24.65" shape-rendering="crispEdges"/><rect fill="#003054" x="1049.2" y="172.3" width="24.4" height="24.65" shape-rendering="crispEdges"/><rect fill="#2d3740" x="0" y="196.7" width="244" height="24.65" shape-rendering="crispEdges"/><rect fill="#282828" x="244" y="196.7" width="244" height="24.65" shape-rendering="crispEdges"/><rect fill="#282828" x="488" y="196.7" width="36.6" height="24.65" shape-rendering="crispEdges"/><rect fill="#282828" x="524.6" y="196.7" width="12.2" height="24.65" shape-rendering="crispEdges"/><rect fill="#282828" x="536.8" y="196.7" width="512.4" height="24.65" shape-rendering="crispEdges"/><rect fill="#000000" x="1049.2" y="196.7" width="24.4" height="24.65" shape-rendering="crispEdges"/><rect fill="#2d3740" x="0" y="221.1" width="244" height="24.65" shape-rendering="crispEdges"/><rect fill="#282828" x="244" y="221.1" width="280.6" height="24.65" shape-rendering="crispEdges"/><rect fill="#282828" x="524.6" y="221.1" width="12.2" height="24.65" shape-rendering="crispEdges"/><rect fill="#282828" x="536.8" y="221.1" width="512.4" height="24.65" shape-rendering="crispEdges"/><rect fill="#000000" x="1049.2" y="221.1" width="24.4" height="24.65" shape-rendering="crispEdges"/><rect fill="#2d3740" x="0" y="245.5" width="244" height="24.65" shape-rendering="crispEdges"/><rect fill="#282828" x="244" y="245.5" width="280.6" height="24.65" shape-rendering="crispEdges"/><rect fill="#282828" x="524.6" y="245.5" width="12.2" height="24.65" shape-rendering="crispEdges"/><rect fill="#282828" x="536.8" y="245.5" width="512.4" height="24.65" shape-rendering="crispEdges"/><rect fill="#000000" x="1049.2" y="245.5" width="24.4" height="24.65" shape-rendering="crispEdges"/><rect fill="#2d3740" x="0" y="269.9" width="244" height="24.65" shape-rendering="crispEdges"/><rect fill="#282828" x="244" y="269.9" width="280.6" height="24.65" shape-rendering="crispEdges"/><rect fill="#282828" x="524.6" y="269.9" width="12.2" height="24.65" shape-rendering="crispEdges"/><rect fill="#282828" x="536.8" y="269.9" width="512.4" height="24.65" shape-rendering="crispEdges"/><rect fill="#000000" x="1049.2" y="269.9" width="24.4" height="24.65" shape-rendering="crispEdges"/><rect fill="#2d3740" x="0" y="294.3" width="244" height="24.65" shape-rendering="crispEdges"/><rect fill="#282828" x="244" y="294.3" width="244" height="24.65" shape-rendering="crispEdges"/><rect fill="#282828" x="488" y="294.3" width="36.6" height="24.65" shape-rendering="crispEdges"/><rect fill="#282828" x="524.6" y="294.3" width="12.2" height="24.65" shape-rendering="crispEdges"/><rect fill="#282828" x="536.8" y="294.3" width="512.4" height="24.65" shape-rendering="crispEdges"/><rect fill="#000000" x="1049.2" y="294.3" width="24.4" height="24.65" shape-rendering="crispEdges"/><rect fill="#2d3740" x="0" y="318.7" width="244" height="24.65" shape-rendering="crispEdges"/><rect fill="#282828" x="244" y="318.7" width="280.6" height="24.65" shape-rendering="crispEdges"/><rect fill="#282828" x="524.6" y="318.7" width="12.2" height="24.65" shape-rendering="crispEdges"/><rect fill="#282828" x="536.8" y="318.7" width="512.4" height="24.65" shape-rendering="crispEdges"/><rect fill="#000000" x="1049.2" y="318.7" width="24.4" height="24.65" shape-rendering="crispEdges"/><rect fill="#2d3740" x="0" y="343.1" width="244" height="24.65" shape-rendering="crispEdges"/><rect fill="#282828" x="244" y="343.1" width="280.6" height="24.65" shape-rendering="crispEdges"/><rect fill="#282828" x="524.6" y="343.1" width="12.2" height="24.65" shape-rendering="crispEdges"/><rect fill="#282828" x="536.8" y="343.1" width="512.4" height="24.65" shape-rendering="crispEdges"/><rect fill="#000000" x="1049.2" y="343.1" width="24.4" height="24.65" shape-rendering="crispEdges"/><rect fill="#2d3740" x="0" y="367.5" width="244" height="24.65" shape-rendering="crispEdges"/><rect fill="#282828" x="244" y="367.5" width="280.6" height="24.65" shape-rendering="crispEdges"/><rect fill="#282828" x="524.6" y="367.5" width="12.2" height="24.65" shape-rendering="crispEdges"/><rect fill="#282828" x="536.8" y="367.5" width="512.4" height="24.65" shape-rendering="crispEdges"/><rect fill="#000000" x="1049.2" y="367.5" width="24.4" height="24.65" shape-rendering="crispEdges"/><rect fill="#2d3740" x="0" y="391.9" width="244" height="24.65" shape-rendering="crispEdges"/><rect fill="#282828" x="244" y="391.9" width="280.6" height="24.65" shape-rendering="crispEdges"/><rect fill="#282828" x="524.6" y="391.9" width="12.2" height="24.65" shape-rendering="crispEdges"/><rect fill="#282828" x="536.8" y="391.9" width="512.4" height="24.65" shape-rendering="crispEdges"/><rect fill="#000000" x="1049.2" y="391.9" width="24.4" height="24.65" shape-rendering="crispEdges"/><rect fill="#2d3740" x="0" y="416.3" width="244" height="24.65" shape-rendering="crispEdges"/><rect fill="#1e1e1e" x="244" y="416.3" width="244" height="24.65" shape-rendering="crispEdges"/><rect fill="#1e1e1e" x="488" y="416.3" width="36.6" height="24.65" shape-rendering="crispEdges"/><rect fill="#1e1e1e" x="524.6" y="416.3" width="12.2" height="24.65" shape-rendering="crispEdges"/><rect fill="#1e1e1e" x="536.8" y="416.3" width="512.4" height="24.65" shape-rendering="crispEdges"/><rect fill="#000000" x="1049.2" y="416.3" width="24.4" height="24.65" shape-rendering="crispEdges"/><rect fill="#2d3740" x="0" y="440.7" width="244" height="24.65" shape-rendering="crispEdges"/><rect fill="#1e1e1e" x="244" y="440.7" width="244" height="24.65" shape-rendering="crispEdges"/><rect fill="#1e1e1e" x="488" y="440.7" width="36.6" height="24.65" shape-rendering="crispEdges"/><rect fill="#1e1e1e" x="524.6" y="440.7" width="12.2" height="24.65" shape-rendering="crispEdges"/><rect fill="#1e1e1e" x="536.8" y="440.7" width="512.4" height="24.65" shape-rendering="crispEdges"/><rect fill="#000000" x="1049.2" y="440.7" width="24.4" height="24.65" shape-rendering="crispEdges"/><rect fill="#2d3740" x="0" y="465.1" width="244" height="24.65" shape-rendering="crispEdges"/><rect fill="#1e1e1e" x="244" y="465.1" width="244" height="24.65" shape-rendering="crispEdges"/><rect fill="#1e1e1e" x="488" y="465.1" width="36.6" height="24.65" shape-rendering="crispEdges"/><rect fill="#1e1e1e" x="524.6" y="465.1" width="12.2" height="24.65" shape-rendering="crispEdges"/><rect fill="#1e1e1e" x="536.8" y="465.1" width="512.4" height="24.65" shape-rendering="crispEdges"/><rect fill="#000000" x="1049.2" y="465.1" width="24.4" height="24.65" shape-rendering="crispEdges"/><rect fill="#2d3740" x="0" y="489.5" width="244" height="24.65" shape-rendering="crispEdges"/><rect fill="#1e1e1e" x="244" y="489.5" width="244" height="24.65" shape-rendering="crispEdges"/><rect fill="#1e1e1e" x="488" y="489.5" width="36.6" height="24.65" shape-rendering="crispEdges"/><rect fill="#1e1e1e" x="524.6" y="489.5" width="12.2" height="24.65" shape-rendering="crispEdges"/><rect fill="#1e1e1e" x="536.8" y="489.5" width="512.4" height="24.65" shape-rendering="crispEdges"/><rect fill="#000000" x="1049.2" y="489.5" width="24.4" height="24.65" shape-rendering="crispEdges"/><rect fill="#2d3740" x="0" y="513.9" width="244" height="24.65" shape-rendering="crispEdges"/><rect fill="#1e1e1e" x="244" y="513.9" width="280.6" height="24.65" shape-rendering="crispEdges"/><rect fill="#1e1e1e" x="524.6" y="513.9" width="12.2" height="24.65" shape-rendering="crispEdges"/><rect fill="#1e1e1e" x="536.8" y="513.9" width="512.4" height="24.65" shape-rendering="crispEdges"/><rect fill="#000000" x="1049.2" y="513.9" width="24.4" height="24.65" shape-rendering="crispEdges"/><rect fill="#2d3740" x="0" y="538.3" width="244" height="24.65" shape-rendering="crispEdges"/><rect fill="#282828" x="244" y="538.3" width="244" height="24.65" shape-rendering="crispEdges"/><rect fill="#282828" x="488" y="538.3" width="36.6" height="24.65" shape-rendering="crispEdges"/><rect fill="#282828" x="524.6" y="538.3" width="12.2" height="24.65" shape-rendering="crispEdges"/><rect fill="#282828" x="536.8" y="538.3" width="512.4" height="24.65" shape-rendering="crispEdges"/><rect fill="#000000" x="1049.2" y="538.3" width="24.4" height="24.65" shape-rendering="crispEdges"/><rect fill="#2d3740" x="0" y="562.7" width="244" height="24.65" shape-rendering="crispEdges"/><rect fill="#282828" x="244" y="562.7" width="280.6" height="24.65" shape-rendering="crispEdges"/><rect fill="#282828" x="524.6" y="562.7" width="12.2" height="24.65" shape-rendering="crispEdges"/><rect fill="#282828" x="536.8" y="562.7" width="512.4" height="24.65" shape-rendering="crispEdges"/><rect fill="#000000" x="1049.2" y="562.7" width="24.4" height="24.65" shape-rendering="crispEdges"/><rect fill="#242f38" x="0" y="587.1" width="48.8" height="24.65" shape-rendering="crispEdges"/><rect fill="#242f38" x="48.8" y="587.1" width="61" height="24.65" shape-rendering="crispEdges"/><rect fill="#242f38" x="109.8" y="587.1" width="85.4" height="24.65" shape-rendering="crispEdges"/><rect fill="#242f38" x="195.2" y="587.1" width="61" height="24.65" shape-rendering="crispEdges"/><rect fill="#242f38" x="256.2" y="587.1" width="48.8" height="24.65" shape-rendering="crispEdges"/><rect fill="#242f38" x="305" y="587.1" width="97.6" height="24.65" shape-rendering="crispEdges"/><rect fill="#242f38" x="402.6" y="587.1" width="48.8" height="24.65" shape-rendering="crispEdges"/><rect fill="#242f38" x="451.4" y="587.1" width="73.2" height="24.65" shape-rendering="crispEdges"/><rect fill="#242f38" x="524.6" y="587.1" width="48.8" height="24.65" shape-rendering="crispEdges"/><rect fill="#242f38" x="573.4" y="587.1" width="73.2" height="24.65" shape-rendering="crispEdges"/><rect fill="#242f38" x="646.6" y="587.1" width="427" height="24.65" shape-rendering="crispEdges"/>
    <g class="terminal-503313500-matrix">
    <text class="terminal-503313500-r2" x="12.2" y="20" textLength="12.2" clip-path="url(#terminal-503313500-line-0)">⭘</text><text class="terminal-503313500-r2" x="366" y="20" textLength="183" clip-path="url(#terminal-503313500-line-0)">BetterLaunch&#160;—&#160;</text><text class="terminal-503313500-r3" x="549" y="20" textLength="134.2" clip-path="url(#terminal-503313500-line-0)">example1.py</text><text class="terminal-503313500-r4" x="963.8" y="20" textLength="97.6" clip-path="url(#terminal-503313500-line-0)">19:59:38</text><text class="terminal-503313500-r1" x="1073.6" y="20" textLength="12.2" clip-path="url(#terminal-503313500-line-0)">
</text><text class="terminal-503313500-r5" x="12.2" y="44.4" textLength="12.2" clip-path="url(#terminal-503313500-line-1)">1</text><text class="terminal-503313500-r7" x="48.8" y="44.4" textLength="183" clip-path="url(#terminal-503313500-line-1)">lifecycle_talke</text><text class="terminal-503313500-r8" x="244" y="44.4" textLength="244" clip-path="url(#terminal-503313500-line-1)">&#160;&#160;&#160;&#160;&#160;&#160;&#160;&#160;&#160;&#160;&#160;example1:</text><text class="terminal-503313500-r9" x="488" y="44.4" textLength="24.4" clip-path="url(#terminal-503313500-line-1)">&#160;🔥</text><text class="terminal-503313500-r2" x="536.8" y="44.4" textLength="512.4" clip-path="url(#terminal-503313500-line-1)">Log&#160;files&#160;at&#160;&#160;&#160;&#160;&#160;&#160;&#160;&#160;&#160;&#160;&#160;&#160;&#160;&#160;&#160;&#160;&#160;&#160;&#160;&#160;&#160;&#160;&#160;&#160;&#160;&#160;&#160;&#160;&#160;&#160;</text><text class="terminal-503313500-r1" x="1073.6" y="44.4" textLength="12.2" clip-path="url(#terminal-503313500-line-1)">
</text><text class="terminal-503313500-r11" x="12.2" y="68.8" textLength="12.2" clip-path="url(#terminal-503313500-line-2)">2</text><text class="terminal-503313500-r2" x="48.8" y="68.8" textLength="183" clip-path="url(#terminal-503313500-line-2)">lifecycle_liste</text><text class="terminal-503313500-r2" x="536.8" y="68.8" textLength="512.4" clip-path="url(#terminal-503313500-line-2)">/home/dfki.uni-bremen.de/ndahn/.ros/log/20</text><text class="terminal-503313500-r1" x="1073.6" y="68.8" textLength="12.2" clip-path="url(#terminal-503313500-line-2)">
</text><text class="terminal-503313500-r2" x="536.8" y="93.2" textLength="512.4" clip-path="url(#terminal-503313500-line-3)">7-NDAHN-P15S-U-1747233&#160;&#160;&#160;&#160;&#160;&#160;&#160;&#160;&#160;&#160;&#160;&#160;&#160;&#160;&#160;&#160;&#160;&#160;&#160;&#160;</text><text class="terminal-503313500-r1" x="1073.6" y="93.2" textLength="12.2" clip-path="url(#terminal-503313500-line-3)">
</text><text class="terminal-503313500-r13" x="244" y="117.6" textLength="244" clip-path="url(#terminal-503313500-line-4)">/lifecycle_A/lifecyc</text><text class="terminal-503313500-r14" x="488" y="117.6" textLength="36.6" clip-path="url(#terminal-503313500-line-4)">&#160;✓&#160;</text><text class="terminal-503313500-r2" x="536.8" y="117.6" textLength="512.4" clip-path="url(#terminal-503313500-line-4)">Starting&#160;process&#160;&#x27;/opt/ros/humble/lib/life</text><text class="terminal-503313500-r1" x="1073.6" y="117.6" textLength="12.2" clip-path="url(#terminal-503313500-line-4)">
</text><text class="terminal-503313500-r2" x="536.8" y="142" textLength="512.4" clip-path="url(#terminal-503313500-line-5)">--log-level&#160;INFO&#160;--ros-args&#160;-r&#160;__ns:=/life</text><text class="terminal-503313500-r1" x="1073.6" y="142" textLength="12.2" clip-path="url(#terminal-503313500-line-5)">
</text><text class="terminal-503313500-r2" x="536.8" y="166.4" textLength="512.4" clip-path="url(#terminal-503313500-line-6)">__node:=lifecycle_talker&#x27;&#160;&#160;&#160;&#160;&#160;&#160;&#160;&#160;&#160;&#160;&#160;&#160;&#160;&#160;&#160;&#160;&#160;</text><text class="terminal-503313500-r1" x="1073.6" y="166.4" textLength="12.2" clip-path="url(#terminal-503313500-line-6)">
</text><text class="terminal-503313500-r2" x="536.8" y="190.8" textLength="512.4" clip-path="url(#terminal-503313500-line-7)">-&gt;&#160;env&#160;={}&#160;&#160;&#160;&#160;&#160;&#160;&#160;&#160;&#160;&#160;&#160;&#160;&#160;&#160;&#160;&#160;&#160;&#160;&#160;&#160;&#160;&#160;&#160;&#160;&#160;&#160;&#160;&#160;&#160;&#160;&#160;&#160;</text><text class="terminal-503313500-r15" x="1049.2" y="190.8" textLength="24.4" clip-path="url(#terminal-503313500-line-7)">▁▁</text><text class="terminal-503313500-r1" x="1073.6" y="190.8" textLength="12.2" clip-path="url(#terminal-503313500-line-7)">
</text><text class="terminal-503313500-r8" x="244" y="215.2" textLength="244" clip-path="url(#terminal-503313500-line-8)">&#160;&#160;&#160;&#160;&#160;&#160;&#160;&#160;&#160;&#160;&#160;example1:</text><text class="terminal-503313500-r14" x="488" y="215.2" textLength="36.6" clip-path="url(#terminal-503313500-line-8)">&#160;✓&#160;</text><text class="terminal-503313500-r2" x="536.8" y="215.2" textLength="512.4" clip-path="url(#terminal-503313500-line-8)">Including&#160;launch&#160;file:&#160;&#160;&#160;&#160;&#160;&#160;&#160;&#160;&#160;&#160;&#160;&#160;&#160;&#160;&#160;&#160;&#160;&#160;&#160;&#160;</text><text class="terminal-503313500-r1" x="1073.6" y="215.2" textLength="12.2" clip-path="url(#terminal-503313500-line-8)">
</text><text class="terminal-503313500-r2" x="536.8" y="239.6" textLength="512.4" clip-path="url(#terminal-503313500-line-9)">/home/dfki.uni-bremen.de/ndahn/devel/works</text><text class="terminal-503313500-r1" x="1073.6" y="239.6" textLength="12.2" clip-path="url(#terminal-503313500-line-9)">
</text><text class="terminal-503313500-r2" x="536.8" y="264" textLength="512.4" clip-path="url(#terminal-503313500-line-10)">time/better_launch/better_launch/example2.</text><text class="terminal-503313500-r1" x="1073.6" y="264" textLength="12.2" clip-path="url(#terminal-503313500-line-10)">
</text><text class="terminal-503313500-r2" x="536.8" y="288.4" textLength="512.4" clip-path="url(#terminal-503313500-line-11)">None})&#160;&#160;&#160;&#160;&#160;&#160;&#160;&#160;&#160;&#160;&#160;&#160;&#160;&#160;&#160;&#160;&#160;&#160;&#160;&#160;&#160;&#160;&#160;&#160;&#160;&#160;&#160;&#160;&#160;&#160;&#160;&#160;&#160;&#160;&#160;&#160;</text><text class="terminal-503313500-r1" x="1073.6" y="288.4" textLength="12.2" clip-path="url(#terminal-503313500-line-11)">
</text><text class="terminal-503313500-r16" x="244" y="312.8" textLength="244" clip-path="url(#terminal-503313500-line-12)">/lifecycle_A/lifecyc</text><text class="terminal-503313500-r14" x="488" y="312.8" textLength="36.6" clip-path="url(#terminal-503313500-line-12)">&#160;✓&#160;</text><text class="terminal-503313500-r2" x="536.8" y="312.8" textLength="512.4" clip-path="url(#terminal-503313500-line-12)">Starting&#160;process&#160;&#160;&#160;&#160;&#160;&#160;&#160;&#160;&#160;&#160;&#160;&#160;&#160;&#160;&#160;&#160;&#160;&#160;&#160;&#160;&#160;&#160;&#160;&#160;&#160;&#160;</text><text class="terminal-503313500-r1" x="1073.6" y="312.8" textLength="12.2" clip-path="url(#terminal-503313500-line-12)">
</text><text class="terminal-503313500-r2" x="536.8" y="337.2" textLength="512.4" clip-path="url(#terminal-503313500-line-13)">&#x27;/opt/ros/humble/lib/lifecycle/lifecycle_l</text><text class="terminal-503313500-r1" x="1073.6" y="337.2" textLength="12.2" clip-path="url(#terminal-503313500-line-13)">
</text><text class="terminal-503313500-r2" x="536.8" y="361.6" textLength="512.4" clip-path="url(#terminal-503313500-line-14)">INFO&#160;--ros-args&#160;-r&#160;__ns:=/lifecycle_A/life</text><text class="terminal-503313500-r1" x="1073.6" y="361.6" textLength="12.2" clip-path="url(#terminal-503313500-line-14)">
</text><text class="terminal-503313500-r2" x="536.8" y="386" textLength="512.4" clip-path="url(#terminal-503313500-line-15)">__node:=lifecycle_listener&#x27;&#160;&#160;&#160;&#160;&#160;&#160;&#160;&#160;&#160;&#160;&#160;&#160;&#160;&#160;&#160;</text><text class="terminal-503313500-r1" x="1073.6" y="386" textLength="12.2" clip-path="url(#terminal-503313500-line-15)">
</text><text class="terminal-503313500-r2" x="536.8" y="410.4" textLength="512.4" clip-path="url(#terminal-503313500-line-16)">-&gt;&#160;env&#160;={}&#160;&#160;&#160;&#160;&#160;&#160;&#160;&#160;&#160;&#160;&#160;&#160;&#160;&#160;&#160;&#160;&#160;&#160;&#160;&#160;&#160;&#160;&#160;&#160;&#160;&#160;&#160;&#160;&#160;&#160;&#160;&#160;</text><text class="terminal-503313500-r1" x="1073.6" y="410.4" textLength="12.2" clip-path="url(#terminal-503313500-line-16)">
</text><text class="terminal-503313500-r8" x="244" y="434.8" textLength="244" clip-path="url(#terminal-503313500-line-17)">&#160;&#160;&#160;&#160;&#160;&#160;&#160;&#160;&#160;&#160;&#160;example1:</text><text class="terminal-503313500-r14" x="488" y="434.8" textLength="36.6" clip-path="url(#terminal-503313500-line-17)">&#160;✓&#160;</text><text class="terminal-503313500-r2" x="536.8" y="434.8" textLength="512.4" clip-path="url(#terminal-503313500-line-17)">No&#160;ROS2&#160;actions&#160;pending&#160;&#160;&#160;&#160;&#160;&#160;&#160;&#160;&#160;&#160;&#160;&#160;&#160;&#160;&#160;&#160;&#160;&#160;&#160;</text><text class="terminal-503313500-r1" x="1073.6" y="434.8" textLength="12.2" clip-path="url(#terminal-503313500-line-17)">
</text><text class="terminal-503313500-r17" x="244" y="459.2" textLength="244" clip-path="url(#terminal-503313500-line-18)">lifecycle_talker-0-s</text><text class="terminal-503313500-r14" x="488" y="459.2" textLength="36.6" clip-path="url(#terminal-503313500-line-18)">&#160;✓&#160;</text><text class="terminal-503313500-r2" x="536.8" y="459.2" textLength="512.4" clip-path="url(#terminal-503313500-line-18)">on_configure()&#160;is&#160;called.&#160;&#160;&#160;&#160;&#160;&#160;&#160;&#160;&#160;&#160;&#160;&#160;&#160;&#160;&#160;&#160;&#160;</text><text class="terminal-503313500-r1" x="1073.6" y="459.2" textLength="12.2" clip-path="url(#terminal-503313500-line-18)">
</text><text class="terminal-503313500-r17" x="244" y="483.6" textLength="244" clip-path="url(#terminal-503313500-line-19)">lifecycle_talker-0-s</text><text class="terminal-503313500-r14" x="488" y="483.6" textLength="36.6" clip-path="url(#terminal-503313500-line-19)">&#160;✓&#160;</text><text class="terminal-503313500-r2" x="536.8" y="483.6" textLength="512.4" clip-path="url(#terminal-503313500-line-19)">on_activate()&#160;is&#160;called.&#160;&#160;&#160;&#160;&#160;&#160;&#160;&#160;&#160;&#160;&#160;&#160;&#160;&#160;&#160;&#160;&#160;&#160;</text><text class="terminal-503313500-r1" x="1073.6" y="483.6" textLength="12.2" clip-path="url(#terminal-503313500-line-19)">
</text><text class="terminal-503313500-r17" x="244" y="508" textLength="244" clip-path="url(#terminal-503313500-line-20)">lifecycle_talker-0-s</text><text class="terminal-503313500-r14" x="488" y="508" textLength="36.6" clip-path="url(#terminal-503313500-line-20)">&#160;✓&#160;</text><text class="terminal-503313500-r2" x="536.8" y="508" textLength="512.4" clip-path="url(#terminal-503313500-line-20)">Lifecycle&#160;publisher&#160;is&#160;active.&#160;Publishing:</text><text class="terminal-503313500-r1" x="1073.6" y="508" textLength="12.2" clip-path="url(#terminal-503313500-line-20)">
</text><text class="terminal-503313500-r2" x="536.8" y="532.4" textLength="512.4" clip-path="url(#terminal-503313500-line-21)">#1]&#160;&#160;&#160;&#160;&#160;&#160;&#160;&#160;&#160;&#160;&#160;&#160;&#160;&#160;&#160;&#160;&#160;&#160;&#160;&#160;&#160;&#160;&#160;&#160;&#160;&#160;&#160;&#160;&#160;&#160;&#160;&#160;&#160;&#160;&#160;&#160;&#160;&#160;&#160;</text><text class="terminal-503313500-r1" x="1073.6" y="532.4" textLength="12.2" clip-path="url(#terminal-503313500-line-21)">
</text><text class="terminal-503313500-r17" x="244" y="556.8" textLength="244" clip-path="url(#terminal-503313500-line-22)">lifecycle_talker-0-s</text><text class="terminal-503313500-r14" x="488" y="556.8" textLength="36.6" clip-path="url(#terminal-503313500-line-22)">&#160;✓&#160;</text><text class="terminal-503313500-r2" x="536.8" y="556.8" textLength="512.4" clip-path="url(#terminal-503313500-line-22)">Lifecycle&#160;publisher&#160;is&#160;active.&#160;Publishing:</text><text class="terminal-503313500-r1" x="1073.6" y="556.8" textLength="12.2" clip-path="url(#terminal-503313500-line-22)">
</text><text class="terminal-503313500-r2" x="536.8" y="581.2" textLength="512.4" clip-path="url(#terminal-503313500-line-23)">#2]&#160;&#160;&#160;&#160;&#160;&#160;&#160;&#160;&#160;&#160;&#160;&#160;&#160;&#160;&#160;&#160;&#160;&#160;&#160;&#160;&#160;&#160;&#160;&#160;&#160;&#160;&#160;&#160;&#160;&#160;&#160;&#160;&#160;&#160;&#160;&#160;&#160;&#160;&#160;</text><text class="terminal-503313500-r1" x="1073.6" y="581.2" textLength="12.2" clip-path="url(#terminal-503313500-line-23)">
</text><text class="terminal-503313500-r18" x="0" y="605.6" textLength="48.8" clip-path="url(#terminal-503313500-line-24)">&#160;^q&#160;</text><text class="terminal-503313500-r2" x="48.8" y="605.6" textLength="61" clip-path="url(#terminal-503313500-line-24)">Quit&#160;</text><text class="terminal-503313500-r18" x="109.8" y="605.6" textLength="85.4" clip-path="url(#terminal-503313500-line-24)">&#160;space&#160;</text><text class="terminal-503313500-r2" x="195.2" y="605.6" textLength="61" clip-path="url(#terminal-503313500-line-24)">Mute&#160;</text><text class="terminal-503313500-r18" x="256.2" y="605.6" textLength="48.8" clip-path="url(#terminal-503313500-line-24)">&#160;f1&#160;</text><text class="terminal-503313500-r2" x="305" y="605.6" textLength="97.6" clip-path="url(#terminal-503313500-line-24)">Sidebar&#160;</text><text class="terminal-503313500-r18" x="402.6" y="605.6" textLength="48.8" clip-path="url(#terminal-503313500-line-24)">&#160;f2&#160;</text><text class="terminal-503313500-r2" x="451.4" y="605.6" textLength="73.2" clip-path="url(#terminal-503313500-line-24)">Names&#160;</text><text class="terminal-503313500-r18" x="524.6" y="605.6" textLength="48.8" clip-path="url(#terminal-503313500-line-24)">&#160;f3&#160;</text><text class="terminal-503313500-r2" x="573.4" y="605.6" textLength="73.2" clip-path="url(#terminal-503313500-line-24)">Icons&#160;</text>
    </g>
    </g>
</svg>
