<svg class="rich-terminal" viewBox="0 0 1104 733.1999999999999" xmlns="http://www.w3.org/2000/svg">
    <!-- Generated with Rich https://www.textualize.io -->
    <style>

    @font-face {
        font-family: "Fira Code";
        src: local("FiraCode-Regular"),
                url("https://cdnjs.cloudflare.com/ajax/libs/firacode/6.2.0/woff2/FiraCode-Regular.woff2") format("woff2"),
                url("https://cdnjs.cloudflare.com/ajax/libs/firacode/6.2.0/woff/FiraCode-Regular.woff") format("woff");
        font-style: normal;
        font-weight: 400;
    }
    @font-face {
        font-family: "Fira Code";
        src: local("FiraCode-Bold"),
                url("https://cdnjs.cloudflare.com/ajax/libs/firacode/6.2.0/woff2/FiraCode-Bold.woff2") format("woff2"),
                url("https://cdnjs.cloudflare.com/ajax/libs/firacode/6.2.0/woff/FiraCode-Bold.woff") format("woff");
        font-style: bold;
        font-weight: 700;
    }

    .terminal-2474102893-matrix {
        font-family: Fira Code, monospace;
        font-size: 20px;
        line-height: 24.4px;
        font-variant-east-asian: full-width;
    }

    .terminal-2474102893-title {
        font-size: 18px;
        font-weight: bold;
        font-family: arial;
    }

    .terminal-2474102893-r1 { fill: #c5c8c6 }
.terminal-2474102893-r2 { fill: #e0e0e0 }
.terminal-2474102893-r3 { fill: #94999c }
.terminal-2474102893-r4 { fill: #c5c6c7 }
.terminal-2474102893-r5 { fill: #ffa500;text-decoration: underline; }
.terminal-2474102893-r6 { fill: #ffa500 }
.terminal-2474102893-r7 { fill: #004aff }
.terminal-2474102893-r8 { fill: #d621ff }
.terminal-2474102893-r9 { fill: #1e1e1e }
.terminal-2474102893-r10 { fill: #94ff00 }
.terminal-2474102893-r11 { fill: #2a6eff }
.terminal-2474102893-r12 { fill: #ff00df }
.terminal-2474102893-r13 { fill: #000000 }
.terminal-2474102893-r14 { fill: #3f00ff }
.terminal-2474102893-r15 { fill: #0aff00 }
.terminal-2474102893-r16 { fill: #ffa62b;font-weight: bold }
    </style>

    <defs>
    <clipPath id="terminal-2474102893-clip-terminal">
      <rect x="0" y="0" width="1084.8" height="682.1999999999999" />
    </clipPath>
    <clipPath id="terminal-2474102893-line-0">
    <rect x="0" y="1.5" width="1085.8" height="24.65"/>
            </clipPath>
<clipPath id="terminal-2474102893-line-1">
    <rect x="0" y="25.9" width="1085.8" height="24.65"/>
            </clipPath>
<clipPath id="terminal-2474102893-line-2">
    <rect x="0" y="50.3" width="1085.8" height="24.65"/>
            </clipPath>
<clipPath id="terminal-2474102893-line-3">
    <rect x="0" y="74.7" width="1085.8" height="24.65"/>
            </clipPath>
<clipPath id="terminal-2474102893-line-4">
    <rect x="0" y="99.1" width="1085.8" height="24.65"/>
            </clipPath>
<clipPath id="terminal-2474102893-line-5">
    <rect x="0" y="123.5" width="1085.8" height="24.65"/>
            </clipPath>
<clipPath id="terminal-2474102893-line-6">
    <rect x="0" y="147.9" width="1085.8" height="24.65"/>
            </clipPath>
<clipPath id="terminal-2474102893-line-7">
    <rect x="0" y="172.3" width="1085.8" height="24.65"/>
            </clipPath>
<clipPath id="terminal-2474102893-line-8">
    <rect x="0" y="196.7" width="1085.8" height="24.65"/>
            </clipPath>
<clipPath id="terminal-2474102893-line-9">
    <rect x="0" y="221.1" width="1085.8" height="24.65"/>
            </clipPath>
<clipPath id="terminal-2474102893-line-10">
    <rect x="0" y="245.5" width="1085.8" height="24.65"/>
            </clipPath>
<clipPath id="terminal-2474102893-line-11">
    <rect x="0" y="269.9" width="1085.8" height="24.65"/>
            </clipPath>
<clipPath id="terminal-2474102893-line-12">
    <rect x="0" y="294.3" width="1085.8" height="24.65"/>
            </clipPath>
<clipPath id="terminal-2474102893-line-13">
    <rect x="0" y="318.7" width="1085.8" height="24.65"/>
            </clipPath>
<clipPath id="terminal-2474102893-line-14">
    <rect x="0" y="343.1" width="1085.8" height="24.65"/>
            </clipPath>
<clipPath id="terminal-2474102893-line-15">
    <rect x="0" y="367.5" width="1085.8" height="24.65"/>
            </clipPath>
<clipPath id="terminal-2474102893-line-16">
    <rect x="0" y="391.9" width="1085.8" height="24.65"/>
            </clipPath>
<clipPath id="terminal-2474102893-line-17">
    <rect x="0" y="416.3" width="1085.8" height="24.65"/>
            </clipPath>
<clipPath id="terminal-2474102893-line-18">
    <rect x="0" y="440.7" width="1085.8" height="24.65"/>
            </clipPath>
<clipPath id="terminal-2474102893-line-19">
    <rect x="0" y="465.1" width="1085.8" height="24.65"/>
            </clipPath>
<clipPath id="terminal-2474102893-line-20">
    <rect x="0" y="489.5" width="1085.8" height="24.65"/>
            </clipPath>
<clipPath id="terminal-2474102893-line-21">
    <rect x="0" y="513.9" width="1085.8" height="24.65"/>
            </clipPath>
<clipPath id="terminal-2474102893-line-22">
    <rect x="0" y="538.3" width="1085.8" height="24.65"/>
            </clipPath>
<clipPath id="terminal-2474102893-line-23">
    <rect x="0" y="562.7" width="1085.8" height="24.65"/>
            </clipPath>
<clipPath id="terminal-2474102893-line-24">
    <rect x="0" y="587.1" width="1085.8" height="24.65"/>
            </clipPath>
<clipPath id="terminal-2474102893-line-25">
    <rect x="0" y="611.5" width="1085.8" height="24.65"/>
            </clipPath>
<clipPath id="terminal-2474102893-line-26">
    <rect x="0" y="635.9" width="1085.8" height="24.65"/>
            </clipPath>
    </defs>

    <rect fill="#292929" stroke="rgba(255,255,255,0.35)" stroke-width="1" x="1" y="1" width="1102" height="731.2" rx="8"/><text class="terminal-2474102893-title" fill="#c5c8c6" text-anchor="middle" x="551" y="27">BetterLaunch</text>
            <g transform="translate(26,22)">
            <circle cx="0" cy="0" r="7" fill="#ff5f57"/>
            <circle cx="22" cy="0" r="7" fill="#febc2e"/>
            <circle cx="44" cy="0" r="7" fill="#28c840"/>
            </g>
        
    <g transform="translate(9, 41)" clip-path="url(#terminal-2474102893-clip-terminal)">
    <rect fill="#242f38" x="0" y="1.5" width="12.2" height="24.65" shape-rendering="crispEdges"/><rect fill="#242f38" x="12.2" y="1.5" width="12.2" height="24.65" shape-rendering="crispEdges"/><rect fill="#242f38" x="24.4" y="1.5" width="61" height="24.65" shape-rendering="crispEdges"/><rect fill="#242f38" x="85.4" y="1.5" width="12.2" height="24.65" shape-rendering="crispEdges"/><rect fill="#242f38" x="97.6" y="1.5" width="207.4" height="24.65" shape-rendering="crispEdges"/><rect fill="#242f38" x="305" y="1.5" width="183" height="24.65" shape-rendering="crispEdges"/><rect fill="#242f38" x="488" y="1.5" width="256.2" height="24.65" shape-rendering="crispEdges"/><rect fill="#242f38" x="744.2" y="1.5" width="219.6" height="24.65" shape-rendering="crispEdges"/><rect fill="#2c363f" x="963.8" y="1.5" width="12.2" height="24.65" shape-rendering="crispEdges"/><rect fill="#2c363f" x="976" y="1.5" width="97.6" height="24.65" shape-rendering="crispEdges"/><rect fill="#2c363f" x="1073.6" y="1.5" width="12.2" height="24.65" shape-rendering="crispEdges"/><rect fill="#008000" x="0" y="25.9" width="12.2" height="24.65" shape-rendering="crispEdges"/><rect fill="#008000" x="12.2" y="25.9" width="12.2" height="24.65" shape-rendering="crispEdges"/><rect fill="#008000" x="24.4" y="25.9" width="12.2" height="24.65" shape-rendering="crispEdges"/><rect fill="#008000" x="36.6" y="25.9" width="12.2" height="24.65" shape-rendering="crispEdges"/><rect fill="#008000" x="48.8" y="25.9" width="183" height="24.65" shape-rendering="crispEdges"/><rect fill="#008000" x="231.8" y="25.9" width="12.2" height="24.65" shape-rendering="crispEdges"/><rect fill="#1e1e1e" x="244" y="25.9" width="195.2" height="24.65" shape-rendering="crispEdges"/><rect fill="#1e1e1e" x="439.2" y="25.9" width="36.6" height="24.65" shape-rendering="crispEdges"/><rect fill="#1e1e1e" x="475.8" y="25.9" width="561.2" height="24.65" shape-rendering="crispEdges"/><rect fill="#1e1e1e" x="1037" y="25.9" width="24.4" height="24.65" shape-rendering="crispEdges"/><rect fill="#003054" x="1061.4" y="25.9" width="24.4" height="24.65" shape-rendering="crispEdges"/><rect fill="#008000" x="0" y="50.3" width="12.2" height="24.65" shape-rendering="crispEdges"/><rect fill="#008000" x="12.2" y="50.3" width="12.2" height="24.65" shape-rendering="crispEdges"/><rect fill="#008000" x="24.4" y="50.3" width="12.2" height="24.65" shape-rendering="crispEdges"/><rect fill="#008000" x="36.6" y="50.3" width="12.2" height="24.65" shape-rendering="crispEdges"/><rect fill="#008000" x="48.8" y="50.3" width="183" height="24.65" shape-rendering="crispEdges"/><rect fill="#008000" x="231.8" y="50.3" width="12.2" height="24.65" shape-rendering="crispEdges"/><rect fill="#1e1e1e" x="244" y="50.3" width="231.8" height="24.65" shape-rendering="crispEdges"/><rect fill="#1e1e1e" x="475.8" y="50.3" width="561.2" height="24.65" shape-rendering="crispEdges"/><rect fill="#1e1e1e" x="1037" y="50.3" width="24.4" height="24.65" shape-rendering="crispEdges"/><rect fill="#003054" x="1061.4" y="50.3" width="24.4" height="24.65" shape-rendering="crispEdges"/><rect fill="#2d3740" x="0" y="74.7" width="244" height="24.65" shape-rendering="crispEdges"/><rect fill="#1e1e1e" x="244" y="74.7" width="231.8" height="24.65" shape-rendering="crispEdges"/><rect fill="#1e1e1e" x="475.8" y="74.7" width="561.2" height="24.65" shape-rendering="crispEdges"/><rect fill="#1e1e1e" x="1037" y="74.7" width="24.4" height="24.65" shape-rendering="crispEdges"/><rect fill="#003054" x="1061.4" y="74.7" width="24.4" height="24.65" shape-rendering="crispEdges"/><rect fill="#2d3740" x="0" y="99.1" width="244" height="24.65" shape-rendering="crispEdges"/><rect fill="#1e1e1e" x="244" y="99.1" width="195.2" height="24.65" shape-rendering="crispEdges"/><rect fill="#1e1e1e" x="439.2" y="99.1" width="36.6" height="24.65" shape-rendering="crispEdges"/><rect fill="#1e1e1e" x="475.8" y="99.1" width="561.2" height="24.65" shape-rendering="crispEdges"/><rect fill="#1e1e1e" x="1037" y="99.1" width="24.4" height="24.65" shape-rendering="crispEdges"/><rect fill="#003054" x="1061.4" y="99.1" width="24.4" height="24.65" shape-rendering="crispEdges"/><rect fill="#2d3740" x="0" y="123.5" width="244" height="24.65" shape-rendering="crispEdges"/><rect fill="#1e1e1e" x="244" y="123.5" width="231.8" height="24.65" shape-rendering="crispEdges"/><rect fill="#1e1e1e" x="475.8" y="123.5" width="561.2" height="24.65" shape-rendering="crispEdges"/><rect fill="#1e1e1e" x="1037" y="123.5" width="24.4" height="24.65" shape-rendering="crispEdges"/><rect fill="#003054" x="1061.4" y="123.5" width="24.4" height="24.65" shape-rendering="crispEdges"/><rect fill="#2d3740" x="0" y="147.9" width="244" height="24.65" shape-rendering="crispEdges"/><rect fill="#1e1e1e" x="244" y="147.9" width="231.8" height="24.65" shape-rendering="crispEdges"/><rect fill="#1e1e1e" x="475.8" y="147.9" width="561.2" height="24.65" shape-rendering="crispEdges"/><rect fill="#1e1e1e" x="1037" y="147.9" width="24.4" height="24.65" shape-rendering="crispEdges"/><rect fill="#003054" x="1061.4" y="147.9" width="24.4" height="24.65" shape-rendering="crispEdges"/><rect fill="#2d3740" x="0" y="172.3" width="244" height="24.65" shape-rendering="crispEdges"/><rect fill="#1e1e1e" x="244" y="172.3" width="231.8" height="24.65" shape-rendering="crispEdges"/><rect fill="#1e1e1e" x="475.8" y="172.3" width="561.2" height="24.65" shape-rendering="crispEdges"/><rect fill="#1e1e1e" x="1037" y="172.3" width="24.4" height="24.65" shape-rendering="crispEdges"/><rect fill="#003054" x="1061.4" y="172.3" width="24.4" height="24.65" shape-rendering="crispEdges"/><rect fill="#2d3740" x="0" y="196.7" width="244" height="24.65" shape-rendering="crispEdges"/><rect fill="#1e1e1e" x="244" y="196.7" width="231.8" height="24.65" shape-rendering="crispEdges"/><rect fill="#1e1e1e" x="475.8" y="196.7" width="561.2" height="24.65" shape-rendering="crispEdges"/><rect fill="#1e1e1e" x="1037" y="196.7" width="24.4" height="24.65" shape-rendering="crispEdges"/><rect fill="#003054" x="1061.4" y="196.7" width="24.4" height="24.65" shape-rendering="crispEdges"/><rect fill="#2d3740" x="0" y="221.1" width="244" height="24.65" shape-rendering="crispEdges"/><rect fill="#1e1e1e" x="244" y="221.1" width="231.8" height="24.65" shape-rendering="crispEdges"/><rect fill="#1e1e1e" x="475.8" y="221.1" width="561.2" height="24.65" shape-rendering="crispEdges"/><rect fill="#1e1e1e" x="1037" y="221.1" width="24.4" height="24.65" shape-rendering="crispEdges"/><rect fill="#003054" x="1061.4" y="221.1" width="24.4" height="24.65" shape-rendering="crispEdges"/><rect fill="#2d3740" x="0" y="245.5" width="244" height="24.65" shape-rendering="crispEdges"/><rect fill="#1e1e1e" x="244" y="245.5" width="195.2" height="24.65" shape-rendering="crispEdges"/><rect fill="#1e1e1e" x="439.2" y="245.5" width="36.6" height="24.65" shape-rendering="crispEdges"/><rect fill="#1e1e1e" x="475.8" y="245.5" width="561.2" height="24.65" shape-rendering="crispEdges"/><rect fill="#1e1e1e" x="1037" y="245.5" width="24.4" height="24.65" shape-rendering="crispEdges"/><rect fill="#003054" x="1061.4" y="245.5" width="24.4" height="24.65" shape-rendering="crispEdges"/><rect fill="#2d3740" x="0" y="269.9" width="244" height="24.65" shape-rendering="crispEdges"/><rect fill="#1e1e1e" x="244" y="269.9" width="231.8" height="24.65" shape-rendering="crispEdges"/><rect fill="#1e1e1e" x="475.8" y="269.9" width="561.2" height="24.65" shape-rendering="crispEdges"/><rect fill="#1e1e1e" x="1037" y="269.9" width="24.4" height="24.65" shape-rendering="crispEdges"/><rect fill="#003054" x="1061.4" y="269.9" width="24.4" height="24.65" shape-rendering="crispEdges"/><rect fill="#2d3740" x="0" y="294.3" width="244" height="24.65" shape-rendering="crispEdges"/><rect fill="#1e1e1e" x="244" y="294.3" width="195.2" height="24.65" shape-rendering="crispEdges"/><rect fill="#1e1e1e" x="439.2" y="294.3" width="36.6" height="24.65" shape-rendering="crispEdges"/><rect fill="#1e1e1e" x="475.8" y="294.3" width="561.2" height="24.65" shape-rendering="crispEdges"/><rect fill="#1e1e1e" x="1037" y="294.3" width="24.4" height="24.65" shape-rendering="crispEdges"/><rect fill="#003054" x="1061.4" y="294.3" width="24.4" height="24.65" shape-rendering="crispEdges"/><rect fill="#2d3740" x="0" y="318.7" width="244" height="24.65" shape-rendering="crispEdges"/><rect fill="#1e1e1e" x="244" y="318.7" width="231.8" height="24.65" shape-rendering="crispEdges"/><rect fill="#1e1e1e" x="475.8" y="318.7" width="561.2" height="24.65" shape-rendering="crispEdges"/><rect fill="#1e1e1e" x="1037" y="318.7" width="24.4" height="24.65" shape-rendering="crispEdges"/><rect fill="#000000" x="1061.4" y="318.7" width="24.4" height="24.65" shape-rendering="crispEdges"/><rect fill="#2d3740" x="0" y="343.1" width="244" height="24.65" shape-rendering="crispEdges"/><rect fill="#1e1e1e" x="244" y="343.1" width="231.8" height="24.65" shape-rendering="crispEdges"/><rect fill="#1e1e1e" x="475.8" y="343.1" width="561.2" height="24.65" shape-rendering="crispEdges"/><rect fill="#1e1e1e" x="1037" y="343.1" width="24.4" height="24.65" shape-rendering="crispEdges"/><rect fill="#000000" x="1061.4" y="343.1" width="24.4" height="24.65" shape-rendering="crispEdges"/><rect fill="#2d3740" x="0" y="367.5" width="244" height="24.65" shape-rendering="crispEdges"/><rect fill="#1e1e1e" x="244" y="367.5" width="231.8" height="24.65" shape-rendering="crispEdges"/><rect fill="#1e1e1e" x="475.8" y="367.5" width="561.2" height="24.65" shape-rendering="crispEdges"/><rect fill="#1e1e1e" x="1037" y="367.5" width="24.4" height="24.65" shape-rendering="crispEdges"/><rect fill="#000000" x="1061.4" y="367.5" width="24.4" height="24.65" shape-rendering="crispEdges"/><rect fill="#2d3740" x="0" y="391.9" width="244" height="24.65" shape-rendering="crispEdges"/><rect fill="#1e1e1e" x="244" y="391.9" width="231.8" height="24.65" shape-rendering="crispEdges"/><rect fill="#1e1e1e" x="475.8" y="391.9" width="561.2" height="24.65" shape-rendering="crispEdges"/><rect fill="#1e1e1e" x="1037" y="391.9" width="24.4" height="24.65" shape-rendering="crispEdges"/><rect fill="#000000" x="1061.4" y="391.9" width="24.4" height="24.65" shape-rendering="crispEdges"/><rect fill="#2d3740" x="0" y="416.3" width="244" height="24.65" shape-rendering="crispEdges"/><rect fill="#1e1e1e" x="244" y="416.3" width="231.8" height="24.65" shape-rendering="crispEdges"/><rect fill="#1e1e1e" x="475.8" y="416.3" width="561.2" height="24.65" shape-rendering="crispEdges"/><rect fill="#1e1e1e" x="1037" y="416.3" width="24.4" height="24.65" shape-rendering="crispEdges"/><rect fill="#000000" x="1061.4" y="416.3" width="24.4" height="24.65" shape-rendering="crispEdges"/><rect fill="#2d3740" x="0" y="440.7" width="244" height="24.65" shape-rendering="crispEdges"/><rect fill="#1e1e1e" x="244" y="440.7" width="195.2" height="24.65" shape-rendering="crispEdges"/><rect fill="#1e1e1e" x="439.2" y="440.7" width="36.6" height="24.65" shape-rendering="crispEdges"/><rect fill="#1e1e1e" x="475.8" y="440.7" width="561.2" height="24.65" shape-rendering="crispEdges"/><rect fill="#1e1e1e" x="1037" y="440.7" width="24.4" height="24.65" shape-rendering="crispEdges"/><rect fill="#000000" x="1061.4" y="440.7" width="24.4" height="24.65" shape-rendering="crispEdges"/><rect fill="#2d3740" x="0" y="465.1" width="244" height="24.65" shape-rendering="crispEdges"/><rect fill="#1e1e1e" x="244" y="465.1" width="195.2" height="24.65" shape-rendering="crispEdges"/><rect fill="#1e1e1e" x="439.2" y="465.1" width="36.6" height="24.65" shape-rendering="crispEdges"/><rect fill="#1e1e1e" x="475.8" y="465.1" width="561.2" height="24.65" shape-rendering="crispEdges"/><rect fill="#1e1e1e" x="1037" y="465.1" width="24.4" height="24.65" shape-rendering="crispEdges"/><rect fill="#000000" x="1061.4" y="465.1" width="24.4" height="24.65" shape-rendering="crispEdges"/><rect fill="#2d3740" x="0" y="489.5" width="244" height="24.65" shape-rendering="crispEdges"/><rect fill="#1e1e1e" x="244" y="489.5" width="195.2" height="24.65" shape-rendering="crispEdges"/><rect fill="#1e1e1e" x="439.2" y="489.5" width="36.6" height="24.65" shape-rendering="crispEdges"/><rect fill="#1e1e1e" x="475.8" y="489.5" width="561.2" height="24.65" shape-rendering="crispEdges"/><rect fill="#1e1e1e" x="1037" y="489.5" width="24.4" height="24.65" shape-rendering="crispEdges"/><rect fill="#000000" x="1061.4" y="489.5" width="24.4" height="24.65" shape-rendering="crispEdges"/><rect fill="#2d3740" x="0" y="513.9" width="244" height="24.65" shape-rendering="crispEdges"/><rect fill="#1e1e1e" x="244" y="513.9" width="195.2" height="24.65" shape-rendering="crispEdges"/><rect fill="#1e1e1e" x="439.2" y="513.9" width="36.6" height="24.65" shape-rendering="crispEdges"/><rect fill="#1e1e1e" x="475.8" y="513.9" width="561.2" height="24.65" shape-rendering="crispEdges"/><rect fill="#1e1e1e" x="1037" y="513.9" width="24.4" height="24.65" shape-rendering="crispEdges"/><rect fill="#000000" x="1061.4" y="513.9" width="24.4" height="24.65" shape-rendering="crispEdges"/><rect fill="#2d3740" x="0" y="538.3" width="244" height="24.65" shape-rendering="crispEdges"/><rect fill="#1e1e1e" x="244" y="538.3" width="195.2" height="24.65" shape-rendering="crispEdges"/><rect fill="#1e1e1e" x="439.2" y="538.3" width="36.6" height="24.65" shape-rendering="crispEdges"/><rect fill="#1e1e1e" x="475.8" y="538.3" width="561.2" height="24.65" shape-rendering="crispEdges"/><rect fill="#1e1e1e" x="1037" y="538.3" width="24.4" height="24.65" shape-rendering="crispEdges"/><rect fill="#000000" x="1061.4" y="538.3" width="24.4" height="24.65" shape-rendering="crispEdges"/><rect fill="#2d3740" x="0" y="562.7" width="244" height="24.65" shape-rendering="crispEdges"/><rect fill="#1e1e1e" x="244" y="562.7" width="195.2" height="24.65" shape-rendering="crispEdges"/><rect fill="#1e1e1e" x="439.2" y="562.7" width="36.6" height="24.65" shape-rendering="crispEdges"/><rect fill="#1e1e1e" x="475.8" y="562.7" width="561.2" height="24.65" shape-rendering="crispEdges"/><rect fill="#1e1e1e" x="1037" y="562.7" width="24.4" height="24.65" shape-rendering="crispEdges"/><rect fill="#000000" x="1061.4" y="562.7" width="24.4" height="24.65" shape-rendering="crispEdges"/><rect fill="#2d3740" x="0" y="587.1" width="244" height="24.65" shape-rendering="crispEdges"/><rect fill="#1e1e1e" x="244" y="587.1" width="195.2" height="24.65" shape-rendering="crispEdges"/><rect fill="#1e1e1e" x="439.2" y="587.1" width="36.6" height="24.65" shape-rendering="crispEdges"/><rect fill="#1e1e1e" x="475.8" y="587.1" width="561.2" height="24.65" shape-rendering="crispEdges"/><rect fill="#1e1e1e" x="1037" y="587.1" width="24.4" height="24.65" shape-rendering="crispEdges"/><rect fill="#000000" x="1061.4" y="587.1" width="24.4" height="24.65" shape-rendering="crispEdges"/><rect fill="#2d3740" x="0" y="611.5" width="244" height="24.65" shape-rendering="crispEdges"/><rect fill="#1e1e1e" x="244" y="611.5" width="195.2" height="24.65" shape-rendering="crispEdges"/><rect fill="#1e1e1e" x="439.2" y="611.5" width="36.6" height="24.65" shape-rendering="crispEdges"/><rect fill="#1e1e1e" x="475.8" y="611.5" width="561.2" height="24.65" shape-rendering="crispEdges"/><rect fill="#1e1e1e" x="1037" y="611.5" width="24.4" height="24.65" shape-rendering="crispEdges"/><rect fill="#000000" x="1061.4" y="611.5" width="24.4" height="24.65" shape-rendering="crispEdges"/><rect fill="#2d3740" x="0" y="635.9" width="244" height="24.65" shape-rendering="crispEdges"/><rect fill="#1e1e1e" x="244" y="635.9" width="195.2" height="24.65" shape-rendering="crispEdges"/><rect fill="#1e1e1e" x="439.2" y="635.9" width="36.6" height="24.65" shape-rendering="crispEdges"/><rect fill="#1e1e1e" x="475.8" y="635.9" width="561.2" height="24.65" shape-rendering="crispEdges"/><rect fill="#1e1e1e" x="1037" y="635.9" width="24.4" height="24.65" shape-rendering="crispEdges"/><rect fill="#000000" x="1061.4" y="635.9" width="24.4" height="24.65" shape-rendering="crispEdges"/><rect fill="#242f38" x="0" y="660.3" width="48.8" height="24.65" shape-rendering="crispEdges"/><rect fill="#242f38" x="48.8" y="660.3" width="61" height="24.65" shape-rendering="crispEdges"/><rect fill="#242f38" x="109.8" y="660.3" width="85.4" height="24.65" shape-rendering="crispEdges"/><rect fill="#242f38" x="195.2" y="660.3" width="61" height="24.65" shape-rendering="crispEdges"/><rect fill="#242f38" x="256.2" y="660.3" width="48.8" height="24.65" shape-rendering="crispEdges"/><rect fill="#242f38" x="305" y="660.3" width="97.6" height="24.65" shape-rendering="crispEdges"/><rect fill="#242f38" x="402.6" y="660.3" width="48.8" height="24.65" shape-rendering="crispEdges"/><rect fill="#242f38" x="451.4" y="660.3" width="73.2" height="24.65" shape-rendering="crispEdges"/><rect fill="#242f38" x="524.6" y="660.3" width="48.8" height="24.65" shape-rendering="crispEdges"/><rect fill="#242f38" x="573.4" y="660.3" width="73.2" height="24.65" shape-rendering="crispEdges"/><rect fill="#242f38" x="646.6" y="660.3" width="439.2" height="24.65" shape-rendering="crispEdges"/>
    <g class="terminal-2474102893-matrix">
    <text class="terminal-2474102893-r2" x="12.2" y="20" textLength="12.2" clip-path="url(#terminal-2474102893-line-0)">⭘</text><text class="terminal-2474102893-r2" x="305" y="20" textLength="183" clip-path="url(#terminal-2474102893-line-0)">BetterLaunch&#160;—&#160;</text><text class="terminal-2474102893-r3" x="488" y="20" textLength="256.2" clip-path="url(#terminal-2474102893-line-0)">screenshot_example.py</text><text class="terminal-2474102893-r4" x="976" y="20" textLength="97.6" clip-path="url(#terminal-2474102893-line-0)">12:32:51</text><text class="terminal-2474102893-r1" x="1085.8" y="20" textLength="12.2" clip-path="url(#terminal-2474102893-line-0)">
</text><text class="terminal-2474102893-r5" x="12.2" y="44.4" textLength="12.2" clip-path="url(#terminal-2474102893-line-1)">1</text><text class="terminal-2474102893-r2" x="48.8" y="44.4" textLength="183" clip-path="url(#terminal-2474102893-line-1)">example_publish</text><text class="terminal-2474102893-r7" x="244" y="44.4" textLength="195.2" clip-path="url(#terminal-2474102893-line-1)">screenshot_examp</text><text class="terminal-2474102893-r8" x="439.2" y="44.4" textLength="24.4" clip-path="url(#terminal-2474102893-line-1)">&#160;🔥</text><text class="terminal-2474102893-r2" x="475.8" y="44.4" textLength="561.2" clip-path="url(#terminal-2474102893-line-1)">Log&#160;files&#160;at&#160;&#160;&#160;&#160;&#160;&#160;&#160;&#160;&#160;&#160;&#160;&#160;&#160;&#160;&#160;&#160;&#160;&#160;&#160;&#160;&#160;&#160;&#160;&#160;&#160;&#160;&#160;&#160;&#160;&#160;&#160;&#160;&#160;&#160;</text><text class="terminal-2474102893-r1" x="1085.8" y="44.4" textLength="12.2" clip-path="url(#terminal-2474102893-line-1)">
</text><text class="terminal-2474102893-r5" x="12.2" y="68.8" textLength="12.2" clip-path="url(#terminal-2474102893-line-2)">2</text><text class="terminal-2474102893-r2" x="48.8" y="68.8" textLength="183" clip-path="url(#terminal-2474102893-line-2)">example_subscri</text><text class="terminal-2474102893-r2" x="475.8" y="68.8" textLength="561.2" clip-path="url(#terminal-2474102893-line-2)">/home/dfki.uni-bremen.de/ndahn/.ros/log/2025-0</text><text class="terminal-2474102893-r1" x="1085.8" y="68.8" textLength="12.2" clip-path="url(#terminal-2474102893-line-2)">
</text><text class="terminal-2474102893-r2" x="475.8" y="93.2" textLength="561.2" clip-path="url(#terminal-2474102893-line-3)">2-25-12-32-36-468164-NDAHN-P15S-U-506404&#160;&#160;&#160;&#160;&#160;&#160;</text><text class="terminal-2474102893-r1" x="1085.8" y="93.2" textLength="12.2" clip-path="url(#terminal-2474102893-line-3)">
</text><text class="terminal-2474102893-r10" x="244" y="117.6" textLength="195.2" clip-path="url(#terminal-2474102893-line-4)">example_publishe</text><text class="terminal-2474102893-r11" x="439.2" y="117.6" textLength="36.6" clip-path="url(#terminal-2474102893-line-4)">&#160;✓&#160;</text><text class="terminal-2474102893-r2" x="475.8" y="117.6" textLength="561.2" clip-path="url(#terminal-2474102893-line-4)">Starting&#160;process&#160;&#160;&#160;&#160;&#160;&#160;&#160;&#160;&#160;&#160;&#160;&#160;&#160;&#160;&#160;&#160;&#160;&#160;&#160;&#160;&#160;&#160;&#160;&#160;&#160;&#160;&#160;&#160;&#160;&#160;</text><text class="terminal-2474102893-r1" x="1085.8" y="117.6" textLength="12.2" clip-path="url(#terminal-2474102893-line-4)">
</text><text class="terminal-2474102893-r2" x="475.8" y="142" textLength="561.2" clip-path="url(#terminal-2474102893-line-5)">&#x27;/opt/ros/humble/lib/examples_rclpy_minimal_pu</text><text class="terminal-2474102893-r1" x="1085.8" y="142" textLength="12.2" clip-path="url(#terminal-2474102893-line-5)">
</text><text class="terminal-2474102893-r2" x="475.8" y="166.4" textLength="561.2" clip-path="url(#terminal-2474102893-line-6)">blisher/publisher_local_function&#160;--log-level&#160;&#160;</text><text class="terminal-2474102893-r1" x="1085.8" y="166.4" textLength="12.2" clip-path="url(#terminal-2474102893-line-6)">
</text><text class="terminal-2474102893-r2" x="475.8" y="190.8" textLength="561.2" clip-path="url(#terminal-2474102893-line-7)">INFO&#160;--ros-args&#160;-r&#160;__ns:=/&#160;-r&#160;&#160;&#160;&#160;&#160;&#160;&#160;&#160;&#160;&#160;&#160;&#160;&#160;&#160;&#160;&#160;&#160;</text><text class="terminal-2474102893-r1" x="1085.8" y="190.8" textLength="12.2" clip-path="url(#terminal-2474102893-line-7)">
</text><text class="terminal-2474102893-r2" x="475.8" y="215.2" textLength="561.2" clip-path="url(#terminal-2474102893-line-8)">__node:=example_publisher&#x27;&#160;&#160;&#160;&#160;&#160;&#160;&#160;&#160;&#160;&#160;&#160;&#160;&#160;&#160;&#160;&#160;&#160;&#160;&#160;&#160;</text><text class="terminal-2474102893-r1" x="1085.8" y="215.2" textLength="12.2" clip-path="url(#terminal-2474102893-line-8)">
</text><text class="terminal-2474102893-r2" x="475.8" y="239.6" textLength="561.2" clip-path="url(#terminal-2474102893-line-9)">-&gt;&#160;env&#160;={}&#160;&#160;&#160;&#160;&#160;&#160;&#160;&#160;&#160;&#160;&#160;&#160;&#160;&#160;&#160;&#160;&#160;&#160;&#160;&#160;&#160;&#160;&#160;&#160;&#160;&#160;&#160;&#160;&#160;&#160;&#160;&#160;&#160;&#160;&#160;&#160;</text><text class="terminal-2474102893-r1" x="1085.8" y="239.6" textLength="12.2" clip-path="url(#terminal-2474102893-line-9)">
</text><text class="terminal-2474102893-r7" x="244" y="264" textLength="195.2" clip-path="url(#terminal-2474102893-line-10)">screenshot_examp</text><text class="terminal-2474102893-r11" x="439.2" y="264" textLength="36.6" clip-path="url(#terminal-2474102893-line-10)">&#160;✓&#160;</text><text class="terminal-2474102893-r2" x="475.8" y="264" textLength="561.2" clip-path="url(#terminal-2474102893-line-10)">Including&#160;launch&#160;file:&#160;example_listener.py&#160;&#160;&#160;&#160;</text><text class="terminal-2474102893-r1" x="1085.8" y="264" textLength="12.2" clip-path="url(#terminal-2474102893-line-10)">
</text><text class="terminal-2474102893-r2" x="475.8" y="288.4" textLength="561.2" clip-path="url(#terminal-2474102893-line-11)">(args={&#x27;enable_x&#x27;:&#160;True})&#160;&#160;&#160;&#160;&#160;&#160;&#160;&#160;&#160;&#160;&#160;&#160;&#160;&#160;&#160;&#160;&#160;&#160;&#160;&#160;&#160;</text><text class="terminal-2474102893-r1" x="1085.8" y="288.4" textLength="12.2" clip-path="url(#terminal-2474102893-line-11)">
</text><text class="terminal-2474102893-r12" x="244" y="312.8" textLength="195.2" clip-path="url(#terminal-2474102893-line-12)">example_subscrib</text><text class="terminal-2474102893-r11" x="439.2" y="312.8" textLength="36.6" clip-path="url(#terminal-2474102893-line-12)">&#160;✓&#160;</text><text class="terminal-2474102893-r2" x="475.8" y="312.8" textLength="561.2" clip-path="url(#terminal-2474102893-line-12)">Starting&#160;process&#160;&#160;&#160;&#160;&#160;&#160;&#160;&#160;&#160;&#160;&#160;&#160;&#160;&#160;&#160;&#160;&#160;&#160;&#160;&#160;&#160;&#160;&#160;&#160;&#160;&#160;&#160;&#160;&#160;&#160;</text><text class="terminal-2474102893-r13" x="1061.4" y="312.8" textLength="24.4" clip-path="url(#terminal-2474102893-line-12)">▄▄</text><text class="terminal-2474102893-r1" x="1085.8" y="312.8" textLength="12.2" clip-path="url(#terminal-2474102893-line-12)">
</text><text class="terminal-2474102893-r2" x="475.8" y="337.2" textLength="561.2" clip-path="url(#terminal-2474102893-line-13)">&#x27;/opt/ros/humble/lib/examples_rclcpp_minimal_s</text><text class="terminal-2474102893-r1" x="1085.8" y="337.2" textLength="12.2" clip-path="url(#terminal-2474102893-line-13)">
</text><text class="terminal-2474102893-r2" x="475.8" y="361.6" textLength="561.2" clip-path="url(#terminal-2474102893-line-14)">ubscriber/subscriber_member_function&#160;&#160;&#160;&#160;&#160;&#160;&#160;&#160;&#160;&#160;</text><text class="terminal-2474102893-r1" x="1085.8" y="361.6" textLength="12.2" clip-path="url(#terminal-2474102893-line-14)">
</text><text class="terminal-2474102893-r2" x="475.8" y="386" textLength="561.2" clip-path="url(#terminal-2474102893-line-15)">--log-level&#160;INFO&#160;--ros-args&#160;-r&#160;__ns:=/&#160;-r&#160;&#160;&#160;&#160;&#160;</text><text class="terminal-2474102893-r1" x="1085.8" y="386" textLength="12.2" clip-path="url(#terminal-2474102893-line-15)">
</text><text class="terminal-2474102893-r2" x="475.8" y="410.4" textLength="561.2" clip-path="url(#terminal-2474102893-line-16)">__node:=example_subscriber&#x27;&#160;&#160;&#160;&#160;&#160;&#160;&#160;&#160;&#160;&#160;&#160;&#160;&#160;&#160;&#160;&#160;&#160;&#160;&#160;</text><text class="terminal-2474102893-r1" x="1085.8" y="410.4" textLength="12.2" clip-path="url(#terminal-2474102893-line-16)">
</text><text class="terminal-2474102893-r2" x="475.8" y="434.8" textLength="561.2" clip-path="url(#terminal-2474102893-line-17)">-&gt;&#160;env&#160;={}&#160;&#160;&#160;&#160;&#160;&#160;&#160;&#160;&#160;&#160;&#160;&#160;&#160;&#160;&#160;&#160;&#160;&#160;&#160;&#160;&#160;&#160;&#160;&#160;&#160;&#160;&#160;&#160;&#160;&#160;&#160;&#160;&#160;&#160;&#160;&#160;</text><text class="terminal-2474102893-r1" x="1085.8" y="434.8" textLength="12.2" clip-path="url(#terminal-2474102893-line-17)">
</text><text class="terminal-2474102893-r14" x="244" y="459.2" textLength="195.2" clip-path="url(#terminal-2474102893-line-18)">example_publishe</text><text class="terminal-2474102893-r11" x="439.2" y="459.2" textLength="36.6" clip-path="url(#terminal-2474102893-line-18)">&#160;✓&#160;</text><text class="terminal-2474102893-r2" x="475.8" y="459.2" textLength="561.2" clip-path="url(#terminal-2474102893-line-18)">Publishing:&#160;&quot;Hello&#160;World:&#160;0&quot;&#160;&#160;&#160;&#160;&#160;&#160;&#160;&#160;&#160;&#160;&#160;&#160;&#160;&#160;&#160;&#160;&#160;&#160;</text><text class="terminal-2474102893-r1" x="1085.8" y="459.2" textLength="12.2" clip-path="url(#terminal-2474102893-line-18)">
</text><text class="terminal-2474102893-r15" x="244" y="483.6" textLength="195.2" clip-path="url(#terminal-2474102893-line-19)">example_subscrib</text><text class="terminal-2474102893-r11" x="439.2" y="483.6" textLength="36.6" clip-path="url(#terminal-2474102893-line-19)">&#160;✓&#160;</text><text class="terminal-2474102893-r2" x="475.8" y="483.6" textLength="561.2" clip-path="url(#terminal-2474102893-line-19)">I&#160;heard:&#160;&#x27;Hello&#160;World:&#160;0&#x27;&#160;&#160;&#160;&#160;&#160;&#160;&#160;&#160;&#160;&#160;&#160;&#160;&#160;&#160;&#160;&#160;&#160;&#160;&#160;&#160;&#160;</text><text class="terminal-2474102893-r1" x="1085.8" y="483.6" textLength="12.2" clip-path="url(#terminal-2474102893-line-19)">
</text><text class="terminal-2474102893-r14" x="244" y="508" textLength="195.2" clip-path="url(#terminal-2474102893-line-20)">example_publishe</text><text class="terminal-2474102893-r11" x="439.2" y="508" textLength="36.6" clip-path="url(#terminal-2474102893-line-20)">&#160;✓&#160;</text><text class="terminal-2474102893-r2" x="475.8" y="508" textLength="561.2" clip-path="url(#terminal-2474102893-line-20)">Publishing:&#160;&quot;Hello&#160;World:&#160;1&quot;&#160;&#160;&#160;&#160;&#160;&#160;&#160;&#160;&#160;&#160;&#160;&#160;&#160;&#160;&#160;&#160;&#160;&#160;</text><text class="terminal-2474102893-r1" x="1085.8" y="508" textLength="12.2" clip-path="url(#terminal-2474102893-line-20)">
</text><text class="terminal-2474102893-r15" x="244" y="532.4" textLength="195.2" clip-path="url(#terminal-2474102893-line-21)">example_subscrib</text><text class="terminal-2474102893-r11" x="439.2" y="532.4" textLength="36.6" clip-path="url(#terminal-2474102893-line-21)">&#160;✓&#160;</text><text class="terminal-2474102893-r2" x="475.8" y="532.4" textLength="561.2" clip-path="url(#terminal-2474102893-line-21)">I&#160;heard:&#160;&#x27;Hello&#160;World:&#160;1&#x27;&#160;&#160;&#160;&#160;&#160;&#160;&#160;&#160;&#160;&#160;&#160;&#160;&#160;&#160;&#160;&#160;&#160;&#160;&#160;&#160;&#160;</text><text class="terminal-2474102893-r1" x="1085.8" y="532.4" textLength="12.2" clip-path="url(#terminal-2474102893-line-21)">
</text><text class="terminal-2474102893-r14" x="244" y="556.8" textLength="195.2" clip-path="url(#terminal-2474102893-line-22)">example_publishe</text><text class="terminal-2474102893-r11" x="439.2" y="556.8" textLength="36.6" clip-path="url(#terminal-2474102893-line-22)">&#160;✓&#160;</text><text class="terminal-2474102893-r2" x="475.8" y="556.8" textLength="561.2" clip-path="url(#terminal-2474102893-line-22)">Publishing:&#160;&quot;Hello&#160;World:&#160;2&quot;&#160;&#160;&#160;&#160;&#160;&#160;&#160;&#160;&#160;&#160;&#160;&#160;&#160;&#160;&#160;&#160;&#160;&#160;</text><text class="terminal-2474102893-r1" x="1085.8" y="556.8" textLength="12.2" clip-path="url(#terminal-2474102893-line-22)">
</text><text class="terminal-2474102893-r15" x="244" y="581.2" textLength="195.2" clip-path="url(#terminal-2474102893-line-23)">example_subscrib</text><text class="terminal-2474102893-r11" x="439.2" y="581.2" textLength="36.6" clip-path="url(#terminal-2474102893-line-23)">&#160;✓&#160;</text><text class="terminal-2474102893-r2" x="475.8" y="581.2" textLength="561.2" clip-path="url(#terminal-2474102893-line-23)">I&#160;heard:&#160;&#x27;Hello&#160;World:&#160;2&#x27;&#160;&#160;&#160;&#160;&#160;&#160;&#160;&#160;&#160;&#160;&#160;&#160;&#160;&#160;&#160;&#160;&#160;&#160;&#160;&#160;&#160;</text><text class="terminal-2474102893-r1" x="1085.8" y="581.2" textLength="12.2" clip-path="url(#terminal-2474102893-line-23)">
</text><text class="terminal-2474102893-r14" x="244" y="605.6" textLength="195.2" clip-path="url(#terminal-2474102893-line-24)">example_publishe</text><text class="terminal-2474102893-r11" x="439.2" y="605.6" textLength="36.6" clip-path="url(#terminal-2474102893-line-24)">&#160;✓&#160;</text><text class="terminal-2474102893-r2" x="475.8" y="605.6" textLength="561.2" clip-path="url(#terminal-2474102893-line-24)">Publishing:&#160;&quot;Hello&#160;World:&#160;3&quot;&#160;&#160;&#160;&#160;&#160;&#160;&#160;&#160;&#160;&#160;&#160;&#160;&#160;&#160;&#160;&#160;&#160;&#160;</text><text class="terminal-2474102893-r1" x="1085.8" y="605.6" textLength="12.2" clip-path="url(#terminal-2474102893-line-24)">
</text><text class="terminal-2474102893-r15" x="244" y="630" textLength="195.2" clip-path="url(#terminal-2474102893-line-25)">example_subscrib</text><text class="terminal-2474102893-r11" x="439.2" y="630" textLength="36.6" clip-path="url(#terminal-2474102893-line-25)">&#160;✓&#160;</text><text class="terminal-2474102893-r2" x="475.8" y="630" textLength="561.2" clip-path="url(#terminal-2474102893-line-25)">I&#160;heard:&#160;&#x27;Hello&#160;World:&#160;3&#x27;&#160;&#160;&#160;&#160;&#160;&#160;&#160;&#160;&#160;&#160;&#160;&#160;&#160;&#160;&#160;&#160;&#160;&#160;&#160;&#160;&#160;</text><text class="terminal-2474102893-r1" x="1085.8" y="630" textLength="12.2" clip-path="url(#terminal-2474102893-line-25)">
</text><text class="terminal-2474102893-r14" x="244" y="654.4" textLength="195.2" clip-path="url(#terminal-2474102893-line-26)">example_publishe</text><text class="terminal-2474102893-r11" x="439.2" y="654.4" textLength="36.6" clip-path="url(#terminal-2474102893-line-26)">&#160;✓&#160;</text><text class="terminal-2474102893-r2" x="475.8" y="654.4" textLength="561.2" clip-path="url(#terminal-2474102893-line-26)">Publishing:&#160;&quot;Hello&#160;World:&#160;4&quot;&#160;&#160;&#160;&#160;&#160;&#160;&#160;&#160;&#160;&#160;&#160;&#160;&#160;&#160;&#160;&#160;&#160;&#160;</text><text class="terminal-2474102893-r1" x="1085.8" y="654.4" textLength="12.2" clip-path="url(#terminal-2474102893-line-26)">
</text><text class="terminal-2474102893-r16" x="0" y="678.8" textLength="48.8" clip-path="url(#terminal-2474102893-line-27)">&#160;^q&#160;</text><text class="terminal-2474102893-r2" x="48.8" y="678.8" textLength="61" clip-path="url(#terminal-2474102893-line-27)">Quit&#160;</text><text class="terminal-2474102893-r16" x="109.8" y="678.8" textLength="85.4" clip-path="url(#terminal-2474102893-line-27)">&#160;space&#160;</text><text class="terminal-2474102893-r2" x="195.2" y="678.8" textLength="61" clip-path="url(#terminal-2474102893-line-27)">Mute&#160;</text><text class="terminal-2474102893-r16" x="256.2" y="678.8" textLength="48.8" clip-path="url(#terminal-2474102893-line-27)">&#160;f1&#160;</text><text class="terminal-2474102893-r2" x="305" y="678.8" textLength="97.6" clip-path="url(#terminal-2474102893-line-27)">Sidebar&#160;</text><text class="terminal-2474102893-r16" x="402.6" y="678.8" textLength="48.8" clip-path="url(#terminal-2474102893-line-27)">&#160;f2&#160;</text><text class="terminal-2474102893-r2" x="451.4" y="678.8" textLength="73.2" clip-path="url(#terminal-2474102893-line-27)">Names&#160;</text><text class="terminal-2474102893-r16" x="524.6" y="678.8" textLength="48.8" clip-path="url(#terminal-2474102893-line-27)">&#160;f3&#160;</text><text class="terminal-2474102893-r2" x="573.4" y="678.8" textLength="73.2" clip-path="url(#terminal-2474102893-line-27)">Icons&#160;</text>
    </g>
    </g>
</svg>
