<?xml version="1.0" encoding="UTF-8" standalone="no"?>
<!DOCTYPE svg PUBLIC "-//W3C//DTD SVG 1.1//EN"
 "http://www.w3.org/Graphics/SVG/1.1/DTD/svg11.dtd">
<!-- Generated by graphviz version 12.2.1 (20250203.1708)
 -->
<!-- Pages: 1 -->
<svg width="714pt" height="2154pt"
 viewBox="0.00 0.00 714.25 2154.00" xmlns="http://www.w3.org/2000/svg" xmlns:xlink="http://www.w3.org/1999/xlink">
<g id="graph0" class="graph" transform="scale(1 1) rotate(0) translate(4 2150)">
<polygon fill="white" stroke="none" points="-4,4 -4,-2150 710.25,-2150 710.25,4 -4,4"/>
<!-- 230 -->
<g id="node1" class="node">
<title>230</title>
<g id="a_node1"><a xlink:title="/home/dfki.uni&#45;bremen.de/ndahn/devel/workspaces/my_workspace/test_ws/install/better_launch/lib/python3.10/site&#45;packages/better_launch/launcher.py">
<polygon fill="#0d1274" stroke="#0d1274" points="649.25,-2146 541.75,-2146 541.75,-2090 649.25,-2090 649.25,-2146"/>
<text text-anchor="middle" x="595.5" y="-2132.5" font-family="Arial" font-size="10.00" fill="#ffffff">launcher:1:&lt;module&gt;</text>
<text text-anchor="middle" x="595.5" y="-2120.5" font-family="Arial" font-size="10.00" fill="#ffffff">1.29%</text>
<text text-anchor="middle" x="595.5" y="-2108.5" font-family="Arial" font-size="10.00" fill="#ffffff">(0.00%)</text>
<text text-anchor="middle" x="595.5" y="-2096.5" font-family="Arial" font-size="10.00" fill="#ffffff">1×</text>
</a>
</g>
</g>
<!-- 1052 -->
<g id="node2" class="node">
<title>1052</title>
<g id="a_node2"><a xlink:title="&lt;frozen importlib._bootstrap&gt;">
<polygon fill="#0d1475" stroke="#0d1475" points="562,-2048 381,-2048 381,-1992 562,-1992 562,-2048"/>
<text text-anchor="middle" x="471.5" y="-2034.5" font-family="Arial" font-size="10.00" fill="#ffffff">&lt;frozen importlib:1022:_find_and_load</text>
<text text-anchor="middle" x="471.5" y="-2022.5" font-family="Arial" font-size="10.00" fill="#ffffff">1.70%</text>
<text text-anchor="middle" x="471.5" y="-2010.5" font-family="Arial" font-size="10.00" fill="#ffffff">(0.01%)</text>
<text text-anchor="middle" x="471.5" y="-1998.5" font-family="Arial" font-size="10.00" fill="#ffffff">469×</text>
</a>
</g>
</g>
<!-- 230&#45;&gt;1052 -->
<g id="edge1" class="edge">
<title>230&#45;&gt;1052</title>
<path fill="none" stroke="#0d1274" stroke-width="0.5" d="M560.3,-2089.75C544.59,-2077.59 526.04,-2063.23 509.97,-2050.78"/>
<polygon fill="#0d1274" stroke="#0d1274" stroke-width="0.5" points="510.91,-2049.96 507.39,-2048.78 509.41,-2051.9 510.91,-2049.96"/>
<text text-anchor="middle" x="562.13" y="-2071.5" font-family="Arial" font-size="10.00" fill="#0d1274">1.29%</text>
<text text-anchor="middle" x="562.13" y="-2059.5" font-family="Arial" font-size="10.00" fill="#0d1274">11×</text>
</g>
<!-- 605 -->
<g id="node16" class="node">
<title>605</title>
<g id="a_node16"><a xlink:title="&lt;frozen importlib._bootstrap&gt;">
<polygon fill="#0d1475" stroke="#0d1475" points="581.5,-1950 361.5,-1950 361.5,-1894 581.5,-1894 581.5,-1950"/>
<text text-anchor="middle" x="471.5" y="-1936.5" font-family="Arial" font-size="10.00" fill="#ffffff">&lt;frozen importlib:987:_find_and_load_unlocked</text>
<text text-anchor="middle" x="471.5" y="-1924.5" font-family="Arial" font-size="10.00" fill="#ffffff">1.70%</text>
<text text-anchor="middle" x="471.5" y="-1912.5" font-family="Arial" font-size="10.00" fill="#ffffff">(0.01%)</text>
<text text-anchor="middle" x="471.5" y="-1900.5" font-family="Arial" font-size="10.00" fill="#ffffff">442×</text>
</a>
</g>
</g>
<!-- 1052&#45;&gt;605 -->
<g id="edge18" class="edge">
<title>1052&#45;&gt;605</title>
<path fill="none" stroke="#0d1475" stroke-width="0.5" d="M471.5,-1991.75C471.5,-1980.09 471.5,-1966.42 471.5,-1954.35"/>
<polygon fill="#0d1475" stroke="#0d1475" stroke-width="0.5" points="472.73,-1954.58 471.5,-1951.08 470.28,-1954.58 472.73,-1954.58"/>
<text text-anchor="middle" x="485.38" y="-1973.5" font-family="Arial" font-size="10.00" fill="#0d1475">1.70%</text>
<text text-anchor="middle" x="485.38" y="-1961.5" font-family="Arial" font-size="10.00" fill="#0d1475">6×</text>
</g>
<!-- 247 -->
<g id="node3" class="node">
<title>247</title>
<g id="a_node3"><a xlink:title="~">
<polygon fill="#0d1074" stroke="#0d1074" points="394.38,-1558 200.62,-1558 200.62,-1502 394.38,-1502 394.38,-1558"/>
<text text-anchor="middle" x="297.5" y="-1544.5" font-family="Arial" font-size="10.00" fill="#ffffff">~:0:&lt;built&#45;in method builtins.__import__&gt;</text>
<text text-anchor="middle" x="297.5" y="-1532.5" font-family="Arial" font-size="10.00" fill="#ffffff">0.75%</text>
<text text-anchor="middle" x="297.5" y="-1520.5" font-family="Arial" font-size="10.00" fill="#ffffff">(0.00%)</text>
<text text-anchor="middle" x="297.5" y="-1508.5" font-family="Arial" font-size="10.00" fill="#ffffff">408×</text>
</a>
</g>
</g>
<!-- 247&#45;&gt;1052 -->
<g id="edge2" class="edge">
<title>247&#45;&gt;1052</title>
<path fill="none" stroke="#0d1074" stroke-width="0.5" d="M256.53,-1558.47C236.43,-1575.46 216.5,-1599.31 216.5,-1627 216.5,-1923 216.5,-1923 216.5,-1923 216.5,-1958.49 304.12,-1985.36 376.64,-2001.52"/>
<polygon fill="#0d1074" stroke="#0d1074" stroke-width="0.5" points="376.1,-2002.66 379.78,-2002.22 376.63,-2000.26 376.1,-2002.66"/>
<text text-anchor="middle" x="230.38" y="-1777.5" font-family="Arial" font-size="10.00" fill="#0d1074">0.74%</text>
<text text-anchor="middle" x="230.38" y="-1765.5" font-family="Arial" font-size="10.00" fill="#0d1074">41×</text>
</g>
<!-- 249 -->
<g id="node4" class="node">
<title>249</title>
<g id="a_node4"><a xlink:title="&lt;frozen importlib._bootstrap&gt;">
<polygon fill="#0d1475" stroke="#0d1475" points="463.5,-1656 231.5,-1656 231.5,-1600 463.5,-1600 463.5,-1656"/>
<text text-anchor="middle" x="347.5" y="-1642.5" font-family="Arial" font-size="10.00" fill="#ffffff">&lt;frozen importlib:233:_call_with_frames_removed</text>
<text text-anchor="middle" x="347.5" y="-1630.5" font-family="Arial" font-size="10.00" fill="#ffffff">1.69%</text>
<text text-anchor="middle" x="347.5" y="-1618.5" font-family="Arial" font-size="10.00" fill="#ffffff">(0.00%)</text>
<text text-anchor="middle" x="347.5" y="-1606.5" font-family="Arial" font-size="10.00" fill="#ffffff">672×</text>
</a>
</g>
</g>
<!-- 249&#45;&gt;247 -->
<g id="edge3" class="edge">
<title>249&#45;&gt;247</title>
<path fill="none" stroke="#0d1074" stroke-width="0.5" d="M326.86,-1599.52C325.04,-1596.7 323.3,-1593.83 321.75,-1591 316.73,-1581.87 312.17,-1571.49 308.39,-1561.95"/>
<polygon fill="#0d1074" stroke="#0d1074" stroke-width="0.5" points="309.62,-1561.73 307.2,-1558.91 307.34,-1562.62 309.62,-1561.73"/>
<text text-anchor="middle" x="335.62" y="-1581.5" font-family="Arial" font-size="10.00" fill="#0d1074">0.75%</text>
<text text-anchor="middle" x="335.62" y="-1569.5" font-family="Arial" font-size="10.00" fill="#0d1074">41×</text>
</g>
<!-- 304 -->
<g id="node5" class="node">
<title>304</title>
<g id="a_node5"><a xlink:title="~">
<polygon fill="#ff0000" stroke="#ff0000" points="595.88,-1558 429.12,-1558 429.12,-1502 595.88,-1502 595.88,-1558"/>
<text text-anchor="middle" x="512.5" y="-1544.5" font-family="Arial" font-size="10.00" fill="#ffffff">~:0:&lt;built&#45;in method builtins.exec&gt;</text>
<text text-anchor="middle" x="512.5" y="-1532.5" font-family="Arial" font-size="10.00" fill="#ffffff">100.00%</text>
<text text-anchor="middle" x="512.5" y="-1520.5" font-family="Arial" font-size="10.00" fill="#ffffff">(0.00%)</text>
<text text-anchor="middle" x="512.5" y="-1508.5" font-family="Arial" font-size="10.00" fill="#ffffff">387×</text>
</a>
</g>
</g>
<!-- 249&#45;&gt;304 -->
<g id="edge4" class="edge">
<title>249&#45;&gt;304</title>
<path fill="none" stroke="#0d1475" stroke-width="0.5" d="M394.34,-1599.75C415.41,-1587.49 440.33,-1572.99 461.83,-1560.48"/>
<polygon fill="#0d1475" stroke="#0d1475" stroke-width="0.5" points="462.19,-1561.69 464.6,-1558.87 460.96,-1559.57 462.19,-1561.69"/>
<text text-anchor="middle" x="463.51" y="-1581.5" font-family="Arial" font-size="10.00" fill="#0d1475">1.68%</text>
<text text-anchor="middle" x="463.51" y="-1569.5" font-family="Arial" font-size="10.00" fill="#0d1475">4×</text>
</g>
<!-- 304&#45;&gt;230 -->
<g id="edge5" class="edge">
<title>304&#45;&gt;230</title>
<path fill="none" stroke="#0d1274" stroke-width="0.5" d="M595.99,-1547.2C637.32,-1560.57 678.5,-1584.55 678.5,-1627 678.5,-2021 678.5,-2021 678.5,-2021 678.5,-2047.67 659.94,-2070.58 640.38,-2087.33"/>
<polygon fill="#0d1274" stroke="#0d1274" stroke-width="0.5" points="639.96,-2086.08 638.07,-2089.27 641.53,-2087.96 639.96,-2086.08"/>
<text text-anchor="middle" x="692.38" y="-1826.5" font-family="Arial" font-size="10.00" fill="#0d1274">1.29%</text>
<text text-anchor="middle" x="692.38" y="-1814.5" font-family="Arial" font-size="10.00" fill="#0d1274">1×</text>
</g>
<!-- 1551 -->
<g id="node6" class="node">
<title>1551</title>
<g id="a_node6"><a xlink:title="08_better_turtlesim.py">
<polygon fill="#ff0000" stroke="#ff0000" points="351.5,-1460 197.5,-1460 197.5,-1404 351.5,-1404 351.5,-1460"/>
<text text-anchor="middle" x="274.5" y="-1446.5" font-family="Arial" font-size="10.00" fill="#ffffff">08_better_turtlesim:1:&lt;module&gt;</text>
<text text-anchor="middle" x="274.5" y="-1434.5" font-family="Arial" font-size="10.00" fill="#ffffff">100.00%</text>
<text text-anchor="middle" x="274.5" y="-1422.5" font-family="Arial" font-size="10.00" fill="#ffffff">(0.00%)</text>
<text text-anchor="middle" x="274.5" y="-1410.5" font-family="Arial" font-size="10.00" fill="#ffffff">1×</text>
</a>
</g>
</g>
<!-- 304&#45;&gt;1551 -->
<g id="edge6" class="edge">
<title>304&#45;&gt;1551</title>
<path fill="none" stroke="#ff0000" stroke-width="4" d="M444.62,-1501.62C417.36,-1490.62 385.68,-1477.84 357.1,-1466.32"/>
<polygon fill="#ff0000" stroke="#ff0000" stroke-width="4" points="358.67,-1463.18 348.09,-1462.68 356.05,-1469.67 358.67,-1463.18"/>
<text text-anchor="middle" x="440.94" y="-1483.5" font-family="Arial" font-size="10.00" fill="#ff0000">100.00%</text>
<text text-anchor="middle" x="440.94" y="-1471.5" font-family="Arial" font-size="10.00" fill="#ff0000">1×</text>
</g>
<!-- 2944 -->
<g id="node7" class="node">
<title>2944</title>
<g id="a_node7"><a xlink:title="/home/dfki.uni&#45;bremen.de/ndahn/devel/workspaces/my_workspace/test_ws/install/better_launch/lib/python3.10/site&#45;packages/better_launch/__init__.py">
<polygon fill="#0d1375" stroke="#0d1375" points="648.75,-1460 544.25,-1460 544.25,-1404 648.75,-1404 648.75,-1460"/>
<text text-anchor="middle" x="596.5" y="-1446.5" font-family="Arial" font-size="10.00" fill="#ffffff">__init__:1:&lt;module&gt;</text>
<text text-anchor="middle" x="596.5" y="-1434.5" font-family="Arial" font-size="10.00" fill="#ffffff">1.44%</text>
<text text-anchor="middle" x="596.5" y="-1422.5" font-family="Arial" font-size="10.00" fill="#ffffff">(0.00%)</text>
<text text-anchor="middle" x="596.5" y="-1410.5" font-family="Arial" font-size="10.00" fill="#ffffff">1×</text>
</a>
</g>
</g>
<!-- 304&#45;&gt;2944 -->
<g id="edge7" class="edge">
<title>304&#45;&gt;2944</title>
<path fill="none" stroke="#0d1375" stroke-width="0.5" d="M536.35,-1501.75C546.81,-1489.79 559.13,-1475.7 569.89,-1463.41"/>
<polygon fill="#0d1375" stroke="#0d1375" stroke-width="0.5" points="570.71,-1464.33 572.1,-1460.89 568.87,-1462.72 570.71,-1464.33"/>
<text text-anchor="middle" x="578.37" y="-1483.5" font-family="Arial" font-size="10.00" fill="#0d1375">1.44%</text>
<text text-anchor="middle" x="578.37" y="-1471.5" font-family="Arial" font-size="10.00" fill="#0d1375">1×</text>
</g>
<!-- 1551&#45;&gt;1052 -->
<g id="edge21" class="edge">
<title>1551&#45;&gt;1052</title>
<path fill="none" stroke="#0d1375" stroke-width="0.5" d="M220.69,-1460.44C197.03,-1476.65 174.5,-1499.76 174.5,-1529 174.5,-1923 174.5,-1923 174.5,-1923 174.5,-1964.65 208.58,-1965.76 246.5,-1983 286.97,-2001.4 335.26,-2010.58 376.72,-2015.09"/>
<polygon fill="#0d1375" stroke="#0d1375" stroke-width="0.5" points="376.34,-2016.29 379.95,-2015.44 376.6,-2013.85 376.34,-2016.29"/>
<text text-anchor="middle" x="188.38" y="-1728.5" font-family="Arial" font-size="10.00" fill="#0d1375">1.45%</text>
<text text-anchor="middle" x="188.38" y="-1716.5" font-family="Arial" font-size="10.00" fill="#0d1375">1×</text>
</g>
<!-- 1550 -->
<g id="node24" class="node">
<title>1550</title>
<g id="a_node24"><a xlink:title="/home/dfki.uni&#45;bremen.de/ndahn/devel/workspaces/my_workspace/test_ws/install/better_launch/lib/python3.10/site&#45;packages/better_launch/wrapper.py">
<polygon fill="#fd0f00" stroke="#fd0f00" points="332.75,-1362 216.25,-1362 216.25,-1306 332.75,-1306 332.75,-1362"/>
<text text-anchor="middle" x="274.5" y="-1348.5" font-family="Arial" font-size="10.00" fill="#ffffff">wrapper:26:launch_this</text>
<text text-anchor="middle" x="274.5" y="-1336.5" font-family="Arial" font-size="10.00" fill="#ffffff">98.55%</text>
<text text-anchor="middle" x="274.5" y="-1324.5" font-family="Arial" font-size="10.00" fill="#ffffff">(0.00%)</text>
<text text-anchor="middle" x="274.5" y="-1312.5" font-family="Arial" font-size="10.00" fill="#ffffff">1×</text>
</a>
</g>
</g>
<!-- 1551&#45;&gt;1550 -->
<g id="edge22" class="edge">
<title>1551&#45;&gt;1550</title>
<path fill="none" stroke="#fd0f00" stroke-width="3.94" d="M274.5,-1403.75C274.5,-1395.74 274.5,-1386.78 274.5,-1378.04"/>
<polygon fill="#fd0f00" stroke="#fd0f00" stroke-width="3.94" points="277.97,-1378.18 274.5,-1368.28 271.04,-1378.18 277.97,-1378.18"/>
<text text-anchor="middle" x="291" y="-1385.5" font-family="Arial" font-size="10.00" fill="#fd0f00">98.55%</text>
<text text-anchor="middle" x="291" y="-1373.5" font-family="Arial" font-size="10.00" fill="#fd0f00">1×</text>
</g>
<!-- 2944&#45;&gt;1052 -->
<g id="edge34" class="edge">
<title>2944&#45;&gt;1052</title>
<path fill="none" stroke="#0d1375" stroke-width="0.5" d="M614.63,-1460.32C625.21,-1478.89 636.5,-1504.44 636.5,-1529 636.5,-1923 636.5,-1923 636.5,-1923 636.5,-1961.37 602.76,-1984.66 565.79,-1998.68"/>
<polygon fill="#0d1375" stroke="#0d1375" stroke-width="0.5" points="565.77,-1997.38 562.92,-1999.74 566.62,-1999.68 565.77,-1997.38"/>
<text text-anchor="middle" x="650.38" y="-1728.5" font-family="Arial" font-size="10.00" fill="#0d1375">1.42%</text>
<text text-anchor="middle" x="650.38" y="-1716.5" font-family="Arial" font-size="10.00" fill="#0d1375">2×</text>
</g>
<!-- 307 -->
<g id="node8" class="node">
<title>307</title>
<g id="a_node8"><a xlink:title="/home/dfki.uni&#45;bremen.de/ndahn/devel/workspaces/my_workspace/test_ws/install/better_launch/lib/python3.10/site&#45;packages/better_launch/wrapper.py">
<polygon fill="#fd0f00" stroke="#fd0f00" points="355.25,-1166 193.75,-1166 193.75,-1110 355.25,-1110 355.25,-1166"/>
<text text-anchor="middle" x="274.5" y="-1152.5" font-family="Arial" font-size="10.00" fill="#ffffff">wrapper:62:_launch_this_wrapper</text>
<text text-anchor="middle" x="274.5" y="-1140.5" font-family="Arial" font-size="10.00" fill="#ffffff">98.55%</text>
<text text-anchor="middle" x="274.5" y="-1128.5" font-family="Arial" font-size="10.00" fill="#ffffff">(0.00%)</text>
<text text-anchor="middle" x="274.5" y="-1116.5" font-family="Arial" font-size="10.00" fill="#ffffff">1×</text>
</a>
</g>
</g>
<!-- 889 -->
<g id="node9" class="node">
<title>889</title>
<g id="a_node9"><a xlink:title="/home/dfki.uni&#45;bremen.de/ndahn/miniforge3/lib/python3.10/site&#45;packages/click/core.py">
<polygon fill="#fc1100" stroke="#fc1100" points="315.88,-1068 233.12,-1068 233.12,-1012 315.88,-1012 315.88,-1068"/>
<text text-anchor="middle" x="274.5" y="-1054.5" font-family="Arial" font-size="10.00" fill="#ffffff">core:1010:main</text>
<text text-anchor="middle" x="274.5" y="-1042.5" font-family="Arial" font-size="10.00" fill="#ffffff">98.31%</text>
<text text-anchor="middle" x="274.5" y="-1030.5" font-family="Arial" font-size="10.00" fill="#ffffff">(0.00%)</text>
<text text-anchor="middle" x="274.5" y="-1018.5" font-family="Arial" font-size="10.00" fill="#ffffff">1×</text>
</a>
</g>
</g>
<!-- 307&#45;&gt;889 -->
<g id="edge8" class="edge">
<title>307&#45;&gt;889</title>
<path fill="none" stroke="#fc1100" stroke-width="3.93" d="M274.5,-1109.75C274.5,-1101.74 274.5,-1092.78 274.5,-1084.04"/>
<polygon fill="#fc1100" stroke="#fc1100" stroke-width="3.93" points="277.97,-1084.17 274.5,-1074.27 271.04,-1084.17 277.97,-1084.17"/>
<text text-anchor="middle" x="291" y="-1091.5" font-family="Arial" font-size="10.00" fill="#fc1100">98.31%</text>
<text text-anchor="middle" x="291" y="-1079.5" font-family="Arial" font-size="10.00" fill="#fc1100">1×</text>
</g>
<!-- 1570 -->
<g id="node22" class="node">
<title>1570</title>
<g id="a_node22"><a xlink:title="/home/dfki.uni&#45;bremen.de/ndahn/miniforge3/lib/python3.10/site&#45;packages/click/core.py">
<polygon fill="#fc1100" stroke="#fc1100" points="319.62,-970 229.38,-970 229.38,-914 319.62,-914 319.62,-970"/>
<text text-anchor="middle" x="274.5" y="-956.5" font-family="Arial" font-size="10.00" fill="#ffffff">core:1423:invoke</text>
<text text-anchor="middle" x="274.5" y="-944.5" font-family="Arial" font-size="10.00" fill="#ffffff">98.31%</text>
<text text-anchor="middle" x="274.5" y="-932.5" font-family="Arial" font-size="10.00" fill="#ffffff">(0.00%)</text>
<text text-anchor="middle" x="274.5" y="-920.5" font-family="Arial" font-size="10.00" fill="#ffffff">1×</text>
</a>
</g>
</g>
<!-- 889&#45;&gt;1570 -->
<g id="edge17" class="edge">
<title>889&#45;&gt;1570</title>
<path fill="none" stroke="#fc1100" stroke-width="3.93" d="M274.5,-1011.75C274.5,-1003.74 274.5,-994.78 274.5,-986.04"/>
<polygon fill="#fc1100" stroke="#fc1100" stroke-width="3.93" points="277.97,-986.17 274.5,-976.27 271.04,-986.17 277.97,-986.17"/>
<text text-anchor="middle" x="291" y="-993.5" font-family="Arial" font-size="10.00" fill="#fc1100">98.31%</text>
<text text-anchor="middle" x="291" y="-981.5" font-family="Arial" font-size="10.00" fill="#fc1100">1×</text>
</g>
<!-- 358 -->
<g id="node10" class="node">
<title>358</title>
<g id="a_node10"><a xlink:title="&lt;frozen importlib._bootstrap&gt;">
<polygon fill="#0d1475" stroke="#0d1475" points="622.5,-1852 444.5,-1852 444.5,-1796 622.5,-1796 622.5,-1852"/>
<text text-anchor="middle" x="533.5" y="-1838.5" font-family="Arial" font-size="10.00" fill="#ffffff">&lt;frozen importlib:664:_load_unlocked</text>
<text text-anchor="middle" x="533.5" y="-1826.5" font-family="Arial" font-size="10.00" fill="#ffffff">1.69%</text>
<text text-anchor="middle" x="533.5" y="-1814.5" font-family="Arial" font-size="10.00" fill="#ffffff">(0.01%)</text>
<text text-anchor="middle" x="533.5" y="-1802.5" font-family="Arial" font-size="10.00" fill="#ffffff">425×</text>
</a>
</g>
</g>
<!-- 3044 -->
<g id="node11" class="node">
<title>3044</title>
<g id="a_node11"><a xlink:title="&lt;frozen importlib._bootstrap_external&gt;">
<polygon fill="#0d1475" stroke="#0d1475" points="617.62,-1754 449.38,-1754 449.38,-1698 617.62,-1698 617.62,-1754"/>
<text text-anchor="middle" x="533.5" y="-1740.5" font-family="Arial" font-size="10.00" fill="#ffffff">&lt;frozen importlib:877:exec_module</text>
<text text-anchor="middle" x="533.5" y="-1728.5" font-family="Arial" font-size="10.00" fill="#ffffff">1.69%</text>
<text text-anchor="middle" x="533.5" y="-1716.5" font-family="Arial" font-size="10.00" fill="#ffffff">(0.00%)</text>
<text text-anchor="middle" x="533.5" y="-1704.5" font-family="Arial" font-size="10.00" fill="#ffffff">386×</text>
</a>
</g>
</g>
<!-- 358&#45;&gt;3044 -->
<g id="edge9" class="edge">
<title>358&#45;&gt;3044</title>
<path fill="none" stroke="#0d1475" stroke-width="0.5" d="M533.5,-1795.75C533.5,-1784.09 533.5,-1770.42 533.5,-1758.35"/>
<polygon fill="#0d1475" stroke="#0d1475" stroke-width="0.5" points="534.73,-1758.58 533.5,-1755.08 532.28,-1758.58 534.73,-1758.58"/>
<text text-anchor="middle" x="547.38" y="-1777.5" font-family="Arial" font-size="10.00" fill="#0d1475">1.69%</text>
<text text-anchor="middle" x="547.38" y="-1765.5" font-family="Arial" font-size="10.00" fill="#0d1475">4×</text>
</g>
<!-- 3044&#45;&gt;249 -->
<g id="edge35" class="edge">
<title>3044&#45;&gt;249</title>
<path fill="none" stroke="#0d1475" stroke-width="0.5" d="M494.26,-1697.53C477.78,-1686.64 458.14,-1674.48 439.5,-1665 434.87,-1662.65 430.05,-1660.34 425.15,-1658.12"/>
<polygon fill="#0d1475" stroke="#0d1475" stroke-width="0.5" points="425.77,-1657.05 422.07,-1656.74 424.76,-1659.29 425.77,-1657.05"/>
<text text-anchor="middle" x="493.16" y="-1679.5" font-family="Arial" font-size="10.00" fill="#0d1475">1.68%</text>
<text text-anchor="middle" x="493.16" y="-1667.5" font-family="Arial" font-size="10.00" fill="#0d1475">4×</text>
</g>
<!-- 581 -->
<g id="node15" class="node">
<title>581</title>
<g id="a_node15"><a xlink:title="&lt;frozen importlib._bootstrap_external&gt;">
<polygon fill="#0d0f74" stroke="#0d0f74" points="622.62,-1656 472.38,-1656 472.38,-1600 622.62,-1600 622.62,-1656"/>
<text text-anchor="middle" x="547.5" y="-1642.5" font-family="Arial" font-size="10.00" fill="#ffffff">&lt;frozen importlib:950:get_code</text>
<text text-anchor="middle" x="547.5" y="-1630.5" font-family="Arial" font-size="10.00" fill="#ffffff">0.62%</text>
<text text-anchor="middle" x="547.5" y="-1618.5" font-family="Arial" font-size="10.00" fill="#ffffff">(0.01%)</text>
<text text-anchor="middle" x="547.5" y="-1606.5" font-family="Arial" font-size="10.00" fill="#ffffff">386×</text>
</a>
</g>
</g>
<!-- 3044&#45;&gt;581 -->
<g id="edge36" class="edge">
<title>3044&#45;&gt;581</title>
<path fill="none" stroke="#0d0f74" stroke-width="0.5" d="M537.47,-1697.75C539.17,-1686.09 541.17,-1672.42 542.93,-1660.35"/>
<polygon fill="#0d0f74" stroke="#0d0f74" stroke-width="0.5" points="544.11,-1660.71 543.41,-1657.07 541.69,-1660.36 544.11,-1660.71"/>
<text text-anchor="middle" x="556.04" y="-1679.5" font-family="Arial" font-size="10.00" fill="#0d0f74">0.62%</text>
<text text-anchor="middle" x="556.04" y="-1667.5" font-family="Arial" font-size="10.00" fill="#0d0f74">386×</text>
</g>
<!-- 359 -->
<g id="node12" class="node">
<title>359</title>
<g id="a_node12"><a xlink:title="&lt;frozen importlib._bootstrap&gt;">
<polygon fill="#0d0f73" stroke="#0d0f73" points="418,-1754 231,-1754 231,-1698 418,-1698 418,-1754"/>
<text text-anchor="middle" x="324.5" y="-1740.5" font-family="Arial" font-size="10.00" fill="#ffffff">&lt;frozen importlib:1053:_handle_fromlist</text>
<text text-anchor="middle" x="324.5" y="-1728.5" font-family="Arial" font-size="10.00" fill="#ffffff">0.56%</text>
<text text-anchor="middle" x="324.5" y="-1716.5" font-family="Arial" font-size="10.00" fill="#ffffff">(0.00%)</text>
<text text-anchor="middle" x="324.5" y="-1704.5" font-family="Arial" font-size="10.00" fill="#ffffff">467×</text>
</a>
</g>
</g>
<!-- 359&#45;&gt;249 -->
<g id="edge10" class="edge">
<title>359&#45;&gt;249</title>
<path fill="none" stroke="#0d0f73" stroke-width="0.5" d="M331.03,-1697.75C333.82,-1686.09 337.1,-1672.42 339.99,-1660.35"/>
<polygon fill="#0d0f73" stroke="#0d0f73" stroke-width="0.5" points="341.15,-1660.75 340.78,-1657.06 338.77,-1660.18 341.15,-1660.75"/>
<text text-anchor="middle" x="352.61" y="-1679.5" font-family="Arial" font-size="10.00" fill="#0d0f73">0.55%</text>
<text text-anchor="middle" x="352.61" y="-1667.5" font-family="Arial" font-size="10.00" fill="#0d0f73">40×</text>
</g>
<!-- 380 -->
<g id="node13" class="node">
<title>380</title>
<g id="a_node13"><a xlink:title="/home/dfki.uni&#45;bremen.de/ndahn/miniforge3/lib/python3.10/site&#45;packages/click/core.py">
<polygon fill="#fc1100" stroke="#fc1100" points="317,-872 232,-872 232,-816 317,-816 317,-872"/>
<text text-anchor="middle" x="274.5" y="-858.5" font-family="Arial" font-size="10.00" fill="#ffffff">core:732:invoke</text>
<text text-anchor="middle" x="274.5" y="-846.5" font-family="Arial" font-size="10.00" fill="#ffffff">98.31%</text>
<text text-anchor="middle" x="274.5" y="-834.5" font-family="Arial" font-size="10.00" fill="#ffffff">(0.00%)</text>
<text text-anchor="middle" x="274.5" y="-822.5" font-family="Arial" font-size="10.00" fill="#ffffff">1×</text>
</a>
</g>
</g>
<!-- 1559 -->
<g id="node14" class="node">
<title>1559</title>
<g id="a_node14"><a xlink:title="/home/dfki.uni&#45;bremen.de/ndahn/miniforge3/lib/python3.10/site&#45;packages/click/decorators.py">
<polygon fill="#fc1100" stroke="#fc1100" points="334.62,-774 214.38,-774 214.38,-718 334.62,-718 334.62,-774"/>
<text text-anchor="middle" x="274.5" y="-760.5" font-family="Arial" font-size="10.00" fill="#ffffff">decorators:32:new_func</text>
<text text-anchor="middle" x="274.5" y="-748.5" font-family="Arial" font-size="10.00" fill="#ffffff">98.31%</text>
<text text-anchor="middle" x="274.5" y="-736.5" font-family="Arial" font-size="10.00" fill="#ffffff">(0.00%)</text>
<text text-anchor="middle" x="274.5" y="-724.5" font-family="Arial" font-size="10.00" fill="#ffffff">1×</text>
</a>
</g>
</g>
<!-- 380&#45;&gt;1559 -->
<g id="edge11" class="edge">
<title>380&#45;&gt;1559</title>
<path fill="none" stroke="#fc1100" stroke-width="3.93" d="M274.5,-815.75C274.5,-807.74 274.5,-798.78 274.5,-790.04"/>
<polygon fill="#fc1100" stroke="#fc1100" stroke-width="3.93" points="277.97,-790.17 274.5,-780.27 271.04,-790.17 277.97,-790.17"/>
<text text-anchor="middle" x="291" y="-797.5" font-family="Arial" font-size="10.00" fill="#fc1100">98.31%</text>
<text text-anchor="middle" x="291" y="-785.5" font-family="Arial" font-size="10.00" fill="#fc1100">1×</text>
</g>
<!-- 1558 -->
<g id="node28" class="node">
<title>1558</title>
<g id="a_node28"><a xlink:title="/home/dfki.uni&#45;bremen.de/ndahn/devel/workspaces/my_workspace/test_ws/install/better_launch/lib/python3.10/site&#45;packages/better_launch/wrapper.py">
<polygon fill="#fc1100" stroke="#fc1100" points="317.38,-676 231.62,-676 231.62,-620 317.38,-620 317.38,-676"/>
<text text-anchor="middle" x="274.5" y="-662.5" font-family="Arial" font-size="10.00" fill="#ffffff">wrapper:233:run</text>
<text text-anchor="middle" x="274.5" y="-650.5" font-family="Arial" font-size="10.00" fill="#ffffff">98.31%</text>
<text text-anchor="middle" x="274.5" y="-638.5" font-family="Arial" font-size="10.00" fill="#ffffff">(0.00%)</text>
<text text-anchor="middle" x="274.5" y="-626.5" font-family="Arial" font-size="10.00" fill="#ffffff">1×</text>
</a>
</g>
</g>
<!-- 1559&#45;&gt;1558 -->
<g id="edge26" class="edge">
<title>1559&#45;&gt;1558</title>
<path fill="none" stroke="#fc1100" stroke-width="3.93" d="M274.5,-717.75C274.5,-709.74 274.5,-700.78 274.5,-692.04"/>
<polygon fill="#fc1100" stroke="#fc1100" stroke-width="3.93" points="277.97,-692.17 274.5,-682.27 271.04,-692.17 277.97,-692.17"/>
<text text-anchor="middle" x="291" y="-699.5" font-family="Arial" font-size="10.00" fill="#fc1100">98.31%</text>
<text text-anchor="middle" x="291" y="-687.5" font-family="Arial" font-size="10.00" fill="#fc1100">1×</text>
</g>
<!-- 605&#45;&gt;249 -->
<g id="edge12" class="edge">
<title>605&#45;&gt;249</title>
<path fill="none" stroke="#0d0e73" stroke-width="0.5" d="M456.82,-1893.52C450.84,-1881.16 444.41,-1866.18 440.5,-1852 422.17,-1785.57 453.81,-1759.39 422.5,-1698 414.94,-1683.18 402.82,-1669.94 390.5,-1659.11"/>
<polygon fill="#0d0e73" stroke="#0d0e73" stroke-width="0.5" points="391.39,-1658.26 387.94,-1656.91 389.79,-1660.12 391.39,-1658.26"/>
<text text-anchor="middle" x="450.82" y="-1777.5" font-family="Arial" font-size="10.00" fill="#0d0e73">0.35%</text>
<text text-anchor="middle" x="450.82" y="-1765.5" font-family="Arial" font-size="10.00" fill="#0d0e73">15×</text>
</g>
<!-- 605&#45;&gt;358 -->
<g id="edge13" class="edge">
<title>605&#45;&gt;358</title>
<path fill="none" stroke="#0d1475" stroke-width="0.5" d="M489.1,-1893.75C496.76,-1881.89 505.77,-1867.94 513.66,-1855.72"/>
<polygon fill="#0d1475" stroke="#0d1475" stroke-width="0.5" points="514.57,-1856.56 515.44,-1852.96 512.52,-1855.23 514.57,-1856.56"/>
<text text-anchor="middle" x="523.75" y="-1875.5" font-family="Arial" font-size="10.00" fill="#0d1475">1.69%</text>
<text text-anchor="middle" x="523.75" y="-1863.5" font-family="Arial" font-size="10.00" fill="#0d1475">7×</text>
</g>
<!-- 722 -->
<g id="node17" class="node">
<title>722</title>
<g id="a_node17"><a xlink:title="~">
<polygon fill="#fa2501" stroke="#fa2501" points="454,-154 231,-154 231,-98 454,-98 454,-154"/>
<text text-anchor="middle" x="342.5" y="-140.5" font-family="Arial" font-size="10.00" fill="#ffffff">~:0:&lt;method &#39;acquire&#39; of &#39;_thread.lock&#39; objects&gt;</text>
<text text-anchor="middle" x="342.5" y="-128.5" font-family="Arial" font-size="10.00" fill="#ffffff">96.42%</text>
<text text-anchor="middle" x="342.5" y="-116.5" font-family="Arial" font-size="10.00" fill="#ffffff">(96.40%)</text>
<text text-anchor="middle" x="342.5" y="-104.5" font-family="Arial" font-size="10.00" fill="#ffffff">22×</text>
</a>
</g>
</g>
<!-- 728 -->
<g id="node18" class="node">
<title>728</title>
<g id="a_node18"><a xlink:title="/home/dfki.uni&#45;bremen.de/ndahn/miniforge3/lib/python3.10/threading.py">
<polygon fill="#f92501" stroke="#f92501" points="430,-284 255,-284 255,-228 430,-228 430,-284"/>
<text text-anchor="middle" x="342.5" y="-270.5" font-family="Arial" font-size="10.00" fill="#ffffff">threading:1102:_wait_for_tstate_lock</text>
<text text-anchor="middle" x="342.5" y="-258.5" font-family="Arial" font-size="10.00" fill="#ffffff">96.39%</text>
<text text-anchor="middle" x="342.5" y="-246.5" font-family="Arial" font-size="10.00" fill="#ffffff">(0.00%)</text>
<text text-anchor="middle" x="342.5" y="-234.5" font-family="Arial" font-size="10.00" fill="#ffffff">3×</text>
</a>
</g>
</g>
<!-- 728&#45;&gt;722 -->
<g id="edge14" class="edge">
<title>728&#45;&gt;722</title>
<path fill="none" stroke="#f92501" stroke-width="3.86" d="M342.5,-227.54C342.5,-210.75 342.5,-188.92 342.5,-169.89"/>
<polygon fill="#f92501" stroke="#f92501" stroke-width="3.86" points="345.93,-170.06 342.5,-160.26 339.07,-170.06 345.93,-170.06"/>
<text text-anchor="middle" x="359" y="-193.5" font-family="Arial" font-size="10.00" fill="#f92501">96.39%</text>
<text text-anchor="middle" x="359" y="-181.5" font-family="Arial" font-size="10.00" fill="#f92501">1×</text>
</g>
<!-- 777 -->
<g id="node19" class="node">
<title>777</title>
<g id="a_node19"><a xlink:title="/home/dfki.uni&#45;bremen.de/ndahn/devel/workspaces/my_workspace/test_ws/install/better_launch/lib/python3.10/site&#45;packages/better_launch/elements/lifecycle_manager.py">
<polygon fill="#0d0f74" stroke="#0d0f74" points="176.5,-154 16.5,-154 16.5,-98 176.5,-98 176.5,-154"/>
<text text-anchor="middle" x="96.5" y="-140.5" font-family="Arial" font-size="10.00" fill="#ffffff">lifecycle_manager:54:is_lifecycle</text>
<text text-anchor="middle" x="96.5" y="-128.5" font-family="Arial" font-size="10.00" fill="#ffffff">0.67%</text>
<text text-anchor="middle" x="96.5" y="-116.5" font-family="Arial" font-size="10.00" fill="#ffffff">(0.00%)</text>
<text text-anchor="middle" x="96.5" y="-104.5" font-family="Arial" font-size="10.00" fill="#ffffff">1×</text>
</a>
</g>
</g>
<!-- 779 -->
<g id="node20" class="node">
<title>779</title>
<g id="a_node20"><a xlink:title="~">
<polygon fill="#0d1274" stroke="#0d1274" points="224,-56 67,-56 67,0 224,0 224,-56"/>
<text text-anchor="middle" x="145.5" y="-42.5" font-family="Arial" font-size="10.00" fill="#ffffff">~:0:&lt;built&#45;in method time.sleep&gt;</text>
<text text-anchor="middle" x="145.5" y="-30.5" font-family="Arial" font-size="10.00" fill="#ffffff">1.33%</text>
<text text-anchor="middle" x="145.5" y="-18.5" font-family="Arial" font-size="10.00" fill="#ffffff">(1.33%)</text>
<text text-anchor="middle" x="145.5" y="-6.5" font-family="Arial" font-size="10.00" fill="#ffffff">2×</text>
</a>
</g>
</g>
<!-- 777&#45;&gt;779 -->
<g id="edge15" class="edge">
<title>777&#45;&gt;779</title>
<path fill="none" stroke="#0d0f74" stroke-width="0.5" d="M110.41,-97.75C116.41,-85.99 123.46,-72.18 129.66,-60.03"/>
<polygon fill="#0d0f74" stroke="#0d0f74" stroke-width="0.5" points="130.71,-60.67 131.21,-57 128.53,-59.56 130.71,-60.67"/>
<text text-anchor="middle" x="140.7" y="-79.5" font-family="Arial" font-size="10.00" fill="#0d0f74">0.67%</text>
<text text-anchor="middle" x="140.7" y="-67.5" font-family="Arial" font-size="10.00" fill="#0d0f74">1×</text>
</g>
<!-- 778 -->
<g id="node21" class="node">
<title>778</title>
<g id="a_node21"><a xlink:title="/home/dfki.uni&#45;bremen.de/ndahn/devel/workspaces/my_workspace/test_ws/install/better_launch/lib/python3.10/site&#45;packages/better_launch/elements/abstract_node.py">
<polygon fill="#0d0f74" stroke="#0d0f74" points="318.38,-219 118.62,-219 118.62,-163 318.38,-163 318.38,-219"/>
<text text-anchor="middle" x="218.5" y="-205.5" font-family="Arial" font-size="10.00" fill="#ffffff">abstract_node:206:check_ros2_connected</text>
<text text-anchor="middle" x="218.5" y="-193.5" font-family="Arial" font-size="10.00" fill="#ffffff">0.67%</text>
<text text-anchor="middle" x="218.5" y="-181.5" font-family="Arial" font-size="10.00" fill="#ffffff">(0.00%)</text>
<text text-anchor="middle" x="218.5" y="-169.5" font-family="Arial" font-size="10.00" fill="#ffffff">1×</text>
</a>
</g>
</g>
<!-- 778&#45;&gt;779 -->
<g id="edge16" class="edge">
<title>778&#45;&gt;779</title>
<path fill="none" stroke="#0d0f74" stroke-width="0.5" d="M202.86,-162.75C201.4,-159.83 200,-156.88 198.75,-154 188.35,-129.98 190.51,-122.19 180.5,-98 175.24,-85.29 168.59,-71.71 162.5,-59.98"/>
<polygon fill="#0d0f74" stroke="#0d0f74" stroke-width="0.5" points="163.69,-59.61 160.98,-57.08 161.52,-60.75 163.69,-59.61"/>
<text text-anchor="middle" x="212.62" y="-128.5" font-family="Arial" font-size="10.00" fill="#0d0f74">0.67%</text>
<text text-anchor="middle" x="212.62" y="-116.5" font-family="Arial" font-size="10.00" fill="#0d0f74">1×</text>
</g>
<!-- 1570&#45;&gt;380 -->
<g id="edge27" class="edge">
<title>1570&#45;&gt;380</title>
<path fill="none" stroke="#fc1100" stroke-width="3.93" d="M274.5,-913.75C274.5,-905.74 274.5,-896.78 274.5,-888.04"/>
<polygon fill="#fc1100" stroke="#fc1100" stroke-width="3.93" points="277.97,-888.17 274.5,-878.27 271.04,-888.17 277.97,-888.17"/>
<text text-anchor="middle" x="291" y="-895.5" font-family="Arial" font-size="10.00" fill="#fc1100">98.31%</text>
<text text-anchor="middle" x="291" y="-883.5" font-family="Arial" font-size="10.00" fill="#fc1100">1×</text>
</g>
<!-- 1549 -->
<g id="node23" class="node">
<title>1549</title>
<g id="a_node23"><a xlink:title="/home/dfki.uni&#45;bremen.de/ndahn/devel/workspaces/my_workspace/test_ws/install/better_launch/lib/python3.10/site&#45;packages/better_launch/wrapper.py">
<polygon fill="#fd0f00" stroke="#fd0f00" points="346.25,-1264 202.75,-1264 202.75,-1208 346.25,-1208 346.25,-1264"/>
<text text-anchor="middle" x="274.5" y="-1250.5" font-family="Arial" font-size="10.00" fill="#ffffff">wrapper:56:decoration_helper</text>
<text text-anchor="middle" x="274.5" y="-1238.5" font-family="Arial" font-size="10.00" fill="#ffffff">98.55%</text>
<text text-anchor="middle" x="274.5" y="-1226.5" font-family="Arial" font-size="10.00" fill="#ffffff">(0.00%)</text>
<text text-anchor="middle" x="274.5" y="-1214.5" font-family="Arial" font-size="10.00" fill="#ffffff">1×</text>
</a>
</g>
</g>
<!-- 1549&#45;&gt;307 -->
<g id="edge19" class="edge">
<title>1549&#45;&gt;307</title>
<path fill="none" stroke="#fd0f00" stroke-width="3.94" d="M274.5,-1207.75C274.5,-1199.74 274.5,-1190.78 274.5,-1182.04"/>
<polygon fill="#fd0f00" stroke="#fd0f00" stroke-width="3.94" points="277.97,-1182.18 274.5,-1172.28 271.04,-1182.18 277.97,-1182.18"/>
<text text-anchor="middle" x="291" y="-1189.5" font-family="Arial" font-size="10.00" fill="#fd0f00">98.55%</text>
<text text-anchor="middle" x="291" y="-1177.5" font-family="Arial" font-size="10.00" fill="#fd0f00">1×</text>
</g>
<!-- 1550&#45;&gt;1549 -->
<g id="edge20" class="edge">
<title>1550&#45;&gt;1549</title>
<path fill="none" stroke="#fd0f00" stroke-width="3.94" d="M274.5,-1305.75C274.5,-1297.74 274.5,-1288.78 274.5,-1280.04"/>
<polygon fill="#fd0f00" stroke="#fd0f00" stroke-width="3.94" points="277.97,-1280.18 274.5,-1270.28 271.04,-1280.18 277.97,-1280.18"/>
<text text-anchor="middle" x="291" y="-1287.5" font-family="Arial" font-size="10.00" fill="#fd0f00">98.55%</text>
<text text-anchor="middle" x="291" y="-1275.5" font-family="Arial" font-size="10.00" fill="#fd0f00">1×</text>
</g>
<!-- 1557 -->
<g id="node25" class="node">
<title>1557</title>
<g id="a_node25"><a xlink:title="/home/dfki.uni&#45;bremen.de/ndahn/devel/workspaces/my_workspace/test_ws/install/better_launch/lib/python3.10/site&#45;packages/better_launch/wrapper.py">
<polygon fill="#fc1200" stroke="#fc1200" points="356.75,-578 192.25,-578 192.25,-522 356.75,-522 356.75,-578"/>
<text text-anchor="middle" x="274.5" y="-564.5" font-family="Arial" font-size="10.00" fill="#ffffff">wrapper:250:launch_func_wrapper</text>
<text text-anchor="middle" x="274.5" y="-552.5" font-family="Arial" font-size="10.00" fill="#ffffff">98.31%</text>
<text text-anchor="middle" x="274.5" y="-540.5" font-family="Arial" font-size="10.00" fill="#ffffff">(0.00%)</text>
<text text-anchor="middle" x="274.5" y="-528.5" font-family="Arial" font-size="10.00" fill="#ffffff">1×</text>
</a>
</g>
</g>
<!-- 2723 -->
<g id="node26" class="node">
<title>2723</title>
<g id="a_node26"><a xlink:title="08_better_turtlesim.py">
<polygon fill="#0d1575" stroke="#0d1575" points="286.75,-480 128.25,-480 128.25,-424 286.75,-424 286.75,-480"/>
<text text-anchor="middle" x="207.5" y="-466.5" font-family="Arial" font-size="10.00" fill="#ffffff">08_better_turtlesim:3:great_atuin</text>
<text text-anchor="middle" x="207.5" y="-454.5" font-family="Arial" font-size="10.00" fill="#ffffff">1.91%</text>
<text text-anchor="middle" x="207.5" y="-442.5" font-family="Arial" font-size="10.00" fill="#ffffff">(0.00%)</text>
<text text-anchor="middle" x="207.5" y="-430.5" font-family="Arial" font-size="10.00" fill="#ffffff">1×</text>
</a>
</g>
</g>
<!-- 1557&#45;&gt;2723 -->
<g id="edge23" class="edge">
<title>1557&#45;&gt;2723</title>
<path fill="none" stroke="#0d1575" stroke-width="0.5" d="M255.48,-521.75C247.2,-509.89 237.47,-495.94 228.94,-483.72"/>
<polygon fill="#0d1575" stroke="#0d1575" stroke-width="0.5" points="230.01,-483.11 227,-480.94 228,-484.51 230.01,-483.11"/>
<text text-anchor="middle" x="262.85" y="-503.5" font-family="Arial" font-size="10.00" fill="#0d1575">1.91%</text>
<text text-anchor="middle" x="262.85" y="-491.5" font-family="Arial" font-size="10.00" fill="#0d1575">1×</text>
</g>
<!-- 2753 -->
<g id="node27" class="node">
<title>2753</title>
<g id="a_node27"><a xlink:title="/home/dfki.uni&#45;bremen.de/ndahn/devel/workspaces/my_workspace/test_ws/install/better_launch/lib/python3.10/site&#45;packages/better_launch/launcher.py">
<polygon fill="#f92501" stroke="#f92501" points="388.75,-480 296.25,-480 296.25,-424 388.75,-424 388.75,-480"/>
<text text-anchor="middle" x="342.5" y="-466.5" font-family="Arial" font-size="10.00" fill="#ffffff">launcher:198:spin</text>
<text text-anchor="middle" x="342.5" y="-454.5" font-family="Arial" font-size="10.00" fill="#ffffff">96.39%</text>
<text text-anchor="middle" x="342.5" y="-442.5" font-family="Arial" font-size="10.00" fill="#ffffff">(0.00%)</text>
<text text-anchor="middle" x="342.5" y="-430.5" font-family="Arial" font-size="10.00" fill="#ffffff">1×</text>
</a>
</g>
</g>
<!-- 1557&#45;&gt;2753 -->
<g id="edge24" class="edge">
<title>1557&#45;&gt;2753</title>
<path fill="none" stroke="#f92501" stroke-width="3.86" d="M293.8,-521.75C300.12,-512.83 307.28,-502.73 314.12,-493.07"/>
<polygon fill="#f92501" stroke="#f92501" stroke-width="3.86" points="316.9,-495.07 319.77,-485.09 311.31,-491.1 316.9,-495.07"/>
<text text-anchor="middle" x="333.09" y="-503.5" font-family="Arial" font-size="10.00" fill="#f92501">96.39%</text>
<text text-anchor="middle" x="333.09" y="-491.5" font-family="Arial" font-size="10.00" fill="#f92501">1×</text>
</g>
<!-- 2034 -->
<g id="node30" class="node">
<title>2034</title>
<g id="a_node30"><a xlink:title="/home/dfki.uni&#45;bremen.de/ndahn/devel/workspaces/my_workspace/test_ws/install/better_launch/lib/python3.10/site&#45;packages/better_launch/launcher.py">
<polygon fill="#0d1375" stroke="#0d1375" points="257.88,-382 157.12,-382 157.12,-326 257.88,-326 257.88,-382"/>
<text text-anchor="middle" x="207.5" y="-368.5" font-family="Arial" font-size="10.00" fill="#ffffff">launcher:1087:node</text>
<text text-anchor="middle" x="207.5" y="-356.5" font-family="Arial" font-size="10.00" fill="#ffffff">1.55%</text>
<text text-anchor="middle" x="207.5" y="-344.5" font-family="Arial" font-size="10.00" fill="#ffffff">(0.00%)</text>
<text text-anchor="middle" x="207.5" y="-332.5" font-family="Arial" font-size="10.00" fill="#ffffff">1×</text>
</a>
</g>
</g>
<!-- 2723&#45;&gt;2034 -->
<g id="edge31" class="edge">
<title>2723&#45;&gt;2034</title>
<path fill="none" stroke="#0d1375" stroke-width="0.5" d="M207.5,-423.75C207.5,-412.09 207.5,-398.42 207.5,-386.35"/>
<polygon fill="#0d1375" stroke="#0d1375" stroke-width="0.5" points="208.73,-386.58 207.5,-383.08 206.28,-386.58 208.73,-386.58"/>
<text text-anchor="middle" x="221.38" y="-405.5" font-family="Arial" font-size="10.00" fill="#0d1375">1.55%</text>
<text text-anchor="middle" x="221.38" y="-393.5" font-family="Arial" font-size="10.00" fill="#0d1375">1×</text>
</g>
<!-- 2747 -->
<g id="node31" class="node">
<title>2747</title>
<g id="a_node31"><a xlink:title="/home/dfki.uni&#45;bremen.de/ndahn/miniforge3/lib/python3.10/threading.py">
<polygon fill="#f92501" stroke="#f92501" points="391.38,-382 293.62,-382 293.62,-326 391.38,-326 391.38,-382"/>
<text text-anchor="middle" x="342.5" y="-368.5" font-family="Arial" font-size="10.00" fill="#ffffff">threading:1064:join</text>
<text text-anchor="middle" x="342.5" y="-356.5" font-family="Arial" font-size="10.00" fill="#ffffff">96.39%</text>
<text text-anchor="middle" x="342.5" y="-344.5" font-family="Arial" font-size="10.00" fill="#ffffff">(0.00%)</text>
<text text-anchor="middle" x="342.5" y="-332.5" font-family="Arial" font-size="10.00" fill="#ffffff">2×</text>
</a>
</g>
</g>
<!-- 2753&#45;&gt;2747 -->
<g id="edge33" class="edge">
<title>2753&#45;&gt;2747</title>
<path fill="none" stroke="#f92501" stroke-width="3.86" d="M342.5,-423.75C342.5,-415.64 342.5,-406.56 342.5,-397.71"/>
<polygon fill="#f92501" stroke="#f92501" stroke-width="3.86" points="345.93,-397.96 342.5,-388.16 339.07,-397.96 345.93,-397.96"/>
<text text-anchor="middle" x="359" y="-405.5" font-family="Arial" font-size="10.00" fill="#f92501">96.39%</text>
<text text-anchor="middle" x="359" y="-393.5" font-family="Arial" font-size="10.00" fill="#f92501">1×</text>
</g>
<!-- 1558&#45;&gt;1557 -->
<g id="edge25" class="edge">
<title>1558&#45;&gt;1557</title>
<path fill="none" stroke="#fc1200" stroke-width="3.93" d="M274.5,-619.75C274.5,-611.74 274.5,-602.78 274.5,-594.04"/>
<polygon fill="#fc1200" stroke="#fc1200" stroke-width="3.93" points="277.97,-594.17 274.5,-584.27 271.04,-594.17 277.97,-594.17"/>
<text text-anchor="middle" x="291" y="-601.5" font-family="Arial" font-size="10.00" fill="#fc1200">98.31%</text>
<text text-anchor="middle" x="291" y="-589.5" font-family="Arial" font-size="10.00" fill="#fc1200">1×</text>
</g>
<!-- 2033 -->
<g id="node29" class="node">
<title>2033</title>
<g id="a_node29"><a xlink:title="/home/dfki.uni&#45;bremen.de/ndahn/devel/workspaces/my_workspace/test_ws/install/better_launch/lib/python3.10/site&#45;packages/better_launch/elements/abstract_node.py">
<polygon fill="#0d0f74" stroke="#0d0f74" points="193,-284 0,-284 0,-228 193,-228 193,-284"/>
<text text-anchor="middle" x="96.5" y="-270.5" font-family="Arial" font-size="10.00" fill="#ffffff">abstract_node:246:check_lifecycle_node</text>
<text text-anchor="middle" x="96.5" y="-258.5" font-family="Arial" font-size="10.00" fill="#ffffff">0.67%</text>
<text text-anchor="middle" x="96.5" y="-246.5" font-family="Arial" font-size="10.00" fill="#ffffff">(0.00%)</text>
<text text-anchor="middle" x="96.5" y="-234.5" font-family="Arial" font-size="10.00" fill="#ffffff">1×</text>
</a>
</g>
</g>
<!-- 2033&#45;&gt;777 -->
<g id="edge28" class="edge">
<title>2033&#45;&gt;777</title>
<path fill="none" stroke="#0d0f74" stroke-width="0.5" d="M88.29,-227.64C87.66,-224.74 87.13,-221.82 86.75,-219 83.47,-194.33 83.47,-187.67 86.75,-163 86.95,-161.5 87.19,-159.97 87.47,-158.44"/>
<polygon fill="#0d0f74" stroke="#0d0f74" stroke-width="0.5" points="88.65,-158.78 88.14,-155.11 86.25,-158.3 88.65,-158.78"/>
<text text-anchor="middle" x="100.62" y="-193.5" font-family="Arial" font-size="10.00" fill="#0d0f74">0.67%</text>
<text text-anchor="middle" x="100.62" y="-181.5" font-family="Arial" font-size="10.00" fill="#0d0f74">1×</text>
</g>
<!-- 2034&#45;&gt;778 -->
<g id="edge29" class="edge">
<title>2034&#45;&gt;778</title>
<path fill="none" stroke="#0d0f74" stroke-width="0.5" d="M209.37,-325.69C211.3,-297.35 214.32,-253.11 216.36,-223.36"/>
<polygon fill="#0d0f74" stroke="#0d0f74" stroke-width="0.5" points="217.56,-223.78 216.57,-220.2 215.11,-223.61 217.56,-223.78"/>
<text text-anchor="middle" x="225.25" y="-307.5" font-family="Arial" font-size="10.00" fill="#0d0f74">0.67%</text>
<text text-anchor="middle" x="225.25" y="-295.5" font-family="Arial" font-size="10.00" fill="#0d0f74">1×</text>
</g>
<!-- 2034&#45;&gt;2033 -->
<g id="edge30" class="edge">
<title>2034&#45;&gt;2033</title>
<path fill="none" stroke="#0d0f74" stroke-width="0.5" d="M175.99,-325.75C162.05,-313.69 145.6,-299.46 131.3,-287.09"/>
<polygon fill="#0d0f74" stroke="#0d0f74" stroke-width="0.5" points="132.11,-286.18 128.66,-284.82 130.51,-288.03 132.11,-286.18"/>
<text text-anchor="middle" x="179.08" y="-307.5" font-family="Arial" font-size="10.00" fill="#0d0f74">0.67%</text>
<text text-anchor="middle" x="179.08" y="-295.5" font-family="Arial" font-size="10.00" fill="#0d0f74">1×</text>
</g>
<!-- 2747&#45;&gt;728 -->
<g id="edge32" class="edge">
<title>2747&#45;&gt;728</title>
<path fill="none" stroke="#f92501" stroke-width="3.86" d="M342.5,-325.75C342.5,-317.64 342.5,-308.56 342.5,-299.71"/>
<polygon fill="#f92501" stroke="#f92501" stroke-width="3.86" points="345.93,-299.96 342.5,-290.16 339.07,-299.96 345.93,-299.96"/>
<text text-anchor="middle" x="359" y="-307.5" font-family="Arial" font-size="10.00" fill="#f92501">96.39%</text>
<text text-anchor="middle" x="359" y="-295.5" font-family="Arial" font-size="10.00" fill="#f92501">1×</text>
</g>
</g>
</svg>
