<?xml version="1.0" encoding="UTF-8" standalone="no"?>
<!DOCTYPE svg PUBLIC "-//W3C//DTD SVG 1.1//EN"
 "http://www.w3.org/Graphics/SVG/1.1/DTD/svg11.dtd">
<!-- Generated by graphviz version 12.2.1 (20250203.1708)
 -->
<!-- Pages: 1 -->
<svg width="747pt" height="1632pt"
 viewBox="0.00 0.00 747.38 1632.00" xmlns="http://www.w3.org/2000/svg" xmlns:xlink="http://www.w3.org/1999/xlink">
<g id="graph0" class="graph" transform="scale(1 1) rotate(0) translate(4 1628)">
<polygon fill="white" stroke="none" points="-4,4 -4,-1628 743.38,-1628 743.38,4 -4,4"/>
<!-- 195 -->
<g id="node1" class="node">
<title>195</title>
<g id="a_node1"><a xlink:title="/opt/ros/humble/lib/python3.10/site&#45;packages/ros2launch/command/launch.py">
<polygon fill="#0d1074" stroke="#0d1074" points="182.62,-1624 83.38,-1624 83.38,-1568 182.62,-1568 182.62,-1624"/>
<text text-anchor="middle" x="133" y="-1610.5" font-family="Arial" font-size="10.00" fill="#ffffff">launch:1:&lt;module&gt;</text>
<text text-anchor="middle" x="133" y="-1598.5" font-family="Arial" font-size="10.00" fill="#ffffff">0.69%</text>
<text text-anchor="middle" x="133" y="-1586.5" font-family="Arial" font-size="10.00" fill="#ffffff">(0.00%)</text>
<text text-anchor="middle" x="133" y="-1574.5" font-family="Arial" font-size="10.00" fill="#ffffff">1×</text>
</a>
</g>
</g>
<!-- 1063 -->
<g id="node2" class="node">
<title>1063</title>
<g id="a_node2"><a xlink:title="&lt;frozen importlib._bootstrap&gt;">
<polygon fill="#0d1274" stroke="#0d1274" points="544.5,-1526 363.5,-1526 363.5,-1470 544.5,-1470 544.5,-1526"/>
<text text-anchor="middle" x="454" y="-1512.5" font-family="Arial" font-size="10.00" fill="#ffffff">&lt;frozen importlib:1022:_find_and_load</text>
<text text-anchor="middle" x="454" y="-1500.5" font-family="Arial" font-size="10.00" fill="#ffffff">1.33%</text>
<text text-anchor="middle" x="454" y="-1488.5" font-family="Arial" font-size="10.00" fill="#ffffff">(0.01%)</text>
<text text-anchor="middle" x="454" y="-1476.5" font-family="Arial" font-size="10.00" fill="#ffffff">468×</text>
</a>
</g>
</g>
<!-- 195&#45;&gt;1063 -->
<g id="edge1" class="edge">
<title>195&#45;&gt;1063</title>
<path fill="none" stroke="#0d1074" stroke-width="0.5" d="M182.8,-1580.11C229.85,-1566.04 301.63,-1544.57 359.52,-1527.25"/>
<polygon fill="#0d1074" stroke="#0d1074" stroke-width="0.5" points="359.59,-1528.51 362.59,-1526.34 358.89,-1526.17 359.59,-1528.51"/>
<text text-anchor="middle" x="345.57" y="-1549.5" font-family="Arial" font-size="10.00" fill="#0d1074">0.69%</text>
<text text-anchor="middle" x="345.57" y="-1537.5" font-family="Arial" font-size="10.00" fill="#0d1074">4×</text>
</g>
<!-- 626 -->
<g id="node19" class="node">
<title>626</title>
<g id="a_node19"><a xlink:title="&lt;frozen importlib._bootstrap&gt;">
<polygon fill="#0d1274" stroke="#0d1274" points="421,-1428 201,-1428 201,-1372 421,-1372 421,-1428"/>
<text text-anchor="middle" x="311" y="-1414.5" font-family="Arial" font-size="10.00" fill="#ffffff">&lt;frozen importlib:987:_find_and_load_unlocked</text>
<text text-anchor="middle" x="311" y="-1402.5" font-family="Arial" font-size="10.00" fill="#ffffff">1.33%</text>
<text text-anchor="middle" x="311" y="-1390.5" font-family="Arial" font-size="10.00" fill="#ffffff">(0.01%)</text>
<text text-anchor="middle" x="311" y="-1378.5" font-family="Arial" font-size="10.00" fill="#ffffff">468×</text>
</a>
</g>
</g>
<!-- 1063&#45;&gt;626 -->
<g id="edge26" class="edge">
<title>1063&#45;&gt;626</title>
<path fill="none" stroke="#0d1274" stroke-width="0.5" d="M413.2,-1469.69C408.83,-1466.75 404.45,-1463.82 400.25,-1461 385.55,-1451.13 369.49,-1440.35 355.1,-1430.67"/>
<polygon fill="#0d1274" stroke="#0d1274" stroke-width="0.5" points="356.08,-1429.85 352.49,-1428.92 354.72,-1431.89 356.08,-1429.85"/>
<text text-anchor="middle" x="414.12" y="-1451.5" font-family="Arial" font-size="10.00" fill="#0d1274">1.33%</text>
<text text-anchor="middle" x="414.12" y="-1439.5" font-family="Arial" font-size="10.00" fill="#0d1274">4×</text>
</g>
<!-- 294 -->
<g id="node3" class="node">
<title>294</title>
<g id="a_node3"><a xlink:title="~">
<polygon fill="#0d1174" stroke="#0d1174" points="447.88,-1036 254.12,-1036 254.12,-980 447.88,-980 447.88,-1036"/>
<text text-anchor="middle" x="351" y="-1022.5" font-family="Arial" font-size="10.00" fill="#ffffff">~:0:&lt;built&#45;in method builtins.__import__&gt;</text>
<text text-anchor="middle" x="351" y="-1010.5" font-family="Arial" font-size="10.00" fill="#ffffff">0.93%</text>
<text text-anchor="middle" x="351" y="-998.5" font-family="Arial" font-size="10.00" fill="#ffffff">(0.00%)</text>
<text text-anchor="middle" x="351" y="-986.5" font-family="Arial" font-size="10.00" fill="#ffffff">64×</text>
</a>
</g>
</g>
<!-- 294&#45;&gt;1063 -->
<g id="edge2" class="edge">
<title>294&#45;&gt;1063</title>
<path fill="none" stroke="#0d1174" stroke-width="0.5" d="M393.49,-1036.14C414.33,-1053.03 435,-1076.87 435,-1105 435,-1401 435,-1401 435,-1401 435,-1422.98 439.85,-1447.26 444.65,-1465.91"/>
<polygon fill="#0d1174" stroke="#0d1174" stroke-width="0.5" points="443.35,-1465.75 445.42,-1468.83 445.72,-1465.13 443.35,-1465.75"/>
<text text-anchor="middle" x="448.88" y="-1255.5" font-family="Arial" font-size="10.00" fill="#0d1174">0.93%</text>
<text text-anchor="middle" x="448.88" y="-1243.5" font-family="Arial" font-size="10.00" fill="#0d1174">14×</text>
</g>
<!-- 295 -->
<g id="node4" class="node">
<title>295</title>
<g id="a_node4"><a xlink:title="&lt;frozen importlib._bootstrap&gt;">
<polygon fill="#0d1274" stroke="#0d1274" points="262,-1134 30,-1134 30,-1078 262,-1078 262,-1134"/>
<text text-anchor="middle" x="146" y="-1120.5" font-family="Arial" font-size="10.00" fill="#ffffff">&lt;frozen importlib:233:_call_with_frames_removed</text>
<text text-anchor="middle" x="146" y="-1108.5" font-family="Arial" font-size="10.00" fill="#ffffff">1.32%</text>
<text text-anchor="middle" x="146" y="-1096.5" font-family="Arial" font-size="10.00" fill="#ffffff">(0.00%)</text>
<text text-anchor="middle" x="146" y="-1084.5" font-family="Arial" font-size="10.00" fill="#ffffff">615×</text>
</a>
</g>
</g>
<!-- 295&#45;&gt;294 -->
<g id="edge3" class="edge">
<title>295&#45;&gt;294</title>
<path fill="none" stroke="#0d1174" stroke-width="0.5" d="M204.47,-1077.62C230.86,-1065.26 262.06,-1050.65 288.87,-1038.1"/>
<polygon fill="#0d1174" stroke="#0d1174" stroke-width="0.5" points="289.12,-1039.33 291.77,-1036.74 288.08,-1037.11 289.12,-1039.33"/>
<text text-anchor="middle" x="286.77" y="-1059.5" font-family="Arial" font-size="10.00" fill="#0d1174">0.93%</text>
<text text-anchor="middle" x="286.77" y="-1047.5" font-family="Arial" font-size="10.00" fill="#0d1174">14×</text>
</g>
<!-- 347 -->
<g id="node5" class="node">
<title>347</title>
<g id="a_node5"><a xlink:title="~">
<polygon fill="#ff0000" stroke="#ff0000" points="239.38,-1036 72.62,-1036 72.62,-980 239.38,-980 239.38,-1036"/>
<text text-anchor="middle" x="156" y="-1022.5" font-family="Arial" font-size="10.00" fill="#ffffff">~:0:&lt;built&#45;in method builtins.exec&gt;</text>
<text text-anchor="middle" x="156" y="-1010.5" font-family="Arial" font-size="10.00" fill="#ffffff">100.00%</text>
<text text-anchor="middle" x="156" y="-998.5" font-family="Arial" font-size="10.00" fill="#ffffff">(0.00%)</text>
<text text-anchor="middle" x="156" y="-986.5" font-family="Arial" font-size="10.00" fill="#ffffff">420×</text>
</a>
</g>
</g>
<!-- 295&#45;&gt;347 -->
<g id="edge4" class="edge">
<title>295&#45;&gt;347</title>
<path fill="none" stroke="#0d1274" stroke-width="0.5" d="M148.84,-1077.75C150.05,-1066.09 151.48,-1052.42 152.73,-1040.35"/>
<polygon fill="#0d1274" stroke="#0d1274" stroke-width="0.5" points="153.93,-1040.68 153.08,-1037.07 151.49,-1040.43 153.93,-1040.68"/>
<text text-anchor="middle" x="166.06" y="-1059.5" font-family="Arial" font-size="10.00" fill="#0d1274">1.26%</text>
<text text-anchor="middle" x="166.06" y="-1047.5" font-family="Arial" font-size="10.00" fill="#0d1274">7×</text>
</g>
<!-- 347&#45;&gt;195 -->
<g id="edge5" class="edge">
<title>347&#45;&gt;195</title>
<path fill="none" stroke="#0d1074" stroke-width="0.5" d="M72.52,-1028.48C35.43,-1042.58 0,-1066.2 0,-1105 0,-1499 0,-1499 0,-1499 0,-1540.24 42.57,-1565.55 79.54,-1579.74"/>
<polygon fill="#0d1074" stroke="#0d1074" stroke-width="0.5" points="78.68,-1580.73 82.39,-1580.82 79.54,-1578.44 78.68,-1580.73"/>
<text text-anchor="middle" x="13.88" y="-1304.5" font-family="Arial" font-size="10.00" fill="#0d1074">0.69%</text>
<text text-anchor="middle" x="13.88" y="-1292.5" font-family="Arial" font-size="10.00" fill="#0d1074">1×</text>
</g>
<!-- 381 -->
<g id="node6" class="node">
<title>381</title>
<g id="a_node6"><a xlink:title="/opt/ros/humble/bin/ros2">
<polygon fill="#ff0000" stroke="#ff0000" points="396.75,-938 307.25,-938 307.25,-882 396.75,-882 396.75,-938"/>
<text text-anchor="middle" x="352" y="-924.5" font-family="Arial" font-size="10.00" fill="#ffffff">ros2:1:&lt;module&gt;</text>
<text text-anchor="middle" x="352" y="-912.5" font-family="Arial" font-size="10.00" fill="#ffffff">100.00%</text>
<text text-anchor="middle" x="352" y="-900.5" font-family="Arial" font-size="10.00" fill="#ffffff">(0.00%)</text>
<text text-anchor="middle" x="352" y="-888.5" font-family="Arial" font-size="10.00" fill="#ffffff">1×</text>
</a>
</g>
</g>
<!-- 347&#45;&gt;381 -->
<g id="edge6" class="edge">
<title>347&#45;&gt;381</title>
<path fill="none" stroke="#ff0000" stroke-width="4" d="M211.9,-979.62C237.18,-967.24 267.07,-952.6 292.74,-940.03"/>
<polygon fill="#ff0000" stroke="#ff0000" stroke-width="4" points="294.02,-943.3 301.46,-935.75 290.94,-937.01 294.02,-943.3"/>
<text text-anchor="middle" x="296.44" y="-961.5" font-family="Arial" font-size="10.00" fill="#ff0000">100.00%</text>
<text text-anchor="middle" x="296.44" y="-949.5" font-family="Arial" font-size="10.00" fill="#ff0000">1×</text>
</g>
<!-- 2156 -->
<g id="node7" class="node">
<title>2156</title>
<g id="a_node7"><a xlink:title="/opt/ros/humble/lib/python3.10/site&#45;packages/ros2launch/api/__init__.py">
<polygon fill="#0d0f74" stroke="#0d0f74" points="525.25,-938 420.75,-938 420.75,-882 525.25,-882 525.25,-938"/>
<text text-anchor="middle" x="473" y="-924.5" font-family="Arial" font-size="10.00" fill="#ffffff">__init__:1:&lt;module&gt;</text>
<text text-anchor="middle" x="473" y="-912.5" font-family="Arial" font-size="10.00" fill="#ffffff">0.66%</text>
<text text-anchor="middle" x="473" y="-900.5" font-family="Arial" font-size="10.00" fill="#ffffff">(0.00%)</text>
<text text-anchor="middle" x="473" y="-888.5" font-family="Arial" font-size="10.00" fill="#ffffff">1×</text>
</a>
</g>
</g>
<!-- 347&#45;&gt;2156 -->
<g id="edge7" class="edge">
<title>347&#45;&gt;2156</title>
<path fill="none" stroke="#0d0f74" stroke-width="0.5" d="M239.64,-982.3C243.13,-981.48 246.59,-980.71 250,-980 279.84,-973.77 288.47,-978.56 318,-971 351.58,-962.41 387.77,-948.67 416.72,-936.51"/>
<polygon fill="#0d0f74" stroke="#0d0f74" stroke-width="0.5" points="417.14,-937.67 419.88,-935.18 416.18,-935.41 417.14,-937.67"/>
<text text-anchor="middle" x="401.1" y="-961.5" font-family="Arial" font-size="10.00" fill="#0d0f74">0.66%</text>
<text text-anchor="middle" x="401.1" y="-949.5" font-family="Arial" font-size="10.00" fill="#0d0f74">1×</text>
</g>
<!-- 381&#45;&gt;1063 -->
<g id="edge12" class="edge">
<title>381&#45;&gt;1063</title>
<path fill="none" stroke="#0d0d73" stroke-width="0.5" d="M396.99,-928.28C428.5,-943.66 465,-969.55 465,-1007 465,-1156 465,-1156 465,-1156 465,-1204.45 465.27,-1216.57 464,-1265 462.13,-1336.64 458.03,-1420.66 455.71,-1465.31"/>
<polygon fill="#0d0d73" stroke="#0d0d73" stroke-width="0.5" points="454.49,-1465.2 455.53,-1468.76 456.93,-1465.32 454.49,-1465.2"/>
<text text-anchor="middle" x="478.9" y="-1206.5" font-family="Arial" font-size="10.00" fill="#0d0d73">0.13%</text>
<text text-anchor="middle" x="478.9" y="-1194.5" font-family="Arial" font-size="10.00" fill="#0d0d73">1×</text>
</g>
<!-- 360 -->
<g id="node10" class="node">
<title>360</title>
<g id="a_node10"><a xlink:title="/opt/ros/humble/lib/python3.10/site&#45;packages/ros2cli/cli.py">
<polygon fill="#fe0500" stroke="#fe0500" points="383.62,-840 320.38,-840 320.38,-784 383.62,-784 383.62,-840"/>
<text text-anchor="middle" x="352" y="-826.5" font-family="Arial" font-size="10.00" fill="#ffffff">cli:27:main</text>
<text text-anchor="middle" x="352" y="-814.5" font-family="Arial" font-size="10.00" fill="#ffffff">99.57%</text>
<text text-anchor="middle" x="352" y="-802.5" font-family="Arial" font-size="10.00" fill="#ffffff">(0.00%)</text>
<text text-anchor="middle" x="352" y="-790.5" font-family="Arial" font-size="10.00" fill="#ffffff">1×</text>
</a>
</g>
</g>
<!-- 381&#45;&gt;360 -->
<g id="edge11" class="edge">
<title>381&#45;&gt;360</title>
<path fill="none" stroke="#fe0500" stroke-width="3.98" d="M352,-881.75C352,-873.74 352,-864.78 352,-856.04"/>
<polygon fill="#fe0500" stroke="#fe0500" stroke-width="3.98" points="355.5,-856.34 352,-846.35 348.5,-856.35 355.5,-856.34"/>
<text text-anchor="middle" x="368.5" y="-863.5" font-family="Arial" font-size="10.00" fill="#fe0500">99.57%</text>
<text text-anchor="middle" x="368.5" y="-851.5" font-family="Arial" font-size="10.00" fill="#fe0500">1×</text>
</g>
<!-- 2156&#45;&gt;1063 -->
<g id="edge33" class="edge">
<title>2156&#45;&gt;1063</title>
<path fill="none" stroke="#0d0f74" stroke-width="0.5" d="M490.22,-938.44C500.28,-957.05 511,-982.62 511,-1007 511,-1401 511,-1401 511,-1401 511,-1425.37 497.25,-1448.96 483.26,-1466.65"/>
<polygon fill="#0d0f74" stroke="#0d0f74" stroke-width="0.5" points="482.55,-1465.58 481.31,-1469.08 484.46,-1467.12 482.55,-1465.58"/>
<text text-anchor="middle" x="524.88" y="-1206.5" font-family="Arial" font-size="10.00" fill="#0d0f74">0.66%</text>
<text text-anchor="middle" x="524.88" y="-1194.5" font-family="Arial" font-size="10.00" fill="#0d0f74">2×</text>
</g>
<!-- 356 -->
<g id="node8" class="node">
<title>356</title>
<g id="a_node8"><a xlink:title="/opt/ros/humble/lib/python3.10/site&#45;packages/ros2cli/command/__init__.py">
<polygon fill="#0d1174" stroke="#0d1174" points="537,-742 341,-742 341,-686 537,-686 537,-742"/>
<text text-anchor="middle" x="439" y="-728.5" font-family="Arial" font-size="10.00" fill="#ffffff">__init__:144:add_subparsers_on_demand</text>
<text text-anchor="middle" x="439" y="-716.5" font-family="Arial" font-size="10.00" fill="#ffffff">1.14%</text>
<text text-anchor="middle" x="439" y="-704.5" font-family="Arial" font-size="10.00" fill="#ffffff">(0.00%)</text>
<text text-anchor="middle" x="439" y="-692.5" font-family="Arial" font-size="10.00" fill="#ffffff">1×</text>
</a>
</g>
</g>
<!-- 1076 -->
<g id="node9" class="node">
<title>1076</title>
<g id="a_node9"><a xlink:title="/opt/ros/humble/lib/python3.10/site&#45;packages/ros2cli/command/__init__.py">
<polygon fill="#0d1074" stroke="#0d1074" points="532.12,-644 351.88,-644 351.88,-588 532.12,-588 532.12,-644"/>
<text text-anchor="middle" x="442" y="-630.5" font-family="Arial" font-size="10.00" fill="#ffffff">__init__:56:get_command_extensions</text>
<text text-anchor="middle" x="442" y="-618.5" font-family="Arial" font-size="10.00" fill="#ffffff">0.85%</text>
<text text-anchor="middle" x="442" y="-606.5" font-family="Arial" font-size="10.00" fill="#ffffff">(0.00%)</text>
<text text-anchor="middle" x="442" y="-594.5" font-family="Arial" font-size="10.00" fill="#ffffff">1×</text>
</a>
</g>
</g>
<!-- 356&#45;&gt;1076 -->
<g id="edge8" class="edge">
<title>356&#45;&gt;1076</title>
<path fill="none" stroke="#0d1074" stroke-width="0.5" d="M439.85,-685.75C440.22,-674.09 440.64,-660.42 441.02,-648.35"/>
<polygon fill="#0d1074" stroke="#0d1074" stroke-width="0.5" points="442.24,-648.61 441.12,-645.08 439.79,-648.54 442.24,-648.61"/>
<text text-anchor="middle" x="454.73" y="-667.5" font-family="Arial" font-size="10.00" fill="#0d1074">0.85%</text>
<text text-anchor="middle" x="454.73" y="-655.5" font-family="Arial" font-size="10.00" fill="#0d1074">1×</text>
</g>
<!-- 1078 -->
<g id="node30" class="node">
<title>1078</title>
<g id="a_node30"><a xlink:title="/opt/ros/humble/lib/python3.10/site&#45;packages/ros2cli/plugin_system.py">
<polygon fill="#0d1174" stroke="#0d1174" points="538.5,-546 345.5,-546 345.5,-490 538.5,-490 538.5,-546"/>
<text text-anchor="middle" x="442" y="-532.5" font-family="Arial" font-size="10.00" fill="#ffffff">plugin_system:37:instantiate_extensions</text>
<text text-anchor="middle" x="442" y="-520.5" font-family="Arial" font-size="10.00" fill="#ffffff">0.97%</text>
<text text-anchor="middle" x="442" y="-508.5" font-family="Arial" font-size="10.00" fill="#ffffff">(0.00%)</text>
<text text-anchor="middle" x="442" y="-496.5" font-family="Arial" font-size="10.00" fill="#ffffff">2×</text>
</a>
</g>
</g>
<!-- 1076&#45;&gt;1078 -->
<g id="edge27" class="edge">
<title>1076&#45;&gt;1078</title>
<path fill="none" stroke="#0d1074" stroke-width="0.5" d="M442,-587.75C442,-576.09 442,-562.42 442,-550.35"/>
<polygon fill="#0d1074" stroke="#0d1074" stroke-width="0.5" points="443.23,-550.58 442,-547.08 440.78,-550.58 443.23,-550.58"/>
<text text-anchor="middle" x="455.88" y="-569.5" font-family="Arial" font-size="10.00" fill="#0d1074">0.85%</text>
<text text-anchor="middle" x="455.88" y="-557.5" font-family="Arial" font-size="10.00" fill="#0d1074">1×</text>
</g>
<!-- 360&#45;&gt;356 -->
<g id="edge9" class="edge">
<title>360&#45;&gt;356</title>
<path fill="none" stroke="#0d1174" stroke-width="0.5" d="M376.7,-783.75C387.53,-771.79 400.3,-757.7 411.44,-745.41"/>
<polygon fill="#0d1174" stroke="#0d1174" stroke-width="0.5" points="412.29,-746.3 413.73,-742.88 410.47,-744.65 412.29,-746.3"/>
<text text-anchor="middle" x="419.73" y="-765.5" font-family="Arial" font-size="10.00" fill="#0d1174">1.14%</text>
<text text-anchor="middle" x="419.73" y="-753.5" font-family="Arial" font-size="10.00" fill="#0d1174">1×</text>
</g>
<!-- 1122 -->
<g id="node11" class="node">
<title>1122</title>
<g id="a_node11"><a xlink:title="/opt/ros/humble/lib/python3.10/site&#45;packages/ros2launch/command/launch.py">
<polygon fill="#fd1000" stroke="#fd1000" points="327.62,-742 240.38,-742 240.38,-686 327.62,-686 327.62,-742"/>
<text text-anchor="middle" x="284" y="-728.5" font-family="Arial" font-size="10.00" fill="#ffffff">launch:125:main</text>
<text text-anchor="middle" x="284" y="-716.5" font-family="Arial" font-size="10.00" fill="#ffffff">98.42%</text>
<text text-anchor="middle" x="284" y="-704.5" font-family="Arial" font-size="10.00" fill="#ffffff">(0.00%)</text>
<text text-anchor="middle" x="284" y="-692.5" font-family="Arial" font-size="10.00" fill="#ffffff">1×</text>
</a>
</g>
</g>
<!-- 360&#45;&gt;1122 -->
<g id="edge10" class="edge">
<title>360&#45;&gt;1122</title>
<path fill="none" stroke="#fd1000" stroke-width="3.94" d="M332.7,-783.75C326.38,-774.83 319.22,-764.73 312.38,-755.07"/>
<polygon fill="#fd1000" stroke="#fd1000" stroke-width="3.94" points="315.35,-753.26 306.8,-747.19 309.69,-757.27 315.35,-753.26"/>
<text text-anchor="middle" x="342.59" y="-765.5" font-family="Arial" font-size="10.00" fill="#fd1000">98.42%</text>
<text text-anchor="middle" x="342.59" y="-753.5" font-family="Arial" font-size="10.00" fill="#fd1000">1×</text>
</g>
<!-- 628 -->
<g id="node22" class="node">
<title>628</title>
<g id="a_node22"><a xlink:title="/opt/ros/humble/lib/python3.10/site&#45;packages/ros2launch/api/api.py">
<polygon fill="#fd1000" stroke="#fd1000" points="342.62,-644 201.38,-644 201.38,-588 342.62,-588 342.62,-644"/>
<text text-anchor="middle" x="272" y="-630.5" font-family="Arial" font-size="10.00" fill="#ffffff">api:141:launch_a_launch_file</text>
<text text-anchor="middle" x="272" y="-618.5" font-family="Arial" font-size="10.00" fill="#ffffff">98.42%</text>
<text text-anchor="middle" x="272" y="-606.5" font-family="Arial" font-size="10.00" fill="#ffffff">(0.00%)</text>
<text text-anchor="middle" x="272" y="-594.5" font-family="Arial" font-size="10.00" fill="#ffffff">1×</text>
</a>
</g>
</g>
<!-- 1122&#45;&gt;628 -->
<g id="edge30" class="edge">
<title>1122&#45;&gt;628</title>
<path fill="none" stroke="#fd1000" stroke-width="3.94" d="M280.59,-685.75C279.59,-677.74 278.47,-668.78 277.38,-660.04"/>
<polygon fill="#fd1000" stroke="#fd1000" stroke-width="3.94" points="280.82,-659.63 276.15,-650.24 273.94,-660.49 280.82,-659.63"/>
<text text-anchor="middle" x="295.93" y="-667.5" font-family="Arial" font-size="10.00" fill="#fd1000">98.42%</text>
<text text-anchor="middle" x="295.93" y="-655.5" font-family="Arial" font-size="10.00" fill="#fd1000">1×</text>
</g>
<!-- 411 -->
<g id="node12" class="node">
<title>411</title>
<g id="a_node12"><a xlink:title="&lt;frozen importlib._bootstrap&gt;">
<polygon fill="#0d1274" stroke="#0d1274" points="411,-1330 233,-1330 233,-1274 411,-1274 411,-1330"/>
<text text-anchor="middle" x="322" y="-1316.5" font-family="Arial" font-size="10.00" fill="#ffffff">&lt;frozen importlib:664:_load_unlocked</text>
<text text-anchor="middle" x="322" y="-1304.5" font-family="Arial" font-size="10.00" fill="#ffffff">1.32%</text>
<text text-anchor="middle" x="322" y="-1292.5" font-family="Arial" font-size="10.00" fill="#ffffff">(0.01%)</text>
<text text-anchor="middle" x="322" y="-1280.5" font-family="Arial" font-size="10.00" fill="#ffffff">451×</text>
</a>
</g>
</g>
<!-- 3028 -->
<g id="node13" class="node">
<title>3028</title>
<g id="a_node13"><a xlink:title="&lt;frozen importlib._bootstrap_external&gt;">
<polygon fill="#0d1274" stroke="#0d1274" points="421.12,-1232 252.88,-1232 252.88,-1176 421.12,-1176 421.12,-1232"/>
<text text-anchor="middle" x="337" y="-1218.5" font-family="Arial" font-size="10.00" fill="#ffffff">&lt;frozen importlib:877:exec_module</text>
<text text-anchor="middle" x="337" y="-1206.5" font-family="Arial" font-size="10.00" fill="#ffffff">1.32%</text>
<text text-anchor="middle" x="337" y="-1194.5" font-family="Arial" font-size="10.00" fill="#ffffff">(0.00%)</text>
<text text-anchor="middle" x="337" y="-1182.5" font-family="Arial" font-size="10.00" fill="#ffffff">419×</text>
</a>
</g>
</g>
<!-- 411&#45;&gt;3028 -->
<g id="edge13" class="edge">
<title>411&#45;&gt;3028</title>
<path fill="none" stroke="#0d1274" stroke-width="0.5" d="M326.26,-1273.75C328.08,-1262.09 330.22,-1248.42 332.1,-1236.35"/>
<polygon fill="#0d1274" stroke="#0d1274" stroke-width="0.5" points="333.28,-1236.72 332.61,-1233.07 330.86,-1236.34 333.28,-1236.72"/>
<text text-anchor="middle" x="345.16" y="-1255.5" font-family="Arial" font-size="10.00" fill="#0d1274">1.32%</text>
<text text-anchor="middle" x="345.16" y="-1243.5" font-family="Arial" font-size="10.00" fill="#0d1274">7×</text>
</g>
<!-- 3028&#45;&gt;295 -->
<g id="edge34" class="edge">
<title>3028&#45;&gt;295</title>
<path fill="none" stroke="#0d1274" stroke-width="0.5" d="M282.52,-1175.62C258.04,-1163.31 229.11,-1148.77 204.19,-1136.25"/>
<polygon fill="#0d1274" stroke="#0d1274" stroke-width="0.5" points="204.9,-1135.23 201.23,-1134.76 203.8,-1137.42 204.9,-1135.23"/>
<text text-anchor="middle" x="278.1" y="-1157.5" font-family="Arial" font-size="10.00" fill="#0d1274">1.26%</text>
<text text-anchor="middle" x="278.1" y="-1145.5" font-family="Arial" font-size="10.00" fill="#0d1274">7×</text>
</g>
<!-- 603 -->
<g id="node18" class="node">
<title>603</title>
<g id="a_node18"><a xlink:title="&lt;frozen importlib._bootstrap_external&gt;">
<polygon fill="#0d0f73" stroke="#0d0f73" points="421.12,-1134 270.88,-1134 270.88,-1078 421.12,-1078 421.12,-1134"/>
<text text-anchor="middle" x="346" y="-1120.5" font-family="Arial" font-size="10.00" fill="#ffffff">&lt;frozen importlib:950:get_code</text>
<text text-anchor="middle" x="346" y="-1108.5" font-family="Arial" font-size="10.00" fill="#ffffff">0.54%</text>
<text text-anchor="middle" x="346" y="-1096.5" font-family="Arial" font-size="10.00" fill="#ffffff">(0.01%)</text>
<text text-anchor="middle" x="346" y="-1084.5" font-family="Arial" font-size="10.00" fill="#ffffff">419×</text>
</a>
</g>
</g>
<!-- 3028&#45;&gt;603 -->
<g id="edge35" class="edge">
<title>3028&#45;&gt;603</title>
<path fill="none" stroke="#0d0f73" stroke-width="0.5" d="M339.55,-1175.75C340.65,-1164.09 341.93,-1150.42 343.06,-1138.35"/>
<polygon fill="#0d0f73" stroke="#0d0f73" stroke-width="0.5" points="344.26,-1138.67 343.37,-1135.07 341.82,-1138.44 344.26,-1138.67"/>
<text text-anchor="middle" x="356.45" y="-1157.5" font-family="Arial" font-size="10.00" fill="#0d0f73">0.54%</text>
<text text-anchor="middle" x="356.45" y="-1145.5" font-family="Arial" font-size="10.00" fill="#0d0f73">419×</text>
</g>
<!-- 412 -->
<g id="node14" class="node">
<title>412</title>
<g id="a_node14"><a xlink:title="&lt;frozen importlib._bootstrap&gt;">
<polygon fill="#0d1074" stroke="#0d1074" points="243.5,-1232 56.5,-1232 56.5,-1176 243.5,-1176 243.5,-1232"/>
<text text-anchor="middle" x="150" y="-1218.5" font-family="Arial" font-size="10.00" fill="#ffffff">&lt;frozen importlib:1053:_handle_fromlist</text>
<text text-anchor="middle" x="150" y="-1206.5" font-family="Arial" font-size="10.00" fill="#ffffff">0.78%</text>
<text text-anchor="middle" x="150" y="-1194.5" font-family="Arial" font-size="10.00" fill="#ffffff">(0.00%)</text>
<text text-anchor="middle" x="150" y="-1182.5" font-family="Arial" font-size="10.00" fill="#ffffff">563×</text>
</a>
</g>
</g>
<!-- 412&#45;&gt;295 -->
<g id="edge14" class="edge">
<title>412&#45;&gt;295</title>
<path fill="none" stroke="#0d1074" stroke-width="0.5" d="M148.86,-1175.75C148.38,-1164.09 147.81,-1150.42 147.31,-1138.35"/>
<polygon fill="#0d1074" stroke="#0d1074" stroke-width="0.5" points="148.54,-1138.52 147.17,-1135.08 146.09,-1138.63 148.54,-1138.52"/>
<text text-anchor="middle" x="162.35" y="-1157.5" font-family="Arial" font-size="10.00" fill="#0d1074">0.77%</text>
<text text-anchor="middle" x="162.35" y="-1145.5" font-family="Arial" font-size="10.00" fill="#0d1074">11×</text>
</g>
<!-- 556 -->
<g id="node15" class="node">
<title>556</title>
<g id="a_node15"><a xlink:title="/home/dfki.uni&#45;bremen.de/ndahn/miniforge3/lib/python3.10/asyncio/base_events.py">
<polygon fill="#fd1000" stroke="#fd1000" points="343.75,-252 200.25,-252 200.25,-196 343.75,-196 343.75,-252"/>
<text text-anchor="middle" x="272" y="-238.5" font-family="Arial" font-size="10.00" fill="#ffffff">base_events:1832:_run_once</text>
<text text-anchor="middle" x="272" y="-226.5" font-family="Arial" font-size="10.00" fill="#ffffff">98.41%</text>
<text text-anchor="middle" x="272" y="-214.5" font-family="Arial" font-size="10.00" fill="#ffffff">(0.01%)</text>
<text text-anchor="middle" x="272" y="-202.5" font-family="Arial" font-size="10.00" fill="#ffffff">93×</text>
</a>
</g>
</g>
<!-- 567 -->
<g id="node16" class="node">
<title>567</title>
<g id="a_node16"><a xlink:title="/home/dfki.uni&#45;bremen.de/ndahn/miniforge3/lib/python3.10/selectors.py">
<polygon fill="#fc1401" stroke="#fc1401" points="323.88,-154 220.12,-154 220.12,-98 323.88,-98 323.88,-154"/>
<text text-anchor="middle" x="272" y="-140.5" font-family="Arial" font-size="10.00" fill="#ffffff">selectors:452:select</text>
<text text-anchor="middle" x="272" y="-128.5" font-family="Arial" font-size="10.00" fill="#ffffff">98.02%</text>
<text text-anchor="middle" x="272" y="-116.5" font-family="Arial" font-size="10.00" fill="#ffffff">(0.00%)</text>
<text text-anchor="middle" x="272" y="-104.5" font-family="Arial" font-size="10.00" fill="#ffffff">93×</text>
</a>
</g>
</g>
<!-- 556&#45;&gt;567 -->
<g id="edge15" class="edge">
<title>556&#45;&gt;567</title>
<path fill="none" stroke="#fc1401" stroke-width="3.92" d="M272,-195.75C272,-187.74 272,-178.78 272,-170.04"/>
<polygon fill="#fc1401" stroke="#fc1401" stroke-width="3.92" points="275.47,-170.15 272,-160.25 268.54,-170.15 275.47,-170.15"/>
<text text-anchor="middle" x="288.5" y="-177.5" font-family="Arial" font-size="10.00" fill="#fc1401">98.02%</text>
<text text-anchor="middle" x="288.5" y="-165.5" font-family="Arial" font-size="10.00" fill="#fc1401">93×</text>
</g>
<!-- 2652 -->
<g id="node17" class="node">
<title>2652</title>
<g id="a_node17"><a xlink:title="~">
<polygon fill="#fc1401" stroke="#fc1401" points="373.38,-56 170.62,-56 170.62,0 373.38,0 373.38,-56"/>
<text text-anchor="middle" x="272" y="-42.5" font-family="Arial" font-size="10.00" fill="#ffffff">~:0:&lt;method &#39;poll&#39; of &#39;select.epoll&#39; objects&gt;</text>
<text text-anchor="middle" x="272" y="-30.5" font-family="Arial" font-size="10.00" fill="#ffffff">98.02%</text>
<text text-anchor="middle" x="272" y="-18.5" font-family="Arial" font-size="10.00" fill="#ffffff">(98.02%)</text>
<text text-anchor="middle" x="272" y="-6.5" font-family="Arial" font-size="10.00" fill="#ffffff">93×</text>
</a>
</g>
</g>
<!-- 567&#45;&gt;2652 -->
<g id="edge16" class="edge">
<title>567&#45;&gt;2652</title>
<path fill="none" stroke="#fc1401" stroke-width="3.92" d="M272,-97.75C272,-89.74 272,-80.78 272,-72.04"/>
<polygon fill="#fc1401" stroke="#fc1401" stroke-width="3.92" points="275.47,-72.15 272,-62.25 268.54,-72.15 275.47,-72.15"/>
<text text-anchor="middle" x="288.5" y="-79.5" font-family="Arial" font-size="10.00" fill="#fc1401">98.02%</text>
<text text-anchor="middle" x="288.5" y="-67.5" font-family="Arial" font-size="10.00" fill="#fc1401">93×</text>
</g>
<!-- 626&#45;&gt;295 -->
<g id="edge17" class="edge">
<title>626&#45;&gt;295</title>
<path fill="none" stroke="#0d1074" stroke-width="0.5" d="M230.59,-1371.51C169.45,-1345.87 89.64,-1301.06 52,-1232 40.09,-1210.15 40.75,-1198.2 52,-1176 60.08,-1160.05 73.77,-1146.89 88.24,-1136.5"/>
<polygon fill="#0d1074" stroke="#0d1074" stroke-width="0.5" points="88.76,-1137.64 90.92,-1134.62 87.35,-1135.63 88.76,-1137.64"/>
<text text-anchor="middle" x="87.04" y="-1255.5" font-family="Arial" font-size="10.00" fill="#0d1074">0.87%</text>
<text text-anchor="middle" x="87.04" y="-1243.5" font-family="Arial" font-size="10.00" fill="#0d1074">13×</text>
</g>
<!-- 626&#45;&gt;411 -->
<g id="edge18" class="edge">
<title>626&#45;&gt;411</title>
<path fill="none" stroke="#0d1274" stroke-width="0.5" d="M314.12,-1371.75C315.46,-1360.09 317.02,-1346.42 318.41,-1334.35"/>
<polygon fill="#0d1274" stroke="#0d1274" stroke-width="0.5" points="319.6,-1334.69 318.78,-1331.07 317.17,-1334.41 319.6,-1334.69"/>
<text text-anchor="middle" x="331.68" y="-1353.5" font-family="Arial" font-size="10.00" fill="#0d1274">1.32%</text>
<text text-anchor="middle" x="331.68" y="-1341.5" font-family="Arial" font-size="10.00" fill="#0d1274">7×</text>
</g>
<!-- 627 -->
<g id="node20" class="node">
<title>627</title>
<g id="a_node20"><a xlink:title="~">
<polygon fill="#0d0f73" stroke="#0d0f73" points="739.38,-1428 566.62,-1428 566.62,-1372 739.38,-1372 739.38,-1428"/>
<text text-anchor="middle" x="653" y="-1414.5" font-family="Arial" font-size="10.00" fill="#ffffff">~:0:&lt;built&#45;in method builtins.sorted&gt;</text>
<text text-anchor="middle" x="653" y="-1402.5" font-family="Arial" font-size="10.00" fill="#ffffff">0.58%</text>
<text text-anchor="middle" x="653" y="-1390.5" font-family="Arial" font-size="10.00" fill="#ffffff">(0.00%)</text>
<text text-anchor="middle" x="653" y="-1378.5" font-family="Arial" font-size="10.00" fill="#ffffff">11×</text>
</a>
</g>
</g>
<!-- 2561 -->
<g id="node21" class="node">
<title>2561</title>
<g id="a_node21"><a xlink:title="/home/dfki.uni&#45;bremen.de/ndahn/miniforge3/lib/python3.10/importlib/metadata/__init__.py">
<polygon fill="#0d0f73" stroke="#0d0f73" points="714.62,-1330 591.38,-1330 591.38,-1274 714.62,-1274 714.62,-1330"/>
<text text-anchor="middle" x="653" y="-1316.5" font-family="Arial" font-size="10.00" fill="#ffffff">__init__:1018:&lt;genexpr&gt;</text>
<text text-anchor="middle" x="653" y="-1304.5" font-family="Arial" font-size="10.00" fill="#ffffff">0.57%</text>
<text text-anchor="middle" x="653" y="-1292.5" font-family="Arial" font-size="10.00" fill="#ffffff">(0.01%)</text>
<text text-anchor="middle" x="653" y="-1280.5" font-family="Arial" font-size="10.00" fill="#ffffff">2030×</text>
</a>
</g>
</g>
<!-- 627&#45;&gt;2561 -->
<g id="edge19" class="edge">
<title>627&#45;&gt;2561</title>
<path fill="none" stroke="#0d0f73" stroke-width="0.5" d="M653,-1371.75C653,-1360.09 653,-1346.42 653,-1334.35"/>
<polygon fill="#0d0f73" stroke="#0d0f73" stroke-width="0.5" points="654.23,-1334.58 653,-1331.08 651.78,-1334.58 654.23,-1334.58"/>
<text text-anchor="middle" x="666.88" y="-1353.5" font-family="Arial" font-size="10.00" fill="#0d0f73">0.57%</text>
<text text-anchor="middle" x="666.88" y="-1341.5" font-family="Arial" font-size="10.00" fill="#0d0f73">2030×</text>
</g>
<!-- 1231 -->
<g id="node23" class="node">
<title>1231</title>
<g id="a_node23"><a xlink:title="/opt/ros/humble/lib/python3.10/site&#45;packages/launch/launch_service.py">
<polygon fill="#fd1000" stroke="#fd1000" points="330.25,-546 213.75,-546 213.75,-490 330.25,-490 330.25,-546"/>
<text text-anchor="middle" x="272" y="-532.5" font-family="Arial" font-size="10.00" fill="#ffffff">launch_service:357:run</text>
<text text-anchor="middle" x="272" y="-520.5" font-family="Arial" font-size="10.00" fill="#ffffff">98.41%</text>
<text text-anchor="middle" x="272" y="-508.5" font-family="Arial" font-size="10.00" fill="#ffffff">(0.00%)</text>
<text text-anchor="middle" x="272" y="-496.5" font-family="Arial" font-size="10.00" fill="#ffffff">1×</text>
</a>
</g>
</g>
<!-- 628&#45;&gt;1231 -->
<g id="edge20" class="edge">
<title>628&#45;&gt;1231</title>
<path fill="none" stroke="#fd1000" stroke-width="3.94" d="M272,-587.75C272,-579.74 272,-570.78 272,-562.04"/>
<polygon fill="#fd1000" stroke="#fd1000" stroke-width="3.94" points="275.47,-562.18 272,-552.28 268.54,-562.18 275.47,-562.18"/>
<text text-anchor="middle" x="288.5" y="-569.5" font-family="Arial" font-size="10.00" fill="#fd1000">98.41%</text>
<text text-anchor="middle" x="288.5" y="-557.5" font-family="Arial" font-size="10.00" fill="#fd1000">1×</text>
</g>
<!-- 2027 -->
<g id="node32" class="node">
<title>2027</title>
<g id="a_node32"><a xlink:title="/home/dfki.uni&#45;bremen.de/ndahn/miniforge3/lib/python3.10/asyncio/base_events.py">
<polygon fill="#fd1000" stroke="#fd1000" points="359.5,-448 184.5,-448 184.5,-392 359.5,-392 359.5,-448"/>
<text text-anchor="middle" x="272" y="-434.5" font-family="Arial" font-size="10.00" fill="#ffffff">base_events:613:run_until_complete</text>
<text text-anchor="middle" x="272" y="-422.5" font-family="Arial" font-size="10.00" fill="#ffffff">98.41%</text>
<text text-anchor="middle" x="272" y="-410.5" font-family="Arial" font-size="10.00" fill="#ffffff">(0.00%)</text>
<text text-anchor="middle" x="272" y="-398.5" font-family="Arial" font-size="10.00" fill="#ffffff">1×</text>
</a>
</g>
</g>
<!-- 1231&#45;&gt;2027 -->
<g id="edge31" class="edge">
<title>1231&#45;&gt;2027</title>
<path fill="none" stroke="#fd1000" stroke-width="3.94" d="M272,-489.75C272,-481.74 272,-472.78 272,-464.04"/>
<polygon fill="#fd1000" stroke="#fd1000" stroke-width="3.94" points="275.47,-464.18 272,-454.28 268.54,-464.18 275.47,-464.18"/>
<text text-anchor="middle" x="288.5" y="-471.5" font-family="Arial" font-size="10.00" fill="#fd1000">98.41%</text>
<text text-anchor="middle" x="288.5" y="-459.5" font-family="Arial" font-size="10.00" fill="#fd1000">1×</text>
</g>
<!-- 630 -->
<g id="node24" class="node">
<title>630</title>
<g id="a_node24"><a xlink:title="/home/dfki.uni&#45;bremen.de/ndahn/miniforge3/lib/python3.10/importlib/metadata/__init__.py">
<polygon fill="#0d0f73" stroke="#0d0f73" points="697.75,-1526 608.25,-1526 608.25,-1470 697.75,-1470 697.75,-1526"/>
<text text-anchor="middle" x="653" y="-1512.5" font-family="Arial" font-size="10.00" fill="#ffffff">__init__:456:load</text>
<text text-anchor="middle" x="653" y="-1500.5" font-family="Arial" font-size="10.00" fill="#ffffff">0.58%</text>
<text text-anchor="middle" x="653" y="-1488.5" font-family="Arial" font-size="10.00" fill="#ffffff">(0.00%)</text>
<text text-anchor="middle" x="653" y="-1476.5" font-family="Arial" font-size="10.00" fill="#ffffff">5×</text>
</a>
</g>
</g>
<!-- 630&#45;&gt;627 -->
<g id="edge21" class="edge">
<title>630&#45;&gt;627</title>
<path fill="none" stroke="#0d0f73" stroke-width="0.5" d="M653,-1469.75C653,-1458.09 653,-1444.42 653,-1432.35"/>
<polygon fill="#0d0f73" stroke="#0d0f73" stroke-width="0.5" points="654.23,-1432.58 653,-1429.08 651.78,-1432.58 654.23,-1432.58"/>
<text text-anchor="middle" x="666.88" y="-1451.5" font-family="Arial" font-size="10.00" fill="#0d0f73">0.58%</text>
<text text-anchor="middle" x="666.88" y="-1439.5" font-family="Arial" font-size="10.00" fill="#0d0f73">5×</text>
</g>
<!-- 764 -->
<g id="node25" class="node">
<title>764</title>
<g id="a_node25"><a xlink:title="/home/dfki.uni&#45;bremen.de/ndahn/miniforge3/lib/python3.10/asyncio/base_events.py">
<polygon fill="#fd1000" stroke="#fd1000" points="343,-350 201,-350 201,-294 343,-294 343,-350"/>
<text text-anchor="middle" x="272" y="-336.5" font-family="Arial" font-size="10.00" fill="#ffffff">base_events:589:run_forever</text>
<text text-anchor="middle" x="272" y="-324.5" font-family="Arial" font-size="10.00" fill="#ffffff">98.41%</text>
<text text-anchor="middle" x="272" y="-312.5" font-family="Arial" font-size="10.00" fill="#ffffff">(0.00%)</text>
<text text-anchor="middle" x="272" y="-300.5" font-family="Arial" font-size="10.00" fill="#ffffff">1×</text>
</a>
</g>
</g>
<!-- 764&#45;&gt;556 -->
<g id="edge22" class="edge">
<title>764&#45;&gt;556</title>
<path fill="none" stroke="#fd1000" stroke-width="3.94" d="M272,-293.75C272,-285.74 272,-276.78 272,-268.04"/>
<polygon fill="#fd1000" stroke="#fd1000" stroke-width="3.94" points="275.47,-268.18 272,-258.28 268.54,-268.18 275.47,-268.18"/>
<text text-anchor="middle" x="288.5" y="-275.5" font-family="Arial" font-size="10.00" fill="#fd1000">98.41%</text>
<text text-anchor="middle" x="288.5" y="-263.5" font-family="Arial" font-size="10.00" fill="#fd1000">93×</text>
</g>
<!-- 792 -->
<g id="node26" class="node">
<title>792</title>
<g id="a_node26"><a xlink:title="/home/dfki.uni&#45;bremen.de/ndahn/miniforge3/lib/python3.10/importlib/metadata/__init__.py">
<polygon fill="#0d0f73" stroke="#0d0f73" points="715.38,-1624 590.62,-1624 590.62,-1568 715.38,-1568 715.38,-1624"/>
<text text-anchor="middle" x="653" y="-1610.5" font-family="Arial" font-size="10.00" fill="#ffffff">__init__:999:entry_points</text>
<text text-anchor="middle" x="653" y="-1598.5" font-family="Arial" font-size="10.00" fill="#ffffff">0.58%</text>
<text text-anchor="middle" x="653" y="-1586.5" font-family="Arial" font-size="10.00" fill="#ffffff">(0.00%)</text>
<text text-anchor="middle" x="653" y="-1574.5" font-family="Arial" font-size="10.00" fill="#ffffff">5×</text>
</a>
</g>
</g>
<!-- 792&#45;&gt;630 -->
<g id="edge23" class="edge">
<title>792&#45;&gt;630</title>
<path fill="none" stroke="#0d0f73" stroke-width="0.5" d="M653,-1567.75C653,-1556.09 653,-1542.42 653,-1530.35"/>
<polygon fill="#0d0f73" stroke="#0d0f73" stroke-width="0.5" points="654.23,-1530.58 653,-1527.08 651.78,-1530.58 654.23,-1530.58"/>
<text text-anchor="middle" x="666.88" y="-1549.5" font-family="Arial" font-size="10.00" fill="#0d0f73">0.58%</text>
<text text-anchor="middle" x="666.88" y="-1537.5" font-family="Arial" font-size="10.00" fill="#0d0f73">5×</text>
</g>
<!-- 823 -->
<g id="node27" class="node">
<title>823</title>
<g id="a_node27"><a xlink:title="/home/dfki.uni&#45;bremen.de/ndahn/miniforge3/lib/python3.10/importlib/metadata/__init__.py">
<polygon fill="#0d1174" stroke="#0d1174" points="505.75,-350 416.25,-350 416.25,-294 505.75,-294 505.75,-350"/>
<text text-anchor="middle" x="461" y="-336.5" font-family="Arial" font-size="10.00" fill="#ffffff">__init__:165:load</text>
<text text-anchor="middle" x="461" y="-324.5" font-family="Arial" font-size="10.00" fill="#ffffff">1.04%</text>
<text text-anchor="middle" x="461" y="-312.5" font-family="Arial" font-size="10.00" fill="#ffffff">(0.00%)</text>
<text text-anchor="middle" x="461" y="-300.5" font-family="Arial" font-size="10.00" fill="#ffffff">4×</text>
</a>
</g>
</g>
<!-- 996 -->
<g id="node28" class="node">
<title>996</title>
<g id="a_node28"><a xlink:title="/home/dfki.uni&#45;bremen.de/ndahn/miniforge3/lib/python3.10/importlib/__init__.py">
<polygon fill="#0d1174" stroke="#0d1174" points="536.62,-252 401.38,-252 401.38,-196 536.62,-196 536.62,-252"/>
<text text-anchor="middle" x="469" y="-238.5" font-family="Arial" font-size="10.00" fill="#ffffff">__init__:108:import_module</text>
<text text-anchor="middle" x="469" y="-226.5" font-family="Arial" font-size="10.00" fill="#ffffff">1.04%</text>
<text text-anchor="middle" x="469" y="-214.5" font-family="Arial" font-size="10.00" fill="#ffffff">(0.00%)</text>
<text text-anchor="middle" x="469" y="-202.5" font-family="Arial" font-size="10.00" fill="#ffffff">5×</text>
</a>
</g>
</g>
<!-- 823&#45;&gt;996 -->
<g id="edge24" class="edge">
<title>823&#45;&gt;996</title>
<path fill="none" stroke="#0d1174" stroke-width="0.5" d="M463.27,-293.75C464.24,-282.09 465.38,-268.42 466.39,-256.35"/>
<polygon fill="#0d1174" stroke="#0d1174" stroke-width="0.5" points="467.59,-256.66 466.66,-253.08 465.15,-256.46 467.59,-256.66"/>
<text text-anchor="middle" x="479.83" y="-275.5" font-family="Arial" font-size="10.00" fill="#0d1174">1.04%</text>
<text text-anchor="middle" x="479.83" y="-263.5" font-family="Arial" font-size="10.00" fill="#0d1174">2×</text>
</g>
<!-- 3039 -->
<g id="node29" class="node">
<title>3039</title>
<g id="a_node29"><a xlink:title="&lt;frozen importlib._bootstrap&gt;">
<polygon fill="#0d1174" stroke="#0d1174" points="606.5,-154 437.5,-154 437.5,-98 606.5,-98 606.5,-154"/>
<text text-anchor="middle" x="522" y="-140.5" font-family="Arial" font-size="10.00" fill="#ffffff">&lt;frozen importlib:1038:_gcd_import</text>
<text text-anchor="middle" x="522" y="-128.5" font-family="Arial" font-size="10.00" fill="#ffffff">1.04%</text>
<text text-anchor="middle" x="522" y="-116.5" font-family="Arial" font-size="10.00" fill="#ffffff">(0.00%)</text>
<text text-anchor="middle" x="522" y="-104.5" font-family="Arial" font-size="10.00" fill="#ffffff">8×</text>
</a>
</g>
</g>
<!-- 996&#45;&gt;3039 -->
<g id="edge25" class="edge">
<title>996&#45;&gt;3039</title>
<path fill="none" stroke="#0d1174" stroke-width="0.5" d="M484.05,-195.75C490.54,-183.99 498.16,-170.18 504.87,-158.03"/>
<polygon fill="#0d1174" stroke="#0d1174" stroke-width="0.5" points="505.93,-158.64 506.55,-154.98 503.79,-157.46 505.93,-158.64"/>
<text text-anchor="middle" x="515.68" y="-177.5" font-family="Arial" font-size="10.00" fill="#0d1174">1.04%</text>
<text text-anchor="middle" x="515.68" y="-165.5" font-family="Arial" font-size="10.00" fill="#0d1174">2×</text>
</g>
<!-- 3039&#45;&gt;1063 -->
<g id="edge36" class="edge">
<title>3039&#45;&gt;1063</title>
<path fill="none" stroke="#0d1174" stroke-width="0.5" d="M535.87,-154.39C544.12,-173.2 553,-199.01 553,-223 553,-1401 553,-1401 553,-1401 553,-1428.84 532.57,-1451.19 510.28,-1467.3"/>
<polygon fill="#0d1174" stroke="#0d1174" stroke-width="0.5" points="509.75,-1466.18 507.6,-1469.2 511.16,-1468.18 509.75,-1466.18"/>
<text text-anchor="middle" x="566.88" y="-814.5" font-family="Arial" font-size="10.00" fill="#0d1174">1.04%</text>
<text text-anchor="middle" x="566.88" y="-802.5" font-family="Arial" font-size="10.00" fill="#0d1174">2×</text>
</g>
<!-- 1083 -->
<g id="node31" class="node">
<title>1083</title>
<g id="a_node31"><a xlink:title="/opt/ros/humble/lib/python3.10/site&#45;packages/ros2cli/entry_points.py">
<polygon fill="#0d1174" stroke="#0d1174" points="535.12,-448 372.88,-448 372.88,-392 535.12,-392 535.12,-448"/>
<text text-anchor="middle" x="454" y="-434.5" font-family="Arial" font-size="10.00" fill="#ffffff">entry_points:77:load_entry_points</text>
<text text-anchor="middle" x="454" y="-422.5" font-family="Arial" font-size="10.00" fill="#ffffff">0.97%</text>
<text text-anchor="middle" x="454" y="-410.5" font-family="Arial" font-size="10.00" fill="#ffffff">(0.00%)</text>
<text text-anchor="middle" x="454" y="-398.5" font-family="Arial" font-size="10.00" fill="#ffffff">2×</text>
</a>
</g>
</g>
<!-- 1078&#45;&gt;1083 -->
<g id="edge28" class="edge">
<title>1078&#45;&gt;1083</title>
<path fill="none" stroke="#0d1174" stroke-width="0.5" d="M445.41,-489.75C446.86,-478.09 448.57,-464.42 450.08,-452.35"/>
<polygon fill="#0d1174" stroke="#0d1174" stroke-width="0.5" points="451.27,-452.7 450.49,-449.07 448.84,-452.39 451.27,-452.7"/>
<text text-anchor="middle" x="463.3" y="-471.5" font-family="Arial" font-size="10.00" fill="#0d1174">0.97%</text>
<text text-anchor="middle" x="463.3" y="-459.5" font-family="Arial" font-size="10.00" fill="#0d1174">2×</text>
</g>
<!-- 1083&#45;&gt;823 -->
<g id="edge29" class="edge">
<title>1083&#45;&gt;823</title>
<path fill="none" stroke="#0d1074" stroke-width="0.5" d="M455.99,-391.75C456.84,-380.09 457.83,-366.42 458.71,-354.35"/>
<polygon fill="#0d1074" stroke="#0d1074" stroke-width="0.5" points="459.92,-354.66 458.95,-351.08 457.48,-354.48 459.92,-354.66"/>
<text text-anchor="middle" x="472.21" y="-373.5" font-family="Arial" font-size="10.00" fill="#0d1074">0.75%</text>
<text text-anchor="middle" x="472.21" y="-361.5" font-family="Arial" font-size="10.00" fill="#0d1074">1×</text>
</g>
<!-- 2027&#45;&gt;764 -->
<g id="edge32" class="edge">
<title>2027&#45;&gt;764</title>
<path fill="none" stroke="#fd1000" stroke-width="3.94" d="M272,-391.75C272,-383.74 272,-374.78 272,-366.04"/>
<polygon fill="#fd1000" stroke="#fd1000" stroke-width="3.94" points="275.47,-366.18 272,-356.28 268.54,-366.18 275.47,-366.18"/>
<text text-anchor="middle" x="288.5" y="-373.5" font-family="Arial" font-size="10.00" fill="#fd1000">98.41%</text>
<text text-anchor="middle" x="288.5" y="-361.5" font-family="Arial" font-size="10.00" fill="#fd1000">1×</text>
</g>
</g>
</svg>
